<svg width="198" height="207" viewBox="0 0 198 207" fill="none" xmlns="http://www.w3.org/2000/svg">
<path d="M12.0017 91.4958L12.2944 89.7391C15.2216 90.1782 16.3925 91.4958 15.9534 94.57C15.5143 97.7907 13.758 98.5227 10.6845 98.2299L4.68372 97.4979C1.46381 96.9123 0.000218397 95.4484 0.292938 92.5205C0.732016 89.5927 2.04925 88.4215 4.97644 88.8607L6.29368 89.0071C7.75728 89.1535 8.34271 89.5927 8.63543 91.0566L9.65995 95.5948L10.8308 95.7412C12.5871 96.034 13.4653 95.8876 13.6117 94.1309C13.9044 92.6669 13.6117 91.6422 12.0017 91.4958ZM7.61092 95.302L7.02548 92.2277C6.87912 91.3494 6.5864 91.203 5.41552 91.0566L4.83008 90.9102C3.22013 90.7638 2.63469 91.3494 2.48833 92.6669C2.34197 93.9845 3.07377 94.7164 4.83008 94.8628L7.61092 95.302Z" fill="#4CA9C7"/>
<path d="M16.8317 73.3429L17.4172 73.4893C19.3198 74.0749 20.4907 75.978 19.6125 78.4667C18.7344 80.9554 16.9781 81.9801 14.1972 80.9554L13.1727 80.6626L13.9045 78.6131L14.929 78.9059C16.8317 79.4915 17.4172 78.9059 17.7099 77.8811C18.2953 75.978 16.9781 75.6852 16.0999 75.3925C13.3191 74.5141 11.7091 79.9306 7.4647 78.4667L7.17198 78.3203C4.83023 77.5884 3.80571 75.978 4.53751 73.4893C5.26931 71.1471 6.87926 70.2687 9.66009 71.2934L10.2455 71.5862L9.51373 73.6357L8.9283 73.4893C7.31834 72.9038 6.7329 73.3429 6.44018 74.2213C5.85474 75.8316 7.31834 76.1244 8.1965 76.4172C10.831 77.2956 12.4409 71.879 16.8317 73.3429Z" fill="#4CA9C7"/>
<path d="M24.2957 58.2645L24.8811 58.5573C26.6374 59.582 27.3692 61.6316 26.052 63.8275C24.7348 66.1697 22.8321 66.7553 20.1976 65.2914L19.1731 64.7058L20.1976 62.8027L21.2221 63.3883C22.9784 64.413 23.7102 63.8275 24.1493 62.9491C25.1738 61.1924 23.8566 60.6068 23.1248 60.1676C20.6367 58.7037 18.0022 63.8275 14.0505 61.6316L13.9042 61.4852C11.7088 60.314 10.977 58.5573 12.2942 56.3614C13.6114 54.1655 15.2214 53.7263 17.8559 55.1903L18.4413 55.483L17.4168 57.3862L16.8313 57.0934C15.3678 56.3614 14.636 56.5078 14.1969 57.3862C13.3187 58.8501 14.7823 59.4357 15.5141 59.8748C17.7095 61.046 20.344 56.0686 24.2957 58.2645Z" fill="#4CA9C7"/>
<path d="M33.8094 45.9675L34.9803 44.65C37.1757 46.5531 37.4684 48.3098 35.4194 50.6521C33.224 53.1408 31.3213 52.7016 28.9795 50.6521L24.4424 46.6995C22.1006 44.65 21.6616 42.6005 23.5642 40.4046C25.4669 38.2087 27.2232 38.0623 29.565 39.9654L30.5895 40.8438C31.7604 41.8685 31.9067 42.4541 31.4677 43.7716L29.8577 48.1634L30.7359 48.8954C32.0531 50.0665 32.9313 50.3593 33.9558 49.1882C34.8339 48.017 35.1266 46.9923 33.8094 45.9675ZM28.1014 46.6995L29.2723 43.7716C29.565 42.8933 29.4186 42.6005 28.6868 41.8685L28.2477 41.4293C26.9305 40.4046 26.1987 40.6974 25.3206 41.5757C24.4424 42.6005 24.7351 43.4788 26.0523 44.7964L28.1014 46.6995Z" fill="#4CA9C7"/>
<path d="M44.7864 27.2291L51.3726 35.8663L49.4699 37.3303L42.8838 28.5467C41.8592 27.2291 40.8347 26.9363 39.9566 27.6683C38.6393 28.6931 38.3466 29.8642 39.3711 31.0354L46.1037 39.8189L44.201 41.2829L34.834 28.9858L36.7367 27.5219L37.3221 28.4003C37.3221 27.3755 37.9075 26.4972 38.7857 25.7652C41.1274 24.3013 43.0301 24.7404 44.7864 27.2291Z" fill="#4CA9C7"/>
<path d="M60.1541 19.3239L59.715 18.4455C58.9832 16.9816 58.2514 16.8352 56.9342 17.4208C55.4706 18.1527 55.6169 19.0311 56.3487 20.6414L58.9832 26.2044C59.715 27.8147 60.3004 28.4003 61.764 27.8147C63.0813 27.2291 63.5203 26.4972 62.7885 25.0332L61.9104 23.2765L63.8131 22.3981L64.6912 24.1549C66.0085 26.7899 65.423 28.5467 62.6422 29.8642C59.715 31.3281 58.105 30.157 56.7878 27.3755L54.1533 21.8126C52.8361 19.0311 52.9825 17.128 55.9096 15.6641C58.6905 14.3465 60.3004 14.9321 61.6177 17.7136L62.0568 18.5919L60.1541 19.3239Z" fill="#4CA9C7"/>
<path d="M79.7664 19.4703L81.5227 19.0311C82.2545 21.959 81.3763 23.4229 78.4491 24.1549C75.2292 24.8868 73.912 23.5693 73.1802 20.495L71.7166 14.6393C70.9848 11.565 71.7166 9.66193 74.6438 8.92997C77.571 8.198 79.0346 9.07636 79.7664 12.0042L80.0591 13.3218C80.4982 14.7857 80.2054 15.3713 79.0346 16.2496L75.0829 18.8847L75.3756 20.0559C75.8146 21.8126 76.2537 22.5445 77.8637 22.1054C79.3273 21.6662 80.2054 21.0806 79.7664 19.4703ZM74.6438 16.8352L77.2782 15.0785C78.01 14.6393 78.01 14.2001 77.8637 13.1754L77.7173 12.5898C77.2782 10.9795 76.4001 10.6867 75.2292 11.1259C73.912 11.4187 73.6193 12.4434 74.0583 14.2001L74.6438 16.8352Z" fill="#4CA9C7"/>
<path d="M114.015 11.8579L113.283 18.2992C112.99 21.227 111.526 22.691 108.892 22.3982C107.721 22.2518 106.843 21.8126 106.258 20.9342L105.965 21.959L103.623 21.6662L106.258 0L108.599 0.292786L107.721 7.61245C108.453 6.88048 109.477 6.5877 110.648 6.73409C113.283 7.17327 114.307 8.78359 114.015 11.8579ZM111.673 11.5651C111.819 9.95474 111.38 9.07638 110.209 8.92999C108.599 8.78359 107.575 9.36917 107.428 10.9795L106.55 17.5672C106.404 19.1775 107.136 20.0559 108.746 20.2023C109.917 20.3487 110.648 19.4703 110.795 18.0064L111.673 11.5651Z" fill="#4CA9C7"/>
<path d="M134.651 12.8826L129.675 27.5219L127.479 26.7899L127.772 25.7652C126.894 26.3508 125.869 26.3508 124.698 25.9116C122.064 25.0332 121.479 23.1301 122.503 20.3486L126.016 9.95471L128.211 10.6867L124.698 21.0806C124.259 22.5445 124.552 23.5693 125.577 24.0085C127.187 24.594 128.211 24.1549 128.796 22.5445L132.309 12.0042L134.651 12.8826Z" fill="#4CA9C7"/>
<path d="M146.36 31.6209L146.067 32.2065C145.043 33.9632 142.994 34.6952 140.798 33.2312C138.603 31.9137 137.871 30.0106 139.481 27.3755L140.067 26.3508L141.969 27.3755L141.384 28.4003C140.359 30.157 140.945 30.889 141.823 31.3281C143.579 32.3529 144.165 31.1817 144.604 30.3034C146.067 27.8147 141.091 25.1796 143.433 21.227L143.579 20.9342C144.896 18.7383 146.653 18.0064 148.848 19.3239C151.044 20.6414 151.483 22.2518 150.019 24.8868L149.726 25.4724L147.824 24.4477L148.116 23.8621C148.994 22.3981 148.702 21.6662 147.97 21.227C146.506 20.3486 145.921 21.6662 145.482 22.3981C143.726 25.0332 148.702 27.6683 146.36 31.6209Z" fill="#4CA9C7"/>
<path d="M150.897 40.2582L160.849 28.4003L162.606 29.8643L152.653 41.7221L150.897 40.2582ZM162.02 26.9364L163.484 25.1797L165.24 26.6436L163.777 28.4003L162.02 26.9364Z" fill="#4CA9C7"/>
<path d="M173.29 47.5778L164.948 54.6046L163.484 52.8479L171.827 45.821C172.997 44.7963 173.29 43.7715 172.558 42.7468C171.534 41.4292 170.363 41.2828 169.046 42.3076L160.557 49.4809L159.093 47.7241L170.948 37.7694L172.412 39.5261L171.534 40.2581C172.558 40.2581 173.437 40.6973 174.168 41.5756C176.071 43.6251 175.632 45.5283 173.29 47.5778Z" fill="#4CA9C7"/>
<path d="M176.51 65.5842L177.388 67.1945C174.754 68.6585 173.144 68.2193 171.68 65.4378C170.07 62.51 171.095 60.8996 173.876 59.4357L179.291 56.5078C182.072 55.0439 184.121 55.3367 185.584 57.9718C187.048 60.6068 186.462 62.3636 183.828 63.6811L182.657 64.2667C181.34 64.9986 180.608 64.9986 179.584 63.9739L176.071 60.8996L175.046 61.4852C173.436 62.3636 172.851 62.9491 173.583 64.4131C174.315 65.7306 175.046 66.4626 176.51 65.5842ZM177.827 60.0213L180.169 62.2172C180.901 62.8027 181.193 62.8027 182.072 62.2172L182.657 61.9244C184.121 61.1924 184.121 60.3141 183.535 59.1429C182.95 57.9718 181.925 57.8254 180.315 58.7037L177.827 60.0213Z" fill="#4CA9C7"/>
<path d="M183.243 83.1514L182.657 83.2978C180.755 83.8834 178.705 83.005 177.974 80.5163C177.242 78.0276 178.12 76.1245 180.901 75.2462L181.925 74.9534L182.511 77.0029L181.486 77.2957C179.584 77.8812 179.437 78.7596 179.73 79.7843C180.315 81.6875 181.633 81.1019 182.511 80.9555C185.292 80.0771 183.389 74.807 187.78 73.4894L188.072 73.343C190.414 72.6111 192.171 73.343 193.049 75.6853C193.781 78.174 193.049 79.638 190.122 80.5163L189.536 80.6627L188.951 78.6132L189.536 78.4668C191.146 78.0276 191.439 77.2957 191.146 76.4173C190.707 74.807 189.243 75.3926 188.512 75.6853C185.731 76.4173 187.633 81.8338 183.243 83.1514Z" fill="#4CA9C7"/>
<path d="M185.877 99.8402H185.291C183.242 99.9866 181.486 98.8155 181.193 96.1804C180.901 93.5453 182.072 91.935 185.145 91.6422L186.316 91.4958L186.609 93.6917L185.438 93.8381C183.389 94.1309 183.242 95.0092 183.242 96.034C183.389 98.0835 184.706 97.7907 185.731 97.6443C188.658 97.3515 187.78 91.7886 192.317 91.203H192.609C195.098 90.9102 196.708 91.935 197 94.4237C197.293 96.9124 196.268 98.2299 193.195 98.6691H192.609L192.317 96.4732H192.902C194.512 96.3268 194.951 95.7412 194.951 94.7165C194.805 92.9597 193.341 93.3989 192.463 93.3989C189.536 93.6917 190.414 99.2546 185.877 99.8402Z" fill="#4CA9C7"/>
<path d="M0.14636 112.869C0.14636 112.723 0.292719 112.723 0.439079 112.723L14.3432 111.991C14.4896 111.991 14.636 111.991 14.636 112.137C14.7823 112.284 14.7823 112.284 14.7823 112.43V113.455C14.7823 113.601 14.7823 113.748 14.636 113.894C14.4896 114.04 14.4896 114.04 14.3432 114.04L0.439079 114.772C0.292719 114.772 0.14636 114.772 0.14636 114.626C0.14636 114.48 0 114.333 0 114.187V113.162C0 113.016 0 112.869 0.14636 112.869Z" fill="#9AD0D2"/>
<path d="M0.29248 119.603C0.29248 119.457 0.43884 119.457 0.5852 119.457L10.3913 117.554C10.5377 117.554 10.684 117.554 10.8304 117.554C10.9767 117.554 10.9767 117.7 10.9767 117.846L11.1231 118.725C11.1231 118.871 11.1231 119.018 11.1231 119.018C10.9767 119.164 10.9767 119.164 10.8304 119.164L10.2449 119.457C11.2694 120.042 12.0012 120.921 12.294 122.238C12.5867 123.702 12.1476 125.02 10.9767 125.898C11.5622 126.045 12.1476 126.484 12.5867 127.069C13.0258 127.655 13.3185 128.24 13.4648 128.972C13.7576 130.144 13.4648 131.168 12.8794 132.047C12.294 132.925 11.1231 133.511 9.65949 133.803L3.65875 134.974C3.51239 134.974 3.36603 134.974 3.21967 134.974C3.07331 134.828 3.07331 134.828 3.07331 134.682L2.92695 133.511C2.92695 133.364 2.92695 133.218 2.92695 133.071C2.92695 132.925 3.07331 132.925 3.21967 132.925L9.07406 131.754C10.2449 131.607 10.9767 131.168 11.2694 130.583C11.8549 130.144 11.8549 129.558 11.7085 128.826C11.5622 128.094 11.2695 127.655 10.684 127.216C10.0986 126.776 9.22042 126.776 8.1959 126.923L2.34151 128.094C2.19516 128.094 2.0488 128.094 1.90244 128.094C1.75608 127.948 1.75608 127.948 1.75608 127.801L1.60972 126.923C1.60972 126.776 1.60972 126.63 1.60972 126.484C1.60972 126.337 1.75608 126.337 1.90244 126.337L7.75682 125.166C8.78134 125.02 9.65949 124.581 9.95221 123.995C10.3913 123.409 10.5377 122.824 10.3913 122.092C10.2449 121.36 9.95221 120.921 9.36678 120.482C8.78134 120.042 7.90318 119.896 6.87866 120.042L1.02428 121.214C0.877919 121.214 0.731559 121.214 0.5852 121.214C0.43884 121.214 0.43884 121.067 0.43884 120.921L0.29248 120.042C0.29248 119.75 0.29248 119.75 0.29248 119.603Z" fill="#9AD0D2"/>
<path d="M1.17077 140.977C1.17077 140.83 1.31713 140.83 1.46349 140.684L14.6359 135.56C14.7822 135.56 14.9286 135.56 15.0749 135.56C15.2213 135.56 15.2213 135.707 15.3677 135.853L15.6604 136.731C15.6604 136.878 15.6604 137.024 15.6604 137.171C15.6604 137.317 15.514 137.317 15.3677 137.463L14.4895 137.61C15.8067 138.049 16.6849 138.927 17.2703 140.245C17.8558 141.562 17.7094 142.88 17.124 143.905C16.5385 144.929 15.514 145.808 14.1968 146.247C14.0504 146.247 13.9041 146.393 13.465 146.54C13.1723 146.686 12.8795 146.686 12.7332 146.832C11.4159 147.272 10.0987 147.418 8.92783 146.979C7.75695 146.686 6.8788 145.808 6.43972 144.344C5.85428 142.88 6.00064 141.709 6.73244 140.538L2.04893 142.294C1.90257 142.294 1.75621 142.294 1.60985 142.294C1.46349 142.294 1.46349 142.148 1.31713 142.001L1.02441 141.123C1.17077 141.123 1.17077 141.123 1.17077 140.977ZM9.65963 145.222C10.3914 145.369 11.2696 145.369 12.2941 145.076C12.4405 145.076 12.5868 144.929 12.8795 144.929C15.3677 143.905 16.2458 142.587 15.6604 140.684C15.3677 139.806 14.7822 139.22 13.9041 138.927C13.1723 138.634 12.2941 138.781 11.4159 139.074C11.2696 139.074 10.9769 139.22 10.6841 139.366C10.2451 139.513 10.0987 139.659 9.95235 139.659C9.22055 139.952 8.48875 140.538 8.19603 141.27C7.75695 142.001 7.75695 142.733 8.04967 143.612C8.34239 144.49 8.78147 145.076 9.65963 145.222Z" fill="#9AD0D2"/>
<path d="M11.4162 152.395C11.709 151.224 12.5871 150.346 13.758 149.467L14.4898 149.028L15.368 148.589C16.6852 148.004 17.8561 147.711 19.0269 148.15C20.1978 148.443 21.2223 149.321 21.9541 150.639C22.6859 151.956 22.8323 153.274 22.5396 154.445C22.2469 155.616 21.3687 156.641 20.1978 157.373C19.9051 157.519 19.6124 157.666 19.466 157.812C19.1733 157.958 18.8806 158.105 18.5879 158.251C17.2706 158.837 16.0998 159.129 14.9289 158.837C13.758 158.544 12.7335 157.665 12.0017 156.348C11.2699 154.884 11.1235 153.566 11.4162 152.395ZM15.2216 156.934C15.9534 157.08 16.8316 156.934 17.8561 156.494C18.0024 156.494 18.2951 156.348 18.5879 156.055C18.8806 155.909 19.1733 155.762 19.3197 155.616C20.1978 155.03 20.7833 154.445 21.076 153.713C21.3687 152.981 21.2223 152.249 20.7833 151.371C20.3442 150.639 19.7587 150.053 19.0269 149.907C18.2951 149.76 17.417 149.907 16.3925 150.346L15.6607 150.785L14.9289 151.224C14.0507 151.81 13.4653 152.395 13.1726 153.127C12.8798 153.859 13.0262 154.591 13.4653 155.47C13.9044 156.202 14.4898 156.787 15.2216 156.934Z" fill="#9AD0D2"/>
<path d="M16.9775 163.521C16.9775 163.375 17.1239 163.228 17.1239 163.228L25.32 157.373C25.4664 157.226 25.6128 157.226 25.7591 157.226C25.9055 157.226 26.0518 157.373 26.0518 157.373L26.6373 158.105C26.7836 158.251 26.7836 158.397 26.7836 158.544C26.7836 158.69 26.6373 158.837 26.4909 158.837L25.7591 159.422C26.93 159.276 27.8081 159.861 28.6863 161.033L29.1254 161.765C29.2717 161.911 29.2717 162.057 29.2717 162.204C29.2717 162.35 29.1254 162.496 28.979 162.496L28.3936 162.936C28.2472 163.082 28.1009 163.082 28.1009 163.082C27.9545 163.082 27.8081 162.936 27.8081 162.936L27.0763 161.911C26.6373 161.325 26.0518 160.886 25.4664 160.74C24.881 160.593 24.1492 160.886 23.5637 161.325L18.4411 164.985C18.2948 165.132 18.1484 165.132 18.0021 165.132C17.8557 165.132 17.7093 164.985 17.7093 164.985L17.1239 164.253C16.9775 163.814 16.9775 163.668 16.9775 163.521Z" fill="#9AD0D2"/>
<path d="M25.4664 168.938L29.8572 165.278L28.8327 163.96C28.6863 163.814 28.6863 163.668 28.6863 163.668C28.6863 163.521 28.6863 163.375 28.8327 163.375L29.4181 162.936C29.5645 162.789 29.7108 162.789 29.7108 162.789C29.8572 162.789 30.0036 162.789 30.0036 162.936L31.0281 164.253L33.6625 161.911C33.8089 161.765 33.9553 161.765 33.9553 161.765C34.1016 161.765 34.248 161.765 34.248 161.911L34.8334 162.643C34.9798 162.789 34.9798 162.936 34.9798 162.936C34.9798 163.082 34.9798 163.228 34.8334 163.228L32.1989 165.571L33.9553 167.62C34.1016 167.767 34.1016 167.913 34.1016 167.913C34.1016 168.059 34.1016 168.206 33.9553 168.206L33.3698 168.645C33.2235 168.791 33.0771 168.791 33.0771 168.791L32.7844 168.645L31.0281 166.596L26.7836 170.255C26.1982 170.695 25.9055 171.134 25.7591 171.573C25.6128 172.012 25.7591 172.451 26.0518 172.89L26.93 173.915C27.0764 174.062 27.0764 174.208 27.0764 174.208C27.0764 174.354 26.93 174.501 26.93 174.501L26.3446 174.94C26.1982 175.086 26.0518 175.086 26.0518 175.086C25.9055 175.086 25.7591 175.086 25.7591 174.94L24.881 173.915C23.271 172.158 23.5637 170.548 25.4664 168.938Z" fill="#9AD0D2"/>
<path d="M29.1257 178.161C28.833 177.575 28.833 176.989 28.833 176.404C28.9794 175.818 29.1257 175.233 29.5648 174.793C30.1502 174.062 31.0284 173.769 31.9066 173.915C32.9311 174.062 33.9556 174.354 34.9801 175.233L37.6146 177.136L38.0537 176.697C39.0782 175.672 38.9318 174.501 37.7609 173.33C37.3219 172.89 36.8828 172.598 36.2973 172.598C35.8583 172.451 35.4192 172.598 34.9801 172.744C34.8337 172.744 34.6874 172.89 34.6874 172.89C34.541 172.89 34.541 172.89 34.3947 172.744L33.8092 172.158C33.6629 172.012 33.6629 172.012 33.6629 171.866C33.6629 171.719 33.6629 171.573 33.8092 171.573C34.102 171.28 34.3947 171.134 34.9801 170.987C35.5655 170.841 36.151 170.987 36.7364 171.134C37.4682 171.28 38.0537 171.719 38.7855 172.451C39.9563 173.476 40.5418 174.647 40.5418 175.525C40.5418 176.55 40.1027 177.429 39.3709 178.307L34.6874 183.284C34.541 183.431 34.541 183.431 34.3947 183.431C34.2483 183.431 34.102 183.431 34.102 183.284L33.3702 182.699C33.2238 182.552 33.2238 182.552 33.2238 182.406C33.2238 182.26 33.2238 182.113 33.3702 182.113L33.9556 181.381C33.3702 181.528 32.7847 181.528 32.1993 181.235C31.6138 181.088 30.882 180.649 30.1502 180.064C29.7112 179.332 29.2721 178.746 29.1257 178.161ZM33.8092 179.771C34.6874 179.771 35.4192 179.332 36.2973 178.453L36.7364 178.014L34.6874 176.55C33.8092 175.965 33.0774 175.672 32.492 175.525C31.9066 175.379 31.4675 175.525 31.0284 175.965C30.5893 176.404 30.443 176.843 30.5893 177.429C30.7357 178.014 31.0284 178.453 31.4675 178.892C32.1993 179.624 32.9311 179.917 33.8092 179.771Z" fill="#9AD0D2"/>
<path d="M40.3954 183.431L43.7617 178.892L42.4444 177.868C42.2981 177.721 42.2981 177.721 42.2981 177.575C42.2981 177.429 42.2981 177.282 42.4444 177.282L42.8835 176.697C43.0299 176.55 43.0299 176.55 43.1762 176.55C43.3226 176.55 43.4689 176.55 43.4689 176.697L44.7862 177.721L46.8352 174.94C46.9816 174.793 46.9816 174.793 47.1279 174.793C47.2743 174.793 47.4207 174.793 47.4207 174.94L48.1525 175.525C48.2988 175.672 48.2988 175.672 48.2988 175.818C48.2988 175.965 48.2988 176.111 48.1525 176.111L46.1034 178.892L48.1525 180.503C48.2988 180.649 48.2988 180.649 48.2988 180.796C48.2988 180.942 48.2988 181.088 48.1525 181.088L47.7134 181.674C47.567 181.82 47.567 181.82 47.4207 181.82C47.2743 181.82 47.1279 181.82 47.1279 181.674L45.3716 180.064L42.0054 184.455C41.5663 185.041 41.2736 185.48 41.2736 185.919C41.2736 186.359 41.4199 186.798 41.859 187.09L42.8835 187.822C43.0299 187.969 43.0299 187.969 43.0299 188.115C43.0299 188.262 43.0299 188.408 42.8835 188.408L42.4444 188.994C42.2981 189.14 42.2981 189.14 42.1517 189.14C42.0054 189.14 41.859 189.14 41.859 188.994L40.6881 188.115C39.0782 187.09 38.9318 185.48 40.3954 183.431Z" fill="#9AD0D2"/>
<path d="M44.9326 191.043C44.9326 190.897 44.9326 190.75 44.9326 190.604L50.3479 182.113C50.4943 181.967 50.4943 181.967 50.6406 181.82C50.787 181.82 50.9334 181.82 51.0797 181.82L51.8115 182.26C51.9579 182.406 51.9579 182.406 52.1042 182.552C52.1042 182.699 52.1042 182.845 52.1042 182.992L46.6889 191.482C46.5426 191.629 46.5426 191.629 46.3962 191.775C46.2499 191.775 46.1035 191.775 45.9571 191.775L45.2253 191.336C45.079 191.19 44.9326 191.043 44.9326 191.043ZM51.8115 179.771C51.8115 179.624 51.8115 179.478 51.8115 179.332L52.397 178.453C52.5433 178.307 52.5433 178.307 52.6897 178.161C52.836 178.161 52.9824 178.161 53.1288 178.161L54.1533 178.892C54.2996 179.039 54.2996 179.039 54.446 179.185C54.446 179.332 54.446 179.478 54.446 179.624L53.8605 180.503C53.7142 180.649 53.7142 180.649 53.5678 180.649C53.4215 180.649 53.2751 180.649 53.1288 180.503L52.1042 179.771C51.9579 180.064 51.8115 179.917 51.8115 179.771Z" fill="#9AD0D2"/>
<path d="M51.0794 193.678C50.7866 192.507 50.7866 191.336 51.5184 190.018L51.9575 189.14L52.3966 188.408C53.1284 187.091 54.0066 186.359 55.1774 185.919C56.3483 185.48 57.6655 185.627 58.9828 186.359C60.3 187.091 61.1782 187.969 61.6172 189.14C62.0563 190.311 61.91 191.629 61.3245 192.946C61.1782 193.239 61.0318 193.532 60.8854 193.825C60.7391 194.117 60.5927 194.41 60.4464 194.557C59.7146 195.874 58.8364 196.606 57.6655 197.045C56.4947 197.484 55.3238 197.338 53.8602 196.606C52.2502 195.728 51.3721 194.849 51.0794 193.678ZM56.641 195.289C57.3728 194.996 57.9583 194.41 58.5437 193.532C58.6901 193.385 58.6901 193.239 58.9828 192.8C59.1291 192.507 59.2755 192.214 59.2755 192.068C59.7146 191.043 59.8609 190.165 59.5682 189.433C59.4219 188.701 58.8364 188.115 58.1046 187.676C57.2265 187.237 56.4947 187.237 55.7629 187.53C55.0311 187.823 54.4456 188.408 53.8602 189.286L53.4211 190.018L53.1284 190.75C52.6893 191.775 52.543 192.653 52.8357 193.385C52.982 194.117 53.5675 194.703 54.2993 195.142C55.1774 195.435 55.9092 195.435 56.641 195.289Z" fill="#9AD0D2"/>
<path d="M62.0566 199.973C62.0566 199.827 62.0566 199.68 62.0566 199.534L65.2765 190.018C65.2765 189.872 65.4229 189.726 65.5693 189.726C65.7156 189.726 65.862 189.726 66.0083 189.726L66.8865 190.018C67.0329 190.018 67.1792 190.165 67.1792 190.311C67.1792 190.458 67.1792 190.604 67.1792 190.75L66.8865 191.629C67.4719 191.336 68.0574 191.043 68.6428 190.897C69.2283 190.75 69.9601 190.897 70.6919 191.19C72.0091 191.629 72.8872 192.361 73.3263 193.385C73.7654 194.41 73.7654 195.728 73.3263 197.045L71.4237 202.755C71.4237 202.901 71.2773 203.047 71.1309 203.047C70.9846 203.047 70.8382 203.047 70.6919 203.047L69.8137 202.755C69.6673 202.755 69.521 202.608 69.521 202.462C69.521 202.315 69.521 202.169 69.521 202.023L71.4237 196.46C71.7164 195.435 71.7164 194.703 71.4237 193.971C71.1309 193.239 70.5455 192.8 69.6673 192.507C68.7892 192.214 68.0574 192.214 67.3256 192.653C66.5938 193.093 66.1547 193.678 65.862 194.703L63.9593 200.266C63.9593 200.412 63.813 200.559 63.6666 200.559C63.5202 200.559 63.3739 200.559 63.2275 200.559L62.3494 200.266C62.203 200.119 62.0566 200.12 62.0566 199.973Z" fill="#9AD0D2"/>
<path d="M81.9615 205.39C81.3761 205.097 80.937 204.511 80.7906 204.072C80.6443 203.633 80.3515 203.047 80.4979 202.462C80.6443 201.583 81.0833 200.852 81.9615 200.412C82.8397 199.973 83.8642 199.68 85.1814 199.68H88.4013L88.5477 199.095C88.694 197.631 87.9622 196.753 86.3523 196.606C85.7668 196.46 85.1814 196.606 84.7423 196.752C84.3032 196.899 84.0105 197.192 83.7178 197.484C83.5714 197.631 83.5714 197.631 83.5714 197.777C83.5714 197.777 83.4251 197.777 83.2787 197.777L82.4006 197.631C82.2542 197.631 82.1079 197.484 82.1079 197.484C81.9615 197.338 81.9615 197.338 81.9615 197.192C81.9615 196.899 82.2542 196.46 82.5469 196.167C82.8397 195.728 83.4251 195.435 84.1569 195.289C84.8887 194.996 85.6205 194.996 86.4986 195.142C88.1086 195.289 89.1331 195.874 89.7185 196.752C90.304 197.631 90.4503 198.509 90.304 199.68L89.4258 206.561C89.4258 206.707 89.2795 206.854 89.2795 206.854C89.1331 207 88.9868 207 88.9868 207L88.1086 206.854C87.9622 206.854 87.8159 206.707 87.8159 206.707C87.8159 206.561 87.6695 206.414 87.6695 206.414L87.8159 205.536C87.3768 205.975 86.9377 206.268 86.3523 206.561C85.7668 206.854 84.8887 206.854 84.0105 206.707C83.1324 205.975 82.5469 205.682 81.9615 205.39ZM86.9377 203.926C87.6695 203.34 87.9622 202.608 88.255 201.437L88.4013 200.852H85.9132C84.8887 200.852 84.1569 200.998 83.5714 201.291C82.986 201.583 82.6933 201.876 82.5469 202.462C82.4006 203.047 82.6933 203.487 83.1324 203.926C83.5714 204.365 84.1569 204.511 84.7423 204.658C85.4741 204.658 86.2059 204.511 86.9377 203.926Z" fill="#9AD0D2"/>
<path d="M93.8163 206.854C93.6699 206.707 93.6699 206.707 93.6699 206.561V196.46C93.6699 196.313 93.6699 196.167 93.8163 196.167C93.9626 196.021 93.9626 196.021 94.109 196.021H94.9872C95.1335 196.021 95.2799 196.021 95.2799 196.167C95.4262 196.313 95.4262 196.313 95.4262 196.46V197.338C95.8653 196.753 96.3044 196.46 96.8898 196.167C97.4753 195.874 98.2071 195.728 98.9389 195.728C100.256 195.728 101.281 196.167 102.159 197.045C102.891 197.924 103.33 199.095 103.33 200.559V206.561C103.33 206.707 103.33 206.854 103.183 206.854C103.037 207 103.037 207 102.891 207H101.866C101.72 207 101.573 207 101.573 206.854C101.427 206.707 101.427 206.707 101.427 206.561V200.705C101.427 199.68 101.134 198.948 100.695 198.363C100.256 197.777 99.5243 197.484 98.6461 197.484C97.768 197.484 97.0362 197.777 96.4508 198.363C95.8653 198.948 95.5726 199.68 95.5726 200.705V206.561C95.5726 206.707 95.5726 206.854 95.4262 206.854C95.2799 207 95.2799 207 95.1335 207H94.109C93.9626 207 93.9626 206.854 93.8163 206.854Z" fill="#9AD0D2"/>
<path d="M108.306 205.243C107.428 204.365 106.843 203.194 106.55 201.73L106.404 201.144V200.559C106.257 199.095 106.55 197.777 107.135 196.752C107.721 195.728 108.745 194.996 110.209 194.849C111.672 194.703 112.843 194.996 113.868 195.874L113.136 191.043C113.136 190.897 113.136 190.75 113.282 190.604C113.429 190.458 113.429 190.458 113.575 190.458L114.453 190.311C114.6 190.311 114.746 190.311 114.892 190.458C115.039 190.604 115.039 190.604 115.039 190.75L117.088 204.658C117.088 204.804 117.088 204.95 116.941 205.097C116.795 205.243 116.795 205.243 116.649 205.243L115.771 205.39C115.624 205.39 115.478 205.39 115.478 205.243C115.478 205.097 115.331 205.097 115.331 204.95L115.185 204.072C114.6 205.243 113.429 205.975 111.965 206.122C110.355 206.414 109.184 206.122 108.306 205.243ZM114.014 203.194C114.453 202.462 114.6 201.73 114.453 200.705C114.453 200.559 114.453 200.266 114.307 199.973C114.307 199.534 114.161 199.241 114.161 199.095C114.014 198.216 113.575 197.484 112.99 197.045C112.404 196.46 111.672 196.313 110.648 196.46C109.623 196.606 108.892 197.045 108.599 197.777C108.16 198.509 108.16 199.388 108.16 200.412V200.998C108.599 203.633 109.77 204.95 111.672 204.658C112.99 204.365 113.575 203.926 114.014 203.194Z" fill="#9AD0D2"/>
<path d="M127.333 202.608C127.186 202.608 127.186 202.462 127.04 202.315L122.356 189.286C122.356 189.14 122.356 188.994 122.356 188.847C122.356 188.701 122.503 188.701 122.649 188.554L130.845 185.627C130.992 185.627 131.138 185.627 131.284 185.627C131.431 185.627 131.431 185.773 131.577 185.919L131.87 186.651C131.87 186.798 131.87 186.944 131.87 187.091C131.87 187.237 131.723 187.237 131.577 187.383L124.698 189.872L126.308 194.264L132.748 191.921C132.894 191.921 133.041 191.921 133.187 191.921C133.333 191.921 133.333 192.068 133.48 192.214L133.772 192.946C133.772 193.093 133.772 193.239 133.772 193.385C133.772 193.532 133.626 193.532 133.48 193.678L127.04 196.02L128.65 200.705L135.675 198.216C135.822 198.216 135.968 198.216 136.114 198.216C136.261 198.216 136.261 198.363 136.407 198.509L136.7 199.241C136.7 199.388 136.7 199.534 136.7 199.68C136.7 199.827 136.553 199.827 136.407 199.973L128.064 202.901C127.625 202.608 127.479 202.608 127.333 202.608Z" fill="#9AD0D2"/>
<path d="M139.334 198.07C139.188 198.07 139.188 197.924 139.042 197.777C139.042 197.631 138.895 197.484 139.042 197.338L140.066 191.336L134.944 188.847C134.797 188.701 134.651 188.701 134.651 188.554C134.651 188.408 134.651 188.262 134.651 188.262C134.651 188.115 134.797 188.115 134.797 187.969L135.675 187.53C135.822 187.383 136.114 187.383 136.261 187.53L140.505 189.433L141.383 184.748C141.383 184.602 141.383 184.455 141.53 184.455C141.53 184.309 141.676 184.309 141.823 184.309L142.701 183.87C142.847 183.87 142.847 183.87 142.993 183.87C143.14 183.87 143.14 184.016 143.286 184.016C143.286 184.163 143.432 184.309 143.286 184.455L142.262 190.165L147.677 192.653C147.823 192.8 147.97 192.8 147.97 192.946C147.97 193.093 147.97 193.239 147.97 193.239C147.97 193.385 147.823 193.385 147.677 193.532L146.799 193.971C146.652 194.117 146.36 194.117 146.213 193.971L141.676 191.922L140.798 196.752C140.798 196.899 140.798 197.045 140.652 197.045C140.652 197.192 140.505 197.192 140.359 197.192L139.481 197.631C139.627 198.07 139.481 198.07 139.334 198.07Z" fill="#9AD0D2"/>
<path d="M153.531 194.849C153.385 194.849 153.239 194.703 153.239 194.703L145.189 183.138C145.042 182.992 145.042 182.845 145.042 182.699C145.042 182.552 145.189 182.406 145.189 182.406L145.921 181.82C146.067 181.674 146.213 181.674 146.36 181.674C146.506 181.674 146.652 181.82 146.652 181.967L147.238 182.699C147.238 181.381 147.97 180.21 149.141 179.332C150.311 178.453 151.482 178.161 152.653 178.6C153.824 178.893 154.849 179.771 155.727 180.796C155.873 180.942 156.019 181.088 156.166 181.381C156.312 181.674 156.459 181.82 156.605 181.967C157.337 183.138 157.776 184.309 157.629 185.627C157.629 186.798 156.898 187.822 155.727 188.701C154.556 189.579 153.239 189.726 151.921 189.286L154.702 193.385C154.849 193.532 154.849 193.678 154.849 193.678C154.849 193.825 154.702 193.971 154.702 193.971L153.97 194.557C153.824 194.849 153.678 194.849 153.531 194.849ZM155.727 185.627C155.727 184.895 155.434 184.016 154.849 183.138C154.849 182.992 154.702 182.845 154.556 182.552C152.946 180.356 151.336 179.771 149.726 180.942C148.848 181.528 148.555 182.26 148.409 182.992C148.409 183.87 148.555 184.602 149.141 185.334C149.287 185.48 149.433 185.627 149.58 186.066C149.872 186.359 150.019 186.651 150.019 186.798C150.604 187.53 151.19 187.969 151.921 188.115C152.653 188.262 153.531 188.115 154.263 187.676C155.288 187.091 155.727 186.359 155.727 185.627Z" fill="#9AD0D2"/>
<path d="M162.313 182.113C161.142 182.113 159.971 181.528 158.947 180.503L158.361 179.917L157.776 179.185C156.751 178.014 156.312 176.843 156.459 175.672C156.459 174.501 157.044 173.33 158.215 172.305C159.386 171.28 160.557 170.841 161.728 170.841C162.898 170.841 164.069 171.427 165.094 172.451C165.387 172.598 165.533 172.89 165.679 173.037C165.826 173.183 166.118 173.476 166.265 173.769C167.289 174.94 167.728 175.965 167.728 177.282C167.728 178.453 167.143 179.625 165.972 180.649C164.655 181.674 163.484 182.113 162.313 182.113ZM165.679 177.282C165.679 176.55 165.387 175.672 164.655 174.94C164.508 174.794 164.362 174.647 164.069 174.354C163.777 174.062 163.63 173.915 163.484 173.769C162.752 173.037 162.02 172.598 161.142 172.598C160.264 172.598 159.679 172.89 158.947 173.476C158.215 174.062 157.922 174.794 157.922 175.526C157.922 176.257 158.215 177.136 158.947 177.868L159.532 178.453L160.118 179.039C160.849 179.771 161.581 180.21 162.459 180.21C163.191 180.21 163.923 179.917 164.655 179.332C165.387 178.746 165.679 178.161 165.679 177.282Z" fill="#9AD0D2"/>
<path d="M171.68 174.061C171.533 174.061 171.387 174.061 171.387 173.915L163.776 167.327C163.63 167.181 163.63 167.181 163.63 167.035C163.63 166.888 163.63 166.742 163.776 166.742L164.362 166.01C164.508 165.863 164.508 165.863 164.654 165.863C164.801 165.863 164.947 165.863 165.093 166.01L165.825 166.595C165.533 165.571 165.679 164.4 166.703 163.375L167.289 162.789C167.435 162.643 167.435 162.643 167.582 162.643C167.728 162.643 167.874 162.643 167.874 162.789L168.46 163.228C168.606 163.375 168.606 163.375 168.606 163.521C168.606 163.668 168.606 163.814 168.46 163.814L167.728 164.692C167.289 165.278 166.996 165.863 166.996 166.595C166.996 167.181 167.435 167.767 168.021 168.352L172.704 172.451C172.851 172.598 172.851 172.598 172.851 172.744C172.851 172.89 172.851 173.037 172.704 173.037L172.119 173.769C171.972 174.061 171.826 174.061 171.68 174.061Z" fill="#9AD0D2"/>
<path d="M174.9 164.546L170.216 161.325L169.192 162.643C169.045 162.789 169.045 162.789 168.899 162.789C168.753 162.789 168.606 162.789 168.606 162.643L168.021 162.204C167.874 162.057 167.874 162.057 167.874 161.911C167.874 161.765 167.874 161.618 168.021 161.618L169.045 160.301L166.118 158.251C165.972 158.105 165.972 158.105 165.972 157.958C165.972 157.812 165.972 157.665 166.118 157.665L166.703 156.934C166.85 156.787 166.85 156.787 166.996 156.787C167.143 156.787 167.289 156.787 167.289 156.934L170.216 158.983L171.68 156.787C171.826 156.641 171.826 156.641 171.972 156.641C172.119 156.641 172.265 156.641 172.265 156.787L172.851 157.226C172.997 157.373 172.997 157.373 172.997 157.519C172.997 157.665 172.997 157.812 172.851 157.812L171.387 160.008L175.924 163.228C176.51 163.668 177.095 163.814 177.388 163.96C177.827 163.96 178.266 163.814 178.559 163.375L179.29 162.35C179.437 162.204 179.437 162.204 179.583 162.204C179.729 162.204 179.876 162.204 179.876 162.35L180.461 162.789C180.608 162.936 180.608 162.936 180.608 163.082C180.608 163.228 180.608 163.375 180.461 163.375L179.583 164.546C178.559 165.864 176.949 166.01 174.9 164.546Z" fill="#9AD0D2"/>
<path d="M182.95 158.69C182.364 159.129 181.925 159.276 181.193 159.422C180.608 159.422 180.022 159.422 179.583 159.129C178.705 158.69 178.266 157.958 178.12 157.08C177.973 156.055 178.12 155.03 178.559 153.713L179.73 150.639L179.144 150.346C177.827 149.614 176.802 150.053 176.071 151.517C175.778 152.103 175.632 152.542 175.632 153.127C175.632 153.713 175.778 154.006 176.071 154.299C176.217 154.445 176.217 154.445 176.217 154.591C176.217 154.738 176.217 154.738 176.217 154.884L175.778 155.616C175.778 155.762 175.632 155.762 175.485 155.909C175.339 155.909 175.192 155.909 175.192 155.909C174.9 155.762 174.607 155.47 174.461 155.03C174.168 154.591 174.168 154.006 174.168 153.274C174.168 152.542 174.461 151.81 174.9 150.931C175.632 149.614 176.51 148.736 177.534 148.443C178.559 148.15 179.437 148.296 180.461 148.882L186.462 152.249C186.609 152.249 186.609 152.395 186.755 152.542C186.755 152.688 186.755 152.835 186.755 152.981L186.316 153.859C186.316 154.006 186.169 154.006 186.023 154.152C185.877 154.152 185.73 154.152 185.584 154.152L184.706 153.713C184.999 154.152 185.145 154.738 184.999 155.47C184.999 156.202 184.706 156.934 184.267 157.666C183.974 157.958 183.535 158.398 182.95 158.69ZM183.389 153.713C183.096 152.835 182.51 152.249 181.486 151.663L180.901 151.371L180.022 153.713C179.583 154.738 179.437 155.47 179.583 156.055C179.73 156.641 179.876 157.08 180.315 157.373C180.754 157.666 181.34 157.666 181.779 157.373C182.218 157.08 182.657 156.641 182.95 156.055C183.535 155.323 183.681 154.591 183.389 153.713Z" fill="#9AD0D2"/>
<path d="M185.291 146.393L180.022 144.197L179.437 145.808C179.437 145.954 179.29 145.954 179.144 146.1C178.998 146.1 178.851 146.1 178.851 146.1L178.266 145.808C178.119 145.808 177.973 145.661 177.973 145.515C177.973 145.368 177.973 145.222 177.973 145.076L178.559 143.465L175.339 142.148C175.192 142.148 175.046 142.001 175.046 141.855C175.046 141.709 175.046 141.562 175.046 141.416L175.339 140.537C175.339 140.391 175.485 140.245 175.631 140.245C175.778 140.245 175.924 140.245 176.07 140.245L179.29 141.562L180.315 139.074C180.315 138.927 180.461 138.781 180.608 138.781C180.754 138.781 180.9 138.781 181.047 138.781L181.632 139.074C181.778 139.074 181.778 139.22 181.925 139.366C181.925 139.513 181.925 139.659 181.925 139.806L180.9 142.294L186.023 144.49C186.755 144.783 187.194 144.929 187.633 144.783C188.072 144.636 188.365 144.344 188.657 143.905L189.096 142.733C189.096 142.587 189.243 142.587 189.389 142.441C189.535 142.441 189.682 142.441 189.828 142.441L190.414 142.733C190.56 142.733 190.706 142.88 190.706 143.026C190.706 143.173 190.706 143.319 190.706 143.465L190.121 144.783C189.243 146.832 187.633 147.272 185.291 146.393Z" fill="#9AD0D2"/>
<path d="M178.998 136.292C178.851 136.292 178.705 136.292 178.559 136.292L177.534 135.999C177.388 135.999 177.241 135.853 177.241 135.707C177.241 135.56 177.095 135.414 177.241 135.267L177.68 134.096C177.68 133.95 177.827 133.803 177.973 133.803C178.119 133.803 178.266 133.803 178.412 133.803L179.437 134.096C179.583 134.096 179.729 134.243 179.729 134.389C179.729 134.535 179.729 134.682 179.729 134.828L179.29 135.999C179.29 136.146 179.144 136.146 178.998 136.292ZM191.585 140.245C191.438 140.245 191.292 140.245 191.145 140.245L181.632 137.024C181.486 137.024 181.339 136.878 181.339 136.731C181.339 136.585 181.339 136.439 181.339 136.292L181.632 135.414C181.632 135.267 181.778 135.121 181.925 135.121C182.071 135.121 182.218 135.121 182.364 135.121L191.877 138.342C192.024 138.342 192.17 138.488 192.17 138.634C192.17 138.781 192.17 138.927 192.17 139.074L191.877 139.952C191.731 140.098 191.585 140.245 191.585 140.245Z" fill="#9AD0D2"/>
<path d="M192.609 133.657C191.584 134.243 190.267 134.389 188.95 134.243L188.072 134.096L187.194 133.803C185.73 133.364 184.706 132.779 184.12 131.754C183.388 130.729 183.242 129.412 183.681 127.948C183.974 126.484 184.706 125.459 185.73 124.727C186.755 124.141 188.072 123.849 189.389 124.141C189.682 124.141 189.975 124.288 190.267 124.288C190.56 124.288 190.853 124.434 191.145 124.581C192.609 125.02 193.634 125.605 194.219 126.63C194.951 127.655 195.097 128.972 194.658 130.436C194.365 131.9 193.634 133.071 192.609 133.657ZM192.755 127.801C192.316 127.216 191.584 126.63 190.56 126.484C190.414 126.484 190.121 126.337 189.828 126.337C189.389 126.191 189.243 126.191 189.096 126.191C188.072 126.045 187.194 126.045 186.462 126.484C185.73 126.923 185.291 127.509 185.145 128.387C184.998 129.265 184.998 129.997 185.437 130.729C185.876 131.315 186.608 131.9 187.633 132.047L188.365 132.193L189.096 132.339C190.121 132.486 190.999 132.486 191.731 132.047C192.463 131.608 192.902 131.022 193.048 130.144C193.341 129.119 193.194 128.387 192.755 127.801Z" fill="#9AD0D2"/>
<path d="M196.122 121.506C195.975 121.653 195.829 121.653 195.829 121.653L185.877 120.774C185.73 120.774 185.584 120.774 185.584 120.628C185.438 120.482 185.438 120.482 185.438 120.335L185.584 119.457C185.584 119.31 185.584 119.164 185.73 119.164C185.877 119.018 185.877 119.018 186.169 119.018L187.047 119.164C186.608 118.725 186.169 118.139 186.023 117.554C185.73 116.968 185.73 116.236 185.73 115.504C185.877 114.187 186.316 113.162 187.34 112.43C188.218 111.698 189.389 111.552 190.853 111.552L196.854 112.137C197 112.137 197.146 112.137 197.146 112.284C197.293 112.43 197.293 112.576 197.293 112.576L197.146 113.601C197.146 113.748 197.146 113.894 197 113.894C196.854 114.04 196.707 114.04 196.707 114.04L190.853 113.455C189.828 113.308 189.096 113.601 188.365 114.04C187.779 114.48 187.487 115.211 187.34 116.09C187.194 116.968 187.487 117.7 188.072 118.286C188.657 118.871 189.389 119.164 190.414 119.31L196.268 119.896C196.414 119.896 196.561 119.896 196.561 120.042C196.707 120.189 196.707 120.335 196.707 120.335L196.561 121.36C196.268 121.36 196.122 121.36 196.122 121.506Z" fill="#9AD0D2"/>
</svg>
