<svg width="123" height="59" viewBox="0 0 123 59" fill="none" xmlns="http://www.w3.org/2000/svg">
<path d="M1.10652 56.6073C1.04828 56.549 1.04828 56.4906 1.04828 56.4322V49.546C1.04828 49.4876 1.04828 49.4293 1.10652 49.3709C1.16476 49.3126 1.22299 49.3126 1.28123 49.3126H1.80538C1.86362 49.3126 1.92186 49.3126 1.9801 49.3709C2.03834 49.4293 2.03834 49.4876 2.03834 49.546V56.4322C2.03834 56.4906 2.03834 56.549 1.9801 56.6073C1.92186 56.6657 1.86362 56.6657 1.80538 56.6657H1.28123C1.16476 56.6657 1.10652 56.6657 1.10652 56.6073Z" fill="#4CA9C7"/>
<path d="M3.84376 56.6073C3.78552 56.549 3.78552 56.4906 3.78552 56.4323V51.4718C3.78552 51.4135 3.78552 51.3551 3.84376 51.2967C3.902 51.2384 3.96024 51.2384 4.01848 51.2384H4.48439C4.54262 51.2384 4.60086 51.2384 4.6591 51.2967C4.6591 51.2967 4.6591 51.3551 4.6591 51.4718V51.822C5.00853 51.3551 5.53268 51.1217 6.17331 51.1217C6.93041 51.1217 7.51279 51.4718 7.80399 52.1138C7.9787 51.822 8.21166 51.5885 8.50285 51.4135C8.79405 51.2384 9.14348 51.1217 9.55115 51.1217C10.1335 51.1217 10.5994 51.2967 10.9489 51.7053C11.2983 52.1138 11.473 52.639 11.473 53.3976V56.4323C11.473 56.4906 11.473 56.549 11.4148 56.6073C11.3565 56.6657 11.2983 56.6657 11.2401 56.6657H10.7742C10.7159 56.6657 10.6577 56.6657 10.5994 56.6073C10.5412 56.549 10.5412 56.4906 10.5412 56.4323V53.5144C10.5412 52.9308 10.4247 52.5806 10.1918 52.2888C9.95882 51.997 9.72586 51.9387 9.37643 51.9387C9.027 51.9387 8.73581 52.0554 8.50285 52.2888C8.2699 52.5223 8.15342 52.9308 8.15342 53.456V56.3739C8.15342 56.4323 8.15342 56.4906 8.09518 56.549C8.03694 56.6073 7.9787 56.6073 7.92047 56.6073H7.45456C7.39632 56.6073 7.33808 56.6073 7.27984 56.549C7.2216 56.4906 7.2216 56.4323 7.2216 56.3739V53.456C7.2216 52.9308 7.10512 52.5223 6.87217 52.2305C6.63922 51.997 6.34802 51.8803 5.99859 51.8803C5.64916 51.8803 5.35797 51.997 5.12501 52.2305C4.89206 52.4639 4.77558 52.8724 4.77558 53.3976V56.3739C4.77558 56.4323 4.77558 56.4906 4.71734 56.549C4.6591 56.6073 4.60086 56.6073 4.54262 56.6073H4.01848C3.96024 56.6657 3.902 56.6657 3.84376 56.6073Z" fill="#4CA9C7"/>
<path d="M13.2202 58.5915C13.1619 58.5332 13.1619 58.4748 13.1619 58.4164V51.4135C13.1619 51.3551 13.1619 51.2968 13.2202 51.2384C13.2784 51.18 13.3366 51.18 13.3949 51.18H13.8608C13.919 51.18 13.9773 51.18 14.0355 51.2384C14.0937 51.2968 14.0937 51.3551 14.0937 51.4135V51.8803C14.5014 51.3551 15.0838 51.0633 15.8409 51.0633C16.598 51.0633 17.1222 51.2968 17.4716 51.7636C17.821 52.2305 18.054 52.8141 18.054 53.5727C18.054 53.6311 18.054 53.7478 18.054 53.9229C18.054 54.0979 18.054 54.2147 18.054 54.273C18.054 54.9733 17.821 55.5569 17.4716 56.0238C17.1222 56.4906 16.5398 56.7241 15.8409 56.7241C15.0838 56.7241 14.5014 56.4323 14.152 55.907V58.3581C14.152 58.4164 14.152 58.4748 14.0937 58.5332C14.0355 58.5915 13.9773 58.5915 13.919 58.5915H13.3949C13.2784 58.6499 13.2202 58.6499 13.2202 58.5915ZM16.7145 55.4985C16.9474 55.2067 17.0639 54.7982 17.0639 54.273C17.0639 54.2147 17.0639 54.0979 17.0639 53.9812C17.0639 52.639 16.5398 51.9387 15.5497 51.9387C15.0838 51.9387 14.6761 52.1138 14.4432 52.4056C14.2102 52.7557 14.0355 53.1059 14.0355 53.5727C14.0355 53.6311 14.0355 53.8062 14.0355 53.9812C14.0355 54.1563 14.0355 54.3314 14.0355 54.3897C14.0355 54.7982 14.2102 55.2067 14.4432 55.4985C14.6761 55.7903 15.0838 55.9654 15.5497 55.9654C16.0739 55.9654 16.4815 55.7903 16.7145 55.4985Z" fill="#4CA9C7"/>
<path d="M19.8011 56.1405C19.3935 55.732 19.1605 55.1484 19.1605 54.3897V53.9229V53.456C19.1605 52.7557 19.3935 52.1721 19.8594 51.7053C20.2671 51.2968 20.8494 51.0633 21.6065 51.0633C22.3636 51.0633 22.946 51.2968 23.3537 51.7053C23.7614 52.1138 23.9943 52.6973 24.0526 53.456C24.0526 53.6311 24.0526 53.7478 24.0526 53.9229C24.0526 54.0979 24.0526 54.2147 24.0526 54.3897C24.0526 55.09 23.8196 55.6736 23.4119 56.1405C23.0043 56.549 22.4219 56.7824 21.6065 56.7824C20.8494 56.7824 20.2671 56.549 19.8011 56.1405ZM22.6548 55.5569C22.8878 55.2651 23.0625 54.8566 23.0625 54.3314C23.0625 54.273 23.0625 54.1563 23.0625 53.9229C23.0625 53.6894 23.0625 53.5727 23.0625 53.5144C23.0625 52.9891 22.8878 52.5806 22.6548 52.2888C22.3636 51.9971 22.0142 51.8803 21.6065 51.8803C21.1989 51.8803 20.7912 51.9971 20.5582 52.2888C20.3253 52.5806 20.1506 52.9891 20.1506 53.5144V53.9229V54.3314C20.1506 54.8566 20.3253 55.2651 20.5582 55.5569C20.8494 55.8487 21.1989 55.9654 21.6065 55.9654C22.0142 55.9654 22.4219 55.8487 22.6548 55.5569Z" fill="#4CA9C7"/>
<path d="M25.5085 56.6073C25.4503 56.549 25.4503 56.4906 25.4503 56.4323V51.4718C25.4503 51.4135 25.4503 51.3551 25.5085 51.2968C25.5667 51.2384 25.625 51.2384 25.6832 51.2384H26.1491C26.2074 51.2384 26.2656 51.2384 26.3238 51.2968C26.3821 51.3551 26.3821 51.4135 26.3821 51.4718V51.9387C26.6733 51.4718 27.1392 51.2384 27.838 51.2384H28.2457C28.3039 51.2384 28.3622 51.2384 28.4204 51.2968C28.4787 51.3551 28.4787 51.4135 28.4787 51.4718V51.8803C28.4787 51.9387 28.4787 51.9971 28.4204 52.0554C28.3622 52.1138 28.3039 52.1138 28.2457 52.1138H27.6633C27.2557 52.1138 26.9645 52.2305 26.7315 52.4639C26.4986 52.6974 26.3821 52.9891 26.3821 53.3976V56.4906C26.3821 56.549 26.3821 56.6073 26.3238 56.6657C26.2656 56.7241 26.2074 56.7241 26.1491 56.7241H25.6832C25.625 56.6657 25.5667 56.6657 25.5085 56.6073Z" fill="#4CA9C7"/>
<path d="M29.8764 54.8566V52.0554H29.0611C29.0028 52.0554 28.9446 52.0554 28.8864 51.997C28.8281 51.9387 28.8281 51.8803 28.8281 51.822V51.4718C28.8281 51.4135 28.8281 51.3551 28.8864 51.2967C28.9446 51.2384 29.0028 51.2384 29.0611 51.2384H29.8764V49.4876C29.8764 49.4293 29.8764 49.3709 29.9347 49.3126C29.9929 49.2542 30.0511 49.2542 30.1094 49.2542H30.5753C30.6335 49.2542 30.6918 49.2542 30.75 49.3126C30.8082 49.3709 30.8082 49.4293 30.8082 49.4876V51.2384H32.0895C32.1477 51.2384 32.206 51.2384 32.2642 51.2967C32.3224 51.3551 32.3224 51.4135 32.3224 51.4718V51.822C32.3224 51.8803 32.3224 51.9387 32.2642 51.997C32.206 52.0554 32.1477 52.0554 32.0895 52.0554H30.8082V54.7982C30.8082 55.1484 30.8665 55.4402 30.983 55.6152C31.0994 55.7903 31.2741 55.907 31.5653 55.907H32.206C32.2642 55.907 32.3224 55.907 32.3807 55.9654C32.4389 56.0237 32.4389 56.0821 32.4389 56.1405V56.4906C32.4389 56.549 32.4389 56.6073 32.3807 56.6657C32.3224 56.724 32.2642 56.724 32.206 56.724H31.5071C30.4006 56.6657 29.8764 56.0821 29.8764 54.8566Z" fill="#4CA9C7"/>
<path d="M34.0696 56.549C33.7784 56.4322 33.5454 56.1988 33.3707 55.9654C33.196 55.7319 33.1378 55.4402 33.1378 55.1484C33.1378 54.6815 33.3125 54.3314 33.7201 54.0396C34.0696 53.7478 34.5937 53.5727 35.2343 53.456L36.8068 53.2225V52.9308C36.8068 52.2305 36.3991 51.822 35.5838 51.822C35.2343 51.822 35.0014 51.8803 34.8267 51.997C34.652 52.1137 34.4772 52.2888 34.419 52.4639C34.419 52.5223 34.3608 52.5806 34.3025 52.5806C34.2443 52.5806 34.2443 52.639 34.1861 52.639H33.7784C33.7201 52.639 33.6619 52.639 33.6037 52.5806C33.5454 52.5223 33.5454 52.4639 33.5454 52.4055C33.5454 52.2305 33.6037 52.0554 33.7784 51.822C33.9531 51.5885 34.1861 51.4135 34.4772 51.2384C34.7684 51.0633 35.1761 51.0049 35.642 51.0049C36.3991 51.0049 36.9815 51.18 37.3309 51.5302C37.6804 51.8803 37.8551 52.3472 37.8551 52.8724V56.2572C37.8551 56.3155 37.8551 56.3739 37.7968 56.4322C37.7386 56.4906 37.6804 56.4906 37.6221 56.4906H37.1562C37.098 56.4906 37.0397 56.4906 36.9815 56.4322C36.9233 56.3739 36.9233 56.3155 36.9233 56.2572V55.7903C36.7486 56.0237 36.5738 56.1988 36.2244 56.3739C35.9332 56.549 35.5255 56.6073 35.1179 56.6073C34.7102 56.7824 34.3608 56.724 34.0696 56.549ZM36.3991 55.5569C36.6903 55.2651 36.865 54.7982 36.865 54.2146V53.9228L35.642 54.0979C35.1179 54.1563 34.7684 54.273 34.4772 54.4481C34.2443 54.6231 34.0696 54.7982 34.0696 55.09C34.0696 55.3818 34.1861 55.6152 34.419 55.7319C34.652 55.907 34.9432 55.9654 35.2343 55.9654C35.7003 56.0237 36.1079 55.8487 36.3991 55.5569Z" fill="#4CA9C7"/>
<path d="M40.8835 58.8249C40.7088 58.7082 40.5923 58.6499 40.5923 58.5332C40.5923 58.4748 40.5923 58.4748 40.6506 58.4748L40.8253 58.2997C40.8253 58.2997 40.8835 58.2414 40.9418 58.2414C40.9418 58.2414 41 58.2414 41.1165 58.2997C41.233 58.3581 41.233 58.3581 41.2912 58.4164C41.3494 58.4748 41.4659 58.4748 41.5242 58.4748C41.6406 58.4748 41.7571 58.4164 41.8154 58.3581C41.8736 58.2997 41.9318 58.183 41.9318 58.0663C41.9318 57.9496 41.8736 57.8912 41.8154 57.7745C41.7571 57.7161 41.6406 57.6578 41.5242 57.6578C41.4659 57.6578 41.3494 57.6578 41.233 57.7161C41.1165 57.7745 41.0583 57.7745 41 57.7745C40.9418 57.7745 40.8835 57.7745 40.8253 57.7161L40.6506 57.5411C40.6506 57.5411 40.5923 57.4827 40.5923 57.4244C40.5923 57.366 40.5923 57.3076 40.6506 57.1909L40.8835 56.6657C40.3011 56.549 39.8352 56.3156 39.544 55.907C39.1946 55.4985 39.0781 54.9733 39.0199 54.3314V53.9229V53.5144C39.0199 52.7557 39.2529 52.1721 39.6605 51.7053C40.0682 51.2968 40.6506 51.0633 41.4077 51.0633C41.9318 51.0633 42.3395 51.18 42.6889 51.3551C43.0384 51.5302 43.2713 51.7636 43.446 51.9971C43.6207 52.2888 43.7372 52.5223 43.7372 52.8141C43.7372 52.8724 43.7372 52.9308 43.679 52.9891C43.6207 53.0475 43.5625 53.0475 43.5043 53.0475H43.0384C42.9801 53.0475 42.9219 53.0475 42.8636 52.9891C42.8054 52.9308 42.8054 52.8724 42.7472 52.8141C42.6307 52.4639 42.456 52.2305 42.223 52.0554C41.9901 51.8803 41.6989 51.822 41.4077 51.822C40.9418 51.822 40.5923 51.9387 40.3594 52.2305C40.1264 52.5223 39.9517 52.9308 39.9517 53.456V53.8062V54.1563C39.9517 54.7399 40.1264 55.1484 40.3594 55.3818C40.5923 55.6736 40.9418 55.7903 41.4077 55.7903C41.7571 55.7903 42.0483 55.732 42.223 55.5569C42.3977 55.3818 42.6307 55.1484 42.7472 54.7982C42.8054 54.7399 42.8054 54.6815 42.8636 54.6232C42.9219 54.5648 42.9219 54.5648 43.0384 54.5648H43.5043C43.5625 54.5648 43.6207 54.5648 43.679 54.6232C43.7372 54.6815 43.7372 54.7399 43.7372 54.7982C43.7372 55.0317 43.6207 55.3235 43.446 55.5569C43.2713 55.8487 43.0384 56.0238 42.6889 56.2572C42.3395 56.4906 41.9318 56.549 41.4077 56.549L41.1747 57.0158C41.2912 56.9575 41.4077 56.9575 41.5824 56.9575C41.8154 56.9575 41.9901 57.0158 42.1648 57.1909C42.3395 57.366 42.3977 57.5411 42.3977 57.8329C42.3977 58.1246 42.3395 58.2997 42.1648 58.4748C41.9901 58.6499 41.7571 58.7666 41.4659 58.7666C41.2912 59 41.0582 58.9417 40.8835 58.8249Z" fill="#4CA9C7"/>
<path d="M45.7173 56.549C45.4261 56.4322 45.1932 56.1988 45.0185 55.9654C44.8438 55.7319 44.7855 55.4402 44.7855 55.1484C44.7855 54.6815 44.9602 54.3314 45.3679 54.0396C45.7173 53.7478 46.2415 53.5727 46.8821 53.456L48.4546 53.2225V52.9308C48.4546 52.2305 48.0469 51.822 47.2315 51.822C46.8821 51.822 46.6492 51.8803 46.4744 51.997C46.2997 52.1137 46.125 52.2888 46.0668 52.4639C46.0668 52.5223 46.0085 52.5806 45.9503 52.5806C45.8921 52.5806 45.8921 52.639 45.8338 52.639H45.4261C45.3679 52.639 45.3097 52.639 45.2514 52.5806C45.1932 52.5223 45.1932 52.4639 45.1932 52.4055C45.1932 52.2305 45.2514 52.0554 45.4261 51.822C45.6009 51.5885 45.8338 51.4135 46.125 51.2384C46.4162 51.0633 46.8239 51.0049 47.2898 51.0049C48.0469 51.0049 48.6293 51.18 48.9787 51.5302C49.3281 51.8803 49.5029 52.3472 49.5029 52.8724V56.2572C49.5029 56.3155 49.5029 56.3739 49.4446 56.4322C49.3864 56.4906 49.3281 56.4906 49.2699 56.4906H48.804C48.7458 56.4906 48.6875 56.4906 48.6293 56.4322C48.571 56.3739 48.571 56.3155 48.571 56.2572V55.7903C48.3963 56.0237 48.2216 56.1988 47.8722 56.3739C47.5227 56.549 47.1733 56.6073 46.7656 56.6073C46.2997 56.7824 46.0085 56.724 45.7173 56.549ZM47.9886 55.5569C48.2798 55.2651 48.4546 54.7982 48.4546 54.2146V53.9228L47.1733 54.0979C46.6492 54.1563 46.2997 54.273 46.0085 54.4481C45.7756 54.6231 45.6009 54.7982 45.6009 55.09C45.6009 55.3818 45.7173 55.6152 45.9503 55.7319C46.1832 55.907 46.4744 55.9654 46.7656 55.9654C47.2898 56.0237 47.6975 55.8487 47.9886 55.5569ZM47.4063 50.4214C47.348 50.363 47.2315 50.3046 47.1151 50.2463C47.0568 50.1879 46.9986 50.1879 46.9404 50.1296C46.8821 50.0712 46.8239 50.0712 46.7656 50.0712C46.7074 50.0712 46.6492 50.0712 46.6492 50.1296C46.5909 50.1296 46.5909 50.1879 46.5327 50.2463C46.4744 50.363 46.4162 50.4214 46.358 50.4214H46.0085C45.9503 50.4214 45.8921 50.4214 45.8921 50.363C45.8338 50.3046 45.8338 50.3046 45.8338 50.2463C45.8338 50.0129 45.8921 49.7794 46.0668 49.6044C46.2415 49.4293 46.4162 49.3126 46.7074 49.3126C46.8239 49.3126 46.9403 49.3126 46.9986 49.3709C47.0568 49.4293 47.1733 49.4293 47.2898 49.546C47.2898 49.546 47.348 49.6044 47.4063 49.6044C47.4645 49.6627 47.581 49.6627 47.6392 49.6627C47.6975 49.6627 47.7557 49.6627 47.7557 49.6044C47.8139 49.6044 47.8139 49.546 47.8722 49.4876C47.9304 49.4293 47.9304 49.3709 47.9886 49.3709C47.9886 49.3709 48.0469 49.3126 48.1051 49.3126H48.3963C48.4546 49.3126 48.5128 49.3126 48.5128 49.3709C48.571 49.4293 48.571 49.4293 48.571 49.4876C48.571 49.7211 48.5128 49.9545 48.3381 50.1296C48.1634 50.3046 47.9886 50.4214 47.6975 50.4214C47.581 50.4797 47.4645 50.4797 47.4063 50.4214Z" fill="#4CA9C7"/>
<path d="M51.3665 56.1405C50.9588 55.732 50.7258 55.1484 50.7258 54.3897V53.9229V53.456C50.7258 52.7557 50.9588 52.1721 51.4247 51.7053C51.8324 51.2968 52.4148 51.0633 53.1719 51.0633C53.929 51.0633 54.5113 51.2968 54.919 51.7053C55.3267 52.1138 55.5596 52.6973 55.6179 53.456C55.6179 53.6311 55.6179 53.7478 55.6179 53.9229C55.6179 54.0979 55.6179 54.2147 55.6179 54.3897C55.6179 55.09 55.3849 55.6736 54.9773 56.1405C54.5696 56.6073 53.9872 56.7824 53.1719 56.7824C52.4148 56.7824 51.7741 56.549 51.3665 56.1405ZM54.2201 55.5569C54.5113 55.2651 54.6278 54.8566 54.6278 54.3314C54.6278 54.273 54.6278 54.1563 54.6278 53.9229C54.6278 53.6894 54.6278 53.5727 54.6278 53.5144C54.6278 52.9891 54.4531 52.5806 54.2201 52.2888C53.9872 51.9971 53.5795 51.8803 53.1719 51.8803C52.7059 51.8803 52.3565 51.9971 52.1236 52.2888C51.8906 52.5806 51.7159 52.9891 51.7159 53.5144V53.9229V54.3314C51.7159 54.8566 51.8906 55.2651 52.1236 55.5569C52.4148 55.8487 52.7642 55.9654 53.1719 55.9654C53.5795 55.9654 53.9872 55.8487 54.2201 55.5569Z" fill="#4CA9C7"/>
<path d="M60.044 56.0821C59.6363 55.6153 59.4034 55.0317 59.3452 54.273V53.9229V53.5727C59.4034 52.8141 59.6363 52.2305 60.044 51.7636C60.4517 51.2968 61.0341 51.0633 61.7329 51.0633C62.49 51.0633 63.0724 51.2968 63.5383 51.822C63.946 52.2888 64.179 52.9891 64.179 53.8062V53.9812C64.179 54.0396 64.179 54.0979 64.1207 54.1563C64.0625 54.2147 64.0042 54.2147 63.946 54.2147H60.3352V54.3314C60.3352 54.7982 60.5099 55.1484 60.7429 55.4985C60.9758 55.8487 61.3253 55.9654 61.7912 55.9654C62.1406 55.9654 62.3736 55.907 62.6065 55.7903C62.8395 55.6736 62.956 55.4985 63.0724 55.3818C63.1307 55.3235 63.1889 55.2651 63.2471 55.2067C63.3054 55.2067 63.3636 55.2067 63.4219 55.2067H63.8878C63.946 55.2067 64.0042 55.2067 64.0625 55.2651C64.1207 55.3235 64.1207 55.3235 64.1207 55.3818C64.1207 55.5569 64.0042 55.732 63.8295 55.9654C63.6548 56.1988 63.3636 56.3739 63.0142 56.549C62.6648 56.7241 62.2571 56.7824 61.8494 56.7824C61.0341 56.7824 60.4517 56.549 60.044 56.0821ZM63.2471 53.5727C63.2471 53.0475 63.1307 52.639 62.8395 52.3472C62.5483 52.0554 62.1988 51.8803 61.7912 51.8803C61.3253 51.8803 60.9758 52.0554 60.7429 52.3472C60.5099 52.639 60.3352 53.0475 60.3352 53.5727V53.6311H63.2471V53.5727Z" fill="#4CA9C7"/>
<path d="M68.3139 56.6073C68.2557 56.549 68.2557 56.4906 68.2557 56.4322V49.546C68.2557 49.4876 68.2557 49.4293 68.3139 49.3709C68.3722 49.3126 68.4304 49.3126 68.4886 49.3126H72.7983C72.8565 49.3126 72.9148 49.3126 72.973 49.3709C73.0312 49.4293 73.0312 49.4876 73.0312 49.546V49.8961C73.0312 49.9545 73.0312 50.0129 72.973 50.0712C72.9148 50.1296 72.8565 50.1296 72.7983 50.1296H69.2457V52.4639H72.5653C72.6236 52.4639 72.6818 52.4639 72.7401 52.5223C72.7983 52.5806 72.7983 52.639 72.7983 52.6973V53.1058C72.7983 53.1642 72.7983 53.2226 72.7401 53.2809C72.6818 53.3393 72.6236 53.3393 72.5653 53.3393H69.2457V55.7903H72.9148C72.973 55.7903 73.0312 55.7903 73.0895 55.8487C73.1477 55.907 73.1477 55.9654 73.1477 56.0237V56.3739C73.1477 56.4322 73.1477 56.4906 73.0895 56.549C73.0312 56.6073 72.973 56.6073 72.9148 56.6073H68.5469C68.4304 56.6657 68.3722 56.6657 68.3139 56.6073Z" fill="#4CA9C7"/>
<path d="M74.0795 56.6073C74.0213 56.549 74.0213 56.4906 74.0213 56.4322C74.0213 56.3739 74.0213 56.3155 74.0795 56.2572L75.8849 53.8645L74.196 51.5885C74.1378 51.5302 74.1378 51.4718 74.1378 51.4135C74.1378 51.3551 74.1378 51.2967 74.196 51.2384C74.2543 51.18 74.3125 51.18 74.3707 51.18H74.8949C75.0114 51.18 75.0696 51.2384 75.1861 51.3551L76.5838 53.2226L77.9815 51.3551C78.0398 51.2967 78.0398 51.2384 78.098 51.2384C78.1562 51.2384 78.2145 51.18 78.2727 51.18H78.7386C78.7969 51.18 78.8551 51.18 78.9133 51.2384C78.9716 51.2967 78.9716 51.3551 78.9716 51.4135C78.9716 51.4718 78.9716 51.5302 78.9133 51.5885L77.1662 53.8645L78.9716 56.1988C79.0298 56.2572 79.0298 56.3155 79.0298 56.3739C79.0298 56.4322 79.0298 56.4906 78.9716 56.549C78.9134 56.6073 78.8551 56.6073 78.7969 56.6073H78.2727C78.1562 56.6073 78.098 56.549 77.9815 56.4322L76.4673 54.5064L74.9531 56.4322C74.8949 56.4906 74.8949 56.4906 74.8366 56.549C74.7784 56.549 74.7202 56.6073 74.6619 56.6073H74.196C74.196 56.6657 74.1378 56.6657 74.0795 56.6073Z" fill="#4CA9C7"/>
<path d="M80.2528 58.5915C80.1946 58.5332 80.1946 58.4748 80.1946 58.4164V51.4135C80.1946 51.3551 80.1946 51.2968 80.2528 51.2384C80.3111 51.18 80.3693 51.18 80.4275 51.18H80.8934C80.9517 51.18 81.0099 51.18 81.0682 51.2384C81.1264 51.2968 81.1264 51.3551 81.1264 51.4135V51.8803C81.5341 51.3551 82.1165 51.0633 82.8736 51.0633C83.6307 51.0633 84.1548 51.2968 84.5042 51.7636C84.8537 52.2305 85.0866 52.8141 85.0866 53.5727C85.0866 53.6311 85.0866 53.7478 85.0866 53.9229C85.0866 54.0979 85.0866 54.2147 85.0866 54.273C85.0866 54.9733 84.8537 55.5569 84.5042 56.0238C84.1548 56.4906 83.5724 56.7241 82.8736 56.7241C82.1165 56.7241 81.5341 56.4323 81.1846 55.907V58.3581C81.1846 58.4164 81.1846 58.4748 81.1264 58.5332C81.0682 58.5915 81.0099 58.5915 80.9517 58.5915H80.4858C80.3693 58.6499 80.3111 58.6499 80.2528 58.5915ZM83.7471 55.4985C83.9801 55.2067 84.0966 54.7982 84.0966 54.273C84.0966 54.2147 84.0966 54.0979 84.0966 53.9812C84.0966 52.639 83.5724 51.9387 82.5824 51.9387C82.1165 51.9387 81.7088 52.1138 81.4758 52.4056C81.2429 52.7557 81.0682 53.1059 81.0682 53.5727C81.0682 53.6311 81.0682 53.8062 81.0682 53.9812C81.0682 54.1563 81.0682 54.3314 81.0682 54.3897C81.0682 54.7982 81.2429 55.2067 81.4758 55.4985C81.7088 55.7903 82.1165 55.9654 82.5824 55.9654C83.1648 55.9654 83.5142 55.7903 83.7471 55.4985Z" fill="#4CA9C7"/>
<path d="M86.892 56.1405C86.4844 55.732 86.2514 55.1484 86.2514 54.3897V53.9229V53.456C86.2514 52.7557 86.4844 52.1721 86.9503 51.7053C87.3579 51.2968 87.9403 51.0633 88.6974 51.0633C89.4545 51.0633 90.0369 51.2968 90.4446 51.7053C90.8523 52.1138 91.0852 52.6973 91.1434 53.456C91.1434 53.6311 91.1434 53.7478 91.1434 53.9229C91.1434 54.0979 91.1434 54.2147 91.1434 54.3897C91.1434 55.09 90.9105 55.6736 90.5028 56.1405C90.0951 56.6073 89.5128 56.7824 88.6974 56.7824C87.8821 56.7824 87.2997 56.549 86.892 56.1405ZM89.7457 55.5569C90.0369 55.2651 90.1534 54.8566 90.1534 54.3314C90.1534 54.273 90.1534 54.1563 90.1534 53.9229C90.1534 53.6894 90.1534 53.5727 90.1534 53.5144C90.1534 52.9891 89.9787 52.5806 89.7457 52.2888C89.5128 51.9971 89.1051 51.8803 88.6974 51.8803C88.2315 51.8803 87.8821 51.9971 87.6491 52.2888C87.4162 52.5806 87.2415 52.9891 87.2415 53.5144V53.9229V54.3314C87.2415 54.8566 87.4162 55.2651 87.6491 55.5569C87.9403 55.8487 88.2898 55.9654 88.6974 55.9654C89.1051 55.9654 89.4545 55.8487 89.7457 55.5569Z" fill="#4CA9C7"/>
<path d="M92.5411 56.6073C92.4829 56.549 92.4829 56.4906 92.4829 56.4323V51.4718C92.4829 51.4135 92.4829 51.3551 92.5411 51.2968C92.5994 51.2384 92.6576 51.2384 92.7159 51.2384H93.1818C93.24 51.2384 93.2983 51.2384 93.3565 51.2968C93.4147 51.3551 93.4147 51.4135 93.4147 51.4718V51.9387C93.7059 51.4718 94.1718 51.2384 94.8707 51.2384H95.2784C95.3366 51.2384 95.3948 51.2384 95.4531 51.2968C95.5113 51.3551 95.5113 51.4135 95.5113 51.4718V51.8803C95.5113 51.9387 95.5113 51.9971 95.4531 52.0554C95.3948 52.1138 95.3366 52.1138 95.2784 52.1138H94.696C94.2883 52.1138 93.9971 52.2305 93.7642 52.4639C93.5312 52.6974 93.4147 52.9891 93.4147 53.3976V56.4906C93.4147 56.549 93.4147 56.6073 93.3565 56.6657C93.2983 56.7241 93.24 56.7241 93.1818 56.7241H92.7159C92.6576 56.6657 92.5994 56.6657 92.5411 56.6073Z" fill="#4CA9C7"/>
<path d="M96.9673 54.8566V52.0554H96.0937C96.0355 52.0554 95.9773 52.0554 95.919 51.997C95.8608 51.9387 95.8608 51.8803 95.8608 51.822V51.4718C95.8608 51.4135 95.8608 51.3551 95.919 51.2967C95.9773 51.2384 96.0355 51.2384 96.0937 51.2384H96.9091V49.4876C96.9091 49.4293 96.9091 49.3709 96.9673 49.3126C97.0255 49.2542 97.0838 49.2542 97.142 49.2542H97.6079C97.6662 49.2542 97.7244 49.2542 97.7826 49.3126C97.8409 49.3709 97.8409 49.4293 97.8409 49.4876V51.2384H99.1221C99.1804 51.2384 99.2386 51.2384 99.2969 51.2967C99.3551 51.3551 99.3551 51.4135 99.3551 51.4718V51.822C99.3551 51.8803 99.3551 51.9387 99.2969 51.997C99.2386 52.0554 99.1804 52.0554 99.1221 52.0554H97.8409V54.7982C97.8409 55.1484 97.8991 55.4402 98.0156 55.6152C98.1321 55.7903 98.3068 55.907 98.598 55.907H99.2386C99.2969 55.907 99.3551 55.907 99.4133 55.9654C99.4716 56.0237 99.4716 56.0821 99.4716 56.1405V56.4906C99.4716 56.549 99.4716 56.6073 99.4133 56.6657C99.3551 56.724 99.2969 56.724 99.2386 56.724H98.5398C97.4915 56.6657 96.9673 56.0821 96.9673 54.8566Z" fill="#4CA9C7"/>
<path d="M101.161 56.549C100.869 56.4322 100.636 56.1988 100.462 55.9654C100.287 55.7319 100.229 55.4402 100.229 55.1484C100.229 54.6815 100.403 54.3314 100.811 54.0396C101.161 53.7478 101.685 53.5727 102.325 53.456L103.898 53.2225V52.9308C103.898 52.2305 103.49 51.822 102.675 51.822C102.325 51.822 102.092 51.8803 101.918 51.997C101.743 52.1137 101.568 52.2888 101.51 52.4639C101.51 52.5223 101.452 52.5806 101.393 52.5806C101.335 52.5806 101.335 52.639 101.277 52.639H100.869C100.811 52.639 100.753 52.639 100.695 52.5806C100.636 52.5223 100.636 52.4639 100.636 52.4055C100.636 52.2305 100.695 52.0554 100.869 51.822C101.044 51.5885 101.277 51.4135 101.568 51.2384C101.859 51.0633 102.267 51.0049 102.733 51.0049C103.49 51.0049 104.072 51.18 104.422 51.5302C104.771 51.8803 104.946 52.3472 104.946 52.8724V56.2572C104.946 56.3155 104.946 56.3739 104.888 56.4322C104.83 56.4906 104.771 56.4906 104.713 56.4906H104.247C104.189 56.4906 104.131 56.4906 104.072 56.4322C104.014 56.3739 104.014 56.3155 104.014 56.2572V55.7903C103.839 56.0237 103.665 56.1988 103.315 56.3739C102.966 56.549 102.616 56.6073 102.209 56.6073C101.743 56.7824 101.452 56.724 101.161 56.549ZM103.432 55.5569C103.723 55.2651 103.898 54.7982 103.898 54.2146V53.9228L102.675 54.0979C102.151 54.1563 101.801 54.273 101.51 54.4481C101.277 54.6231 101.102 54.7982 101.102 55.09C101.102 55.3818 101.219 55.6152 101.452 55.7319C101.685 55.907 101.976 55.9654 102.267 55.9654C102.733 56.0237 103.141 55.8487 103.432 55.5569Z" fill="#4CA9C7"/>
<path d="M107.916 58.8249C107.741 58.7082 107.625 58.6499 107.625 58.5332C107.625 58.4748 107.625 58.4748 107.683 58.4748L107.858 58.2997C107.858 58.2997 107.916 58.2414 107.974 58.2414C107.974 58.2414 108.033 58.2414 108.149 58.2997C108.266 58.3581 108.266 58.3581 108.324 58.4164C108.382 58.4748 108.499 58.4748 108.557 58.4748C108.673 58.4748 108.79 58.4164 108.848 58.3581C108.906 58.2997 108.964 58.183 108.964 58.0663C108.964 57.9496 108.906 57.8912 108.848 57.7745C108.79 57.7161 108.673 57.6578 108.557 57.6578C108.499 57.6578 108.382 57.6578 108.266 57.7161C108.149 57.7745 108.091 57.7745 108.091 57.7745C108.033 57.7745 107.974 57.7745 107.916 57.7161L107.741 57.5411C107.741 57.5411 107.683 57.4827 107.683 57.4244C107.683 57.366 107.683 57.3076 107.741 57.1909L107.974 56.6657C107.392 56.549 106.926 56.3156 106.635 55.907C106.286 55.4985 106.169 54.9733 106.111 54.3314V53.9229V53.5144C106.111 52.7557 106.344 52.1721 106.751 51.7053C107.159 51.2968 107.741 51.0633 108.499 51.0633C109.023 51.0633 109.43 51.18 109.78 51.3551C110.129 51.5302 110.362 51.7636 110.537 51.9971C110.712 52.2888 110.828 52.5223 110.828 52.8141C110.828 52.8724 110.828 52.9308 110.77 52.9891C110.712 53.0475 110.653 53.0475 110.595 53.0475H110.129C110.071 53.0475 110.013 53.0475 109.955 52.9891C109.896 52.9308 109.896 52.8724 109.838 52.8141C109.722 52.4639 109.547 52.2305 109.314 52.0554C109.081 51.8803 108.79 51.822 108.499 51.822C108.033 51.822 107.683 51.9387 107.45 52.2305C107.217 52.5223 107.043 52.9308 107.043 53.456V53.8062V54.1563C107.043 54.7399 107.217 55.1484 107.45 55.3818C107.683 55.6736 108.033 55.7903 108.499 55.7903C108.848 55.7903 109.139 55.732 109.314 55.5569C109.489 55.3818 109.722 55.1484 109.838 54.7982C109.896 54.7399 109.896 54.6815 109.955 54.6232C110.013 54.5648 110.013 54.5648 110.129 54.5648H110.595C110.653 54.5648 110.712 54.5648 110.77 54.6232C110.828 54.6815 110.828 54.7399 110.828 54.7982C110.828 55.0317 110.712 55.3235 110.537 55.5569C110.362 55.8487 110.129 56.0238 109.78 56.2572C109.43 56.4906 109.023 56.549 108.499 56.549L108.266 57.0158C108.382 56.9575 108.499 56.9575 108.673 56.9575C108.906 56.9575 109.081 57.0158 109.256 57.1909C109.43 57.366 109.489 57.5411 109.489 57.8329C109.489 58.1246 109.43 58.2997 109.256 58.4748C109.081 58.6499 108.848 58.7666 108.557 58.7666C108.324 59 108.091 58.9417 107.916 58.8249Z" fill="#4CA9C7"/>
<path d="M112.75 56.549C112.459 56.4322 112.226 56.1988 112.051 55.9654C111.876 55.7319 111.818 55.4402 111.818 55.1484C111.818 54.6815 111.993 54.3314 112.401 54.0396C112.75 53.7478 113.274 53.5727 113.915 53.456L115.487 53.2225V52.9308C115.487 52.2305 115.08 51.822 114.264 51.822C113.915 51.822 113.682 51.8803 113.507 51.997C113.332 52.1137 113.158 52.2888 113.099 52.4639C113.099 52.5223 113.041 52.5806 112.983 52.5806C112.925 52.5806 112.925 52.639 112.866 52.639H112.401C112.342 52.639 112.284 52.639 112.226 52.5806C112.168 52.5223 112.168 52.4639 112.168 52.4055C112.168 52.2305 112.226 52.0554 112.401 51.822C112.575 51.5885 112.808 51.4135 113.099 51.2384C113.391 51.0633 113.798 51.0049 114.264 51.0049C115.021 51.0049 115.604 51.18 115.953 51.5302C116.303 51.8803 116.477 52.3472 116.477 52.8724V56.2572C116.477 56.3155 116.477 56.3739 116.419 56.4322C116.361 56.4906 116.303 56.4906 116.244 56.4906H115.778C115.72 56.4906 115.662 56.4906 115.604 56.4322C115.545 56.3739 115.545 56.3155 115.545 56.2572V55.7903C115.371 56.0237 115.196 56.1988 114.847 56.3739C114.497 56.549 114.148 56.6073 113.74 56.6073C113.332 56.7824 113.041 56.724 112.75 56.549ZM115.021 55.5569C115.312 55.2651 115.487 54.7982 115.487 54.2146V53.9228L114.264 54.0979C113.74 54.1563 113.391 54.273 113.099 54.4481C112.866 54.6231 112.692 54.7982 112.692 55.09C112.692 55.3818 112.808 55.6152 113.041 55.7319C113.274 55.907 113.565 55.9654 113.857 55.9654C114.381 56.0237 114.73 55.8487 115.021 55.5569ZM114.439 50.4214C114.381 50.363 114.264 50.3046 114.148 50.2463C114.089 50.1879 114.031 50.1879 113.973 50.1296C113.915 50.0712 113.857 50.0712 113.798 50.0712C113.74 50.0712 113.682 50.0712 113.682 50.1296C113.624 50.1296 113.624 50.1879 113.565 50.2463C113.507 50.363 113.449 50.4214 113.391 50.4214H112.983C112.925 50.4214 112.866 50.4214 112.866 50.363C112.808 50.3046 112.808 50.3046 112.808 50.2463C112.808 50.0129 112.866 49.7794 113.041 49.6044C113.216 49.4293 113.391 49.3126 113.682 49.3126C113.798 49.3126 113.915 49.3126 113.973 49.3709C114.031 49.4293 114.148 49.4293 114.264 49.546C114.264 49.546 114.322 49.6044 114.381 49.6044C114.439 49.6627 114.555 49.6627 114.614 49.6627C114.672 49.6627 114.73 49.6627 114.73 49.6044C114.788 49.6044 114.788 49.546 114.847 49.4876C114.905 49.4293 114.905 49.3709 114.963 49.3709C114.963 49.3709 115.021 49.3126 115.08 49.3126H115.371C115.429 49.3126 115.487 49.3126 115.487 49.3709C115.545 49.4293 115.545 49.4293 115.545 49.4876C115.545 49.7211 115.487 49.9545 115.312 50.1296C115.138 50.3046 114.963 50.4214 114.672 50.4214C114.614 50.4797 114.555 50.4797 114.439 50.4214Z" fill="#4CA9C7"/>
<path d="M118.457 56.1405C118.05 55.732 117.817 55.1484 117.817 54.3897V53.9229V53.456C117.817 52.7557 118.05 52.1721 118.516 51.7053C118.923 51.2968 119.506 51.0633 120.263 51.0633C121.02 51.0633 121.602 51.2968 122.01 51.7053C122.418 52.1138 122.651 52.6973 122.709 53.456C122.709 53.6311 122.709 53.7478 122.709 53.9229C122.709 54.0979 122.709 54.2147 122.709 54.3897C122.709 55.09 122.476 55.6736 122.068 56.1405C121.66 56.6073 121.078 56.7824 120.263 56.7824C119.447 56.7824 118.865 56.549 118.457 56.1405ZM121.253 55.5569C121.544 55.2651 121.66 54.8566 121.66 54.3314C121.66 54.273 121.66 54.1563 121.66 53.9229C121.66 53.6894 121.66 53.5727 121.66 53.5144C121.66 52.9891 121.486 52.5806 121.253 52.2888C121.02 51.9971 120.612 51.8803 120.205 51.8803C119.739 51.8803 119.389 51.9971 119.156 52.2888C118.923 52.5806 118.749 52.9891 118.749 53.5144V53.9229V54.3314C118.749 54.8566 118.923 55.2651 119.156 55.5569C119.447 55.8487 119.797 55.9654 120.205 55.9654C120.67 55.9654 121.02 55.8487 121.253 55.5569Z" fill="#4CA9C7"/>
<path d="M40.7088 0.116699C37.2145 0.116699 35.4673 2.10087 35.4673 6.01086V12.7804C35.4673 15.6983 36.108 18.6746 40.7088 18.6746C44.3779 18.6746 46.0085 17.0405 46.0085 13.4223V12.8388H42.8637V13.4223C42.8637 14.7062 42.3395 15.1147 40.7088 15.1147C39.4858 15.1147 39.1946 14.8229 39.1946 12.7804V11.905L43.679 10.271C45.4262 9.62906 46.0085 8.81205 46.0085 6.88623V5.36892C45.9503 1.75073 44.3196 0.116699 40.7088 0.116699ZM40.7088 3.61818C41.8736 3.61818 42.456 3.85162 42.456 5.36892V6.06922C42.456 7.11967 42.3977 7.17802 41.7571 7.41146L39.1946 8.34519V6.06922C39.1946 3.79326 39.8935 3.61818 40.7088 3.61818Z" fill="#00444C"/>
<path d="M54.2784 7.76162C52.8807 6.94461 52.0071 6.36103 52.0071 5.36894V5.13551C52.0071 4.61029 52.0071 3.96835 52.2983 3.67656C52.473 3.50148 52.7642 3.44313 53.1136 3.44313C53.5795 3.44313 54.2202 3.44313 54.2202 5.25223V6.5361H57.7727V5.19387C57.7727 1.69238 56.2003 0 52.9972 0C49.9688 0 48.3381 1.8091 48.3381 5.01879V5.36894C48.3381 8.46192 50.4929 9.7458 52.2401 10.7962C53.696 11.6716 54.5696 12.2552 54.5696 13.3056V13.4807C54.5696 14.0059 54.5696 14.5895 54.2784 14.8813C54.0455 15.1147 53.6378 15.2315 53.1136 15.2315C52.4148 15.2315 51.6577 15.2315 51.5994 13.2473V11.4382H48.0469V13.2473C48.0469 16.7488 49.8523 18.6162 53.2301 18.6162C56.2003 18.6162 58.2386 16.7488 58.2386 14.0059V13.3056C58.2386 10.1543 56.0256 8.81207 54.2784 7.76162Z" fill="#00444C"/>
<path d="M66.3921 7.76162C64.9943 6.94461 64.1207 6.36103 64.1207 5.36894V5.13551C64.1207 4.61029 64.1207 3.96835 64.4119 3.67656C64.5867 3.50148 64.8779 3.44313 65.2273 3.44313C65.6932 3.44313 66.3338 3.44313 66.3338 5.25223V6.5361H69.8864V5.19387C69.8864 1.69238 68.3139 0 65.1108 0C62.0824 0 60.4517 1.8091 60.4517 5.01879V5.36894C60.4517 8.46192 62.6065 9.7458 64.3537 10.7962C65.8097 11.6716 66.6832 12.2552 66.6832 13.3056V13.4807C66.6832 14.0059 66.6832 14.5895 66.3921 14.8813C66.1591 15.1147 65.7514 15.2315 65.2273 15.2315C64.5284 15.2315 63.7713 15.2315 63.7131 13.2473V11.4382H60.1605V13.2473C60.1605 16.7488 61.9659 18.6162 65.3438 18.6162C68.3139 18.6162 70.3523 16.7488 70.3523 14.0059V13.3056C70.3523 10.1543 68.1975 8.81207 66.3921 7.76162Z" fill="#00444C"/>
<path d="M77.8651 0.116699C74.3708 0.116699 72.6236 2.10087 72.6236 6.01086V12.7804C72.6236 15.6983 73.2642 18.6746 77.8651 18.6746C81.5341 18.6746 83.1648 17.0405 83.1648 13.4223V12.8388H80.0199V13.4223C80.0199 14.7062 79.4958 15.1147 77.8651 15.1147C76.6421 15.1147 76.3509 14.8229 76.3509 12.7804V11.905L80.8352 10.271C82.5824 9.62906 83.1648 8.81205 83.1648 6.88623V5.36892C83.1648 1.75073 81.4759 0.116699 77.8651 0.116699ZM77.8651 3.61818C79.0298 3.61818 79.6122 3.85162 79.6122 5.36892V6.06922C79.6122 7.11967 79.554 7.17802 78.9134 7.41146L76.3509 8.34519V6.06922C76.3509 3.79326 77.0497 3.61818 77.8651 3.61818Z" fill="#00444C"/>
<path d="M91.9588 0.116699C90.9688 0.116699 90.1534 0.350131 89.4546 0.758638V0.233415H85.7273V18.4995H89.4546V5.66072C89.4546 4.26012 90.1534 3.61818 91.6676 3.61818C92.5995 3.61818 93.1236 4.37684 93.1236 5.77743V18.4995H96.8509V5.77743C96.9091 1.98416 95.2202 0.116699 91.9588 0.116699Z" fill="#00444C"/>
<path d="M110.129 4.78534C109.955 1.57565 108.324 0.116699 104.83 0.116699C100.17 0.116699 99.5881 3.09296 99.5881 6.01086V12.7804C99.5881 15.6983 100.229 18.6746 104.83 18.6746C108.266 18.6746 109.955 17.2156 110.129 14.0059H110.188V10.7379H106.577V12.8388V13.4223C106.577 14.8813 106.227 15.1147 104.83 15.1147C103.607 15.1147 103.315 14.8229 103.315 12.7804V6.01086C103.315 3.90997 103.607 3.67654 104.83 3.67654C106.169 3.67654 106.577 3.90997 106.577 5.42728L106.635 6.01086V7.00295H110.188V5.36892L110.129 4.78534Z" fill="#00444C"/>
<path d="M120.729 10.2126C122.476 9.5707 123.058 8.75369 123.058 6.82788V5.36892C123.058 1.75073 121.369 0.116699 117.759 0.116699C114.264 0.116699 112.517 2.10087 112.517 6.01086V12.7804C112.517 15.6983 113.158 18.6746 117.759 18.6746C121.428 18.6746 123.058 17.0405 123.058 13.4223V12.8388H119.913V13.4223C119.913 14.7062 119.389 15.1147 117.759 15.1147C116.536 15.1147 116.244 14.8229 116.244 12.7804V11.905L120.729 10.2126ZM117.759 3.61818C118.923 3.61818 119.506 3.85162 119.506 5.36892V6.06922C119.506 7.11967 119.447 7.17802 118.807 7.41146L116.244 8.34519V6.06922C116.244 3.79326 116.943 3.61818 117.759 3.61818Z" fill="#00444C"/>
<path d="M55.3267 39.6251C55.3267 40.4422 55.0938 41.551 53.2301 41.551C52.8807 41.551 51.8907 41.551 51.8907 39.5084V27.3116H48.2216V39.5084C48.2216 43.1266 49.8523 44.9941 52.9972 44.9941C53.8708 44.9941 54.6861 44.819 55.3267 44.4105V44.8774H58.9958V27.3116H55.3267V39.6251Z" fill="#4CA9C7"/>
<path d="M66.625 34.548C65.2855 33.731 64.4701 33.2058 64.4701 32.272V32.0386C64.4701 31.5134 64.4701 30.9298 64.7613 30.638C64.9361 30.4629 65.169 30.4046 65.5184 30.4046C65.9261 30.4046 66.5667 30.4046 66.5667 32.1553V33.4392H70.0028V32.0969C70.0028 28.7122 68.4886 27.0782 65.402 27.0782C62.49 27.0782 60.9176 28.7705 60.9176 31.9219V32.272C60.9176 35.2483 63.0142 36.4738 64.7031 37.5243C66.1008 38.3413 66.9162 38.9248 66.9162 39.9169V40.092C66.9162 40.6172 66.9162 41.1424 66.625 41.4342C66.4503 41.6093 66.0426 41.726 65.5184 41.726C64.8196 41.726 64.1207 41.726 64.1207 39.8002V38.0495H60.6846V39.8002C60.6846 43.1266 62.4318 44.9941 65.6349 44.9941C68.5468 44.9941 70.4687 43.185 70.4687 40.5589V39.8586C70.4687 36.824 68.3721 35.5984 66.625 34.548Z" fill="#4CA9C7"/>
<path d="M75.7685 27.3116H72.0994V44.8774H75.7685V27.3116Z" fill="#4CA9C7"/>
<path d="M75.7685 22.818H72.0994V26.4946H75.7685V22.818Z" fill="#4CA9C7"/>
<path d="M83.9219 27.1949C82.99 27.1949 82.2329 27.3699 81.5923 27.7784V27.3116H77.9233V44.8773H81.5923V32.5638C81.5923 31.2216 82.2912 30.638 83.6889 30.638C84.5625 30.638 85.0284 31.3383 85.0284 32.6805V44.8773H88.6974V32.6805C88.6974 29.004 87.0667 27.1949 83.9219 27.1949Z" fill="#4CA9C7"/>
<path d="M95.5696 27.1949C92.1917 27.1949 90.5028 29.1207 90.5028 32.8556V39.3333C90.5028 42.1345 91.0852 44.9941 95.5696 44.9941C99.1221 44.9941 100.636 43.4184 100.636 39.9169V39.3333H97.5497V39.9169C97.5497 41.1424 97.0838 41.4926 95.5113 41.4926C94.4048 41.4926 94.1136 41.2592 94.1136 39.275V38.5163L98.365 36.9407C100.054 36.3571 100.578 35.5401 100.578 33.6726V32.272C100.695 28.8289 99.0639 27.1949 95.5696 27.1949ZM95.5696 30.638C96.6761 30.638 97.2003 30.8714 97.2003 32.272V32.9139C97.2003 33.906 97.142 33.9644 96.5596 34.1395L94.1718 35.0148V32.8556C94.1718 30.8131 94.8707 30.638 95.5696 30.638Z" fill="#4CA9C7"/>
<path d="M107.974 34.548C106.635 33.731 105.82 33.2058 105.82 32.272V32.0386C105.82 31.5134 105.82 30.9298 106.111 30.638C106.285 30.4629 106.518 30.4046 106.868 30.4046C107.276 30.4046 107.916 30.4046 107.916 32.1553V33.4392H111.352V32.0969C111.352 28.7122 109.838 27.0782 106.751 27.0782C103.839 27.0782 102.267 28.7705 102.267 31.9219V32.272C102.267 35.2483 104.364 36.4738 106.053 37.5243C107.45 38.3413 108.266 38.9248 108.266 39.9169V40.092C108.266 40.6172 108.266 41.1424 107.974 41.4342C107.8 41.6093 107.392 41.726 106.868 41.726C106.169 41.726 105.47 41.726 105.47 39.8002V38.0495H102.034V39.8002C102.034 43.1266 103.781 44.9941 106.984 44.9941C109.896 44.9941 111.818 43.185 111.818 40.5589V39.8586C111.818 36.824 109.663 35.5984 107.974 34.548Z" fill="#4CA9C7"/>
<path d="M118.982 34.548C117.642 33.731 116.827 33.2058 116.827 32.272V32.0386C116.827 31.5134 116.827 30.9298 117.118 30.638C117.293 30.4629 117.526 30.4046 117.875 30.4046C118.283 30.4046 118.923 30.4046 118.923 32.1553V33.4392H122.359V32.0969C122.359 28.7122 120.845 27.0782 117.759 27.0782C114.847 27.0782 113.274 28.7705 113.274 31.9219V32.272C113.274 35.2483 115.371 36.4738 117.06 37.5243C118.457 38.3413 119.273 38.9248 119.273 39.9169V40.092C119.273 40.6172 119.273 41.1424 118.982 41.4342C118.807 41.6093 118.399 41.726 117.875 41.726C117.176 41.726 116.477 41.726 116.477 39.8002V38.0495H112.983V39.8002C112.983 43.1266 114.73 44.9941 117.933 44.9941C120.845 44.9941 122.767 43.185 122.767 40.5589V39.8586C122.825 36.824 120.67 35.5984 118.982 34.548Z" fill="#4CA9C7"/>
<path d="M41.5824 27.1949C40.6506 27.1949 39.8935 27.3699 39.2528 27.7784V20.6004H35.5838V24.3353C36.7486 24.3353 37.0398 24.7438 36.9815 25.8526C36.8651 27.7201 36.3991 29.5875 35.5838 31.3966V44.9357H39.2528V44.5272C39.8935 44.9357 40.7088 45.1108 41.5824 45.1108C44.7273 45.1108 46.3579 43.2433 46.3579 39.6251V32.6805C46.3579 29.004 44.7855 27.1949 41.5824 27.1949ZM42.6889 39.5668C42.6889 40.909 42.223 41.6093 41.3494 41.6093C39.8935 41.6093 39.2528 40.9674 39.2528 39.6835V32.5638C39.2528 31.2216 39.9517 30.638 41.3494 30.638C42.223 30.638 42.6889 31.3383 42.6889 32.6805V39.5668Z" fill="#4CA9C7"/>
<path d="M16.7145 44.7023C15.8409 44.8773 15.375 44.5856 15.4332 43.4768C15.7244 35.6568 23.2372 28.1286 30.9829 27.8952C32.1477 27.8368 32.3807 28.2453 32.3224 29.3541C31.9148 37.1741 24.4602 44.5272 16.7145 44.7023Z" fill="#4CA9C7"/>
<path d="M13.0455 43.6518C13.1037 41.2008 13.8608 38.8081 15.142 36.5905C14.8509 36.5905 14.5597 36.5905 14.2102 36.5905C9.4929 36.5905 8.7358 34.6063 8.7358 28.7122V28.3037V24.3353V20.0752V16.0485C8.7358 10.3877 10.3082 8.05341 14.2102 8.05341C17.9957 8.05341 20.3253 9.10386 20.3253 14.181V16.2235C20.3253 19.6667 19.9759 20.2502 17.5881 21.1256L12.929 22.818L13.2202 30.638L22.4801 27.2532C27.1392 25.6192 28.4787 23.635 28.4787 18.3828V14.1227C28.4787 4.37685 24.0526 0 14.2102 0C4.65909 0 0 5.25223 0 16.0485V28.3037V28.7122V28.9456C0.0582386 39.8586 3.96023 44.4688 13.3366 44.7606C13.1037 44.5272 13.0455 44.1771 13.0455 43.6518Z" fill="#9AD0D2"/>
</svg>
