<svg width="119" height="56" viewBox="0 0 119 56" fill="none" xmlns="http://www.w3.org/2000/svg">
<path d="M0.281686 54.2605C0.225342 54.2044 0.225342 54.1483 0.225342 54.0922V48.2004C0.225342 48.1443 0.225342 48.0882 0.281686 48.0321C0.338031 47.976 0.394376 47.976 0.450721 47.976H0.901478C0.957823 47.976 1.01417 47.976 1.07051 48.0321C1.12686 48.0882 1.12686 48.1443 1.12686 48.2004V54.0922C1.12686 54.1483 1.12686 54.2044 1.07051 54.2605C1.01417 54.3166 0.957823 54.3166 0.901478 54.3166H0.450721C0.338031 54.3166 0.338031 54.2605 0.281686 54.2605Z" fill="#4CA9C7"/>
<path d="M2.64814 54.2605C2.5918 54.2044 2.5918 54.1483 2.5918 54.0922V49.8277C2.5918 49.7716 2.5918 49.7154 2.64814 49.6593C2.70449 49.6032 2.76083 49.6032 2.81718 49.6032H3.21159C3.26793 49.6032 3.32428 49.6032 3.38062 49.6593C3.38062 49.7154 3.38062 49.7716 3.38062 49.8277V50.1082C3.71869 49.7154 4.16945 49.491 4.7329 49.491C5.40903 49.491 5.85979 49.7716 6.14151 50.3327C6.31055 50.0521 6.47958 49.8838 6.7613 49.7154C7.04303 49.5471 7.32475 49.491 7.66282 49.491C8.16992 49.491 8.56433 49.6593 8.9024 49.996C9.24047 50.3327 9.35316 50.8377 9.35316 51.4549V54.0922C9.35316 54.1483 9.35316 54.2044 9.29682 54.2605C9.24047 54.3166 9.18413 54.3167 9.12778 54.3167H8.73337C8.67702 54.3167 8.62068 54.3166 8.56433 54.2605C8.50799 54.2044 8.50799 54.1483 8.50799 54.0922V51.5672C8.50799 51.0621 8.3953 50.7255 8.22627 50.5571C8.05723 50.3888 7.77551 50.2205 7.43744 50.2205C7.15572 50.2205 6.87399 50.3327 6.70496 50.5571C6.47958 50.7816 6.36689 51.1183 6.36689 51.5672V54.0922C6.36689 54.1483 6.36689 54.2044 6.31055 54.2605C6.2542 54.3166 6.19786 54.3167 6.14151 54.3167H5.7471C5.69075 54.3167 5.63441 54.3166 5.57807 54.2605C5.52172 54.2044 5.52172 54.1483 5.52172 54.0922V51.5672C5.52172 51.1183 5.40903 50.7255 5.18365 50.5571C5.07096 50.3327 4.78924 50.2205 4.50752 50.2205C4.22579 50.2205 3.94407 50.3327 3.77504 50.5571C3.54966 50.7816 3.43697 51.1183 3.43697 51.5672V54.0922C3.43697 54.1483 3.43697 54.2044 3.38062 54.2605C3.32428 54.3166 3.26793 54.3167 3.21159 54.3167H2.81718C2.76083 54.3167 2.70449 54.2605 2.64814 54.2605Z" fill="#4CA9C7"/>
<path d="M10.7618 55.9439C10.7054 55.9439 10.7054 55.8878 10.7054 55.7755V49.8276C10.7054 49.7715 10.7054 49.7154 10.7618 49.6593C10.8181 49.6032 10.8745 49.6032 10.9308 49.6032H11.2689C11.3252 49.6032 11.3816 49.6032 11.4379 49.6593C11.4943 49.7154 11.4943 49.7715 11.4943 49.8276V50.2204C11.8323 49.7715 12.3394 49.5471 13.0156 49.5471C13.6354 49.5471 14.1425 49.7715 14.4242 50.1643C14.7059 50.5571 14.9313 51.0621 14.9313 51.6794C14.9313 51.7355 14.9313 51.8477 14.9313 51.9599C14.9313 52.0721 14.9313 52.1844 14.9313 52.2405C14.9313 52.8577 14.7623 53.3627 14.4242 53.7555C14.0861 54.1483 13.6354 54.3727 13.0156 54.3727C12.3958 54.3727 11.8887 54.1483 11.5506 53.6994V55.8317C11.5506 55.8878 11.5506 55.9439 11.4943 56C11.4379 56.0561 11.3816 56.0561 11.3252 56.0561H10.9308C10.8745 56 10.8181 56 10.7618 55.9439ZM13.8044 53.2505C14.0298 52.9699 14.0861 52.6333 14.1425 52.1844C14.1425 52.1282 14.1425 52.016 14.1425 51.9038C14.1425 50.7254 13.6917 50.1643 12.8465 50.1643C12.3958 50.1643 12.1141 50.3327 11.8887 50.5571C11.6633 50.8377 11.5506 51.1743 11.5506 51.5671C11.5506 51.6232 11.5506 51.7355 11.5506 51.9038C11.5506 52.0721 11.5506 52.1844 11.5506 52.2405C11.5506 52.6333 11.6633 52.9138 11.8887 53.1944C12.1141 53.4749 12.4521 53.5872 12.8465 53.5872C13.241 53.6994 13.579 53.5311 13.8044 53.2505Z" fill="#4CA9C7"/>
<path d="M16.509 53.8116C16.1709 53.4188 15.9456 52.9138 15.9456 52.2966V51.9038V51.511C15.9456 50.8938 16.1709 50.3888 16.509 49.996C16.8471 49.6032 17.4105 49.4349 18.0303 49.4349C18.6501 49.4349 19.2136 49.6032 19.5516 49.996C19.8897 50.3888 20.1151 50.8938 20.1151 51.511C20.1151 51.6233 20.1151 51.7916 20.1151 51.9038C20.1151 52.016 20.1151 52.1844 20.1151 52.2966C20.1151 52.9138 19.8897 53.4188 19.5516 53.8116C19.2136 54.2044 18.7064 54.3728 18.0303 54.3728C17.3542 54.3728 16.8471 54.2044 16.509 53.8116ZM18.9318 53.3627C19.1572 53.1383 19.2699 52.7455 19.3262 52.2966C19.3262 52.2405 19.3262 52.1283 19.3262 51.9599C19.3262 51.7916 19.3262 51.6794 19.3262 51.6233C19.3262 51.1744 19.2135 50.8377 18.9318 50.5571C18.7064 50.3327 18.4247 50.1643 18.0303 50.1643C17.6359 50.1643 17.3542 50.2766 17.1288 50.5571C16.9034 50.7816 16.7907 51.1744 16.7344 51.6233V51.9599V52.2966C16.7344 52.7455 16.8471 53.0822 17.1288 53.3627C17.3542 53.5872 17.6359 53.7555 18.0303 53.7555C18.4247 53.7555 18.7064 53.5872 18.9318 53.3627Z" fill="#4CA9C7"/>
<path d="M21.411 54.2605C21.3546 54.2044 21.3546 54.1483 21.3546 54.0922V49.8277C21.3546 49.7715 21.3546 49.7154 21.411 49.6593C21.4673 49.6032 21.5236 49.6032 21.58 49.6032H21.9744C22.0307 49.6032 22.0871 49.6032 22.1434 49.6593C22.1998 49.7154 22.1998 49.7715 22.1998 49.8277V50.2204C22.4252 49.8277 22.8759 49.6032 23.4394 49.6032H23.7774C23.8338 49.6032 23.8901 49.6032 23.9465 49.6593C24.0028 49.7154 24.0028 49.7715 24.0028 49.8277V50.1643C24.0028 50.2204 24.0028 50.2766 23.9465 50.3327C23.8901 50.3888 23.8338 50.3888 23.7774 50.3888H23.2703C22.9323 50.3888 22.6505 50.501 22.4815 50.6693C22.3125 50.8377 22.1998 51.1182 22.1998 51.4549V54.1483C22.1998 54.2044 22.1998 54.2605 22.1434 54.3166C22.0871 54.3728 22.0307 54.3727 21.9744 54.3727H21.58C21.4673 54.3166 21.4673 54.2605 21.411 54.2605Z" fill="#4CA9C7"/>
<path d="M25.186 52.6894V50.2766H24.4535C24.3972 50.2766 24.3408 50.2766 24.2845 50.2204C24.2281 50.1643 24.2281 50.1082 24.2281 50.0521V49.7715C24.2281 49.7154 24.2281 49.6593 24.2845 49.6032C24.3408 49.5471 24.3972 49.5471 24.4535 49.5471H25.186V48.0321C25.186 47.976 25.186 47.9198 25.2424 47.8637C25.2987 47.8076 25.2987 47.8076 25.4114 47.8076H25.8058C25.8621 47.8076 25.9185 47.8076 25.9748 47.8637C26.0312 47.9198 26.0312 47.976 26.0312 48.0321V49.5471H27.1581C27.2144 49.5471 27.2708 49.5471 27.3271 49.6032C27.3835 49.6593 27.3835 49.7154 27.3835 49.7715V50.0521C27.3835 50.1082 27.3835 50.1643 27.3271 50.2204C27.2708 50.2766 27.2144 50.2766 27.1581 50.2766H26.0312V52.6333C26.0312 52.9138 26.0875 53.1944 26.2002 53.3066C26.3129 53.475 26.4819 53.5311 26.7073 53.5311H27.2708C27.3271 53.5311 27.3835 53.5311 27.4398 53.5872C27.4961 53.6433 27.4961 53.6994 27.4961 53.7555V54.0361C27.4961 54.0922 27.4961 54.1483 27.4398 54.2044C27.3835 54.2605 27.3271 54.2605 27.2708 54.2605H26.651C25.6931 54.3166 25.186 53.7555 25.186 52.6894Z" fill="#4CA9C7"/>
<path d="M28.8485 54.2044C28.6231 54.0922 28.3977 53.9239 28.2287 53.6994C28.0596 53.475 28.0033 53.2505 28.0033 53.0261C28.0033 52.6333 28.1723 52.2966 28.5104 52.0722C28.8485 51.7916 29.2992 51.6233 29.8627 51.5671L31.2149 51.3988V51.0621C31.2149 50.4449 30.8769 50.1082 30.1444 50.1082C29.8627 50.1082 29.6373 50.1643 29.4683 50.2766C29.2992 50.3888 29.1865 50.501 29.0738 50.6693C29.0738 50.7255 29.0175 50.7816 29.0175 50.7816C29.0175 50.7816 28.9612 50.8377 28.9048 50.8377H28.5667C28.5104 50.8377 28.4541 50.8377 28.4541 50.7816C28.3977 50.7255 28.3977 50.6693 28.3977 50.6693C28.3977 50.5571 28.4541 50.3888 28.5667 50.1643C28.6794 49.996 28.9048 49.8277 29.1865 49.6593C29.4683 49.5471 29.8063 49.4349 30.2007 49.4349C30.8769 49.4349 31.384 49.6032 31.6657 49.8838C31.9474 50.2204 32.1165 50.6132 32.1165 51.0621V53.98C32.1165 54.0361 32.1165 54.0922 32.0601 54.1483C32.0038 54.2044 31.9474 54.2044 31.8911 54.2044H31.4967C31.4403 54.2044 31.384 54.2044 31.3276 54.1483C31.2713 54.0922 31.2713 54.0361 31.2713 53.98V53.5872C31.1586 53.8116 30.9332 53.98 30.7078 54.0922C30.4261 54.2044 30.1444 54.3166 29.75 54.3166C29.3556 54.3728 29.0738 54.3166 28.8485 54.2044ZM30.8205 53.3627C31.1023 53.0822 31.2149 52.7455 31.2149 52.2405V51.9599L30.1444 52.1283C29.6936 52.1844 29.3556 52.2966 29.1302 52.4088C28.9048 52.5772 28.7921 52.7455 28.7921 52.9699C28.7921 53.1944 28.9048 53.4188 29.0738 53.5311C29.2992 53.6433 29.5246 53.7555 29.8063 53.7555C30.2571 53.6994 30.5388 53.5872 30.8205 53.3627Z" fill="#4CA9C7"/>
<path d="M33.7505 52.6894V50.2766H33.018C32.9616 50.2766 32.9053 50.2766 32.8489 50.2204C32.7926 50.1643 32.7926 50.1082 32.7926 50.0521V49.7715C32.7926 49.7154 32.7926 49.6593 32.8489 49.6032C32.9053 49.5471 32.9616 49.5471 33.018 49.5471H33.7505V48.0321C33.7505 47.976 33.7505 47.9198 33.8068 47.8637C33.8632 47.8076 33.8632 47.8076 33.9758 47.8076H34.3703C34.4266 47.8076 34.4829 47.8076 34.5393 47.8637C34.5956 47.9198 34.5956 47.976 34.5956 48.0321V49.5471H35.7225C35.7789 49.5471 35.8352 49.5471 35.8916 49.6032C35.9479 49.6593 35.9479 49.7154 35.9479 49.7715V50.0521C35.9479 50.1082 35.9479 50.1643 35.8916 50.2204C35.8352 50.2766 35.7789 50.2766 35.7225 50.2766H34.5956V52.6333C34.5956 52.9138 34.652 53.1944 34.7647 53.3066C34.8774 53.475 35.0464 53.5311 35.2718 53.5311H35.8352C35.8916 53.5311 35.9479 53.5311 36.0043 53.5872C36.0606 53.6433 36.0606 53.6994 36.0606 53.7555V54.0361C36.0606 54.0922 36.0606 54.1483 36.0043 54.2044C35.9479 54.2605 35.8916 54.2605 35.8352 54.2605H35.2154C34.2012 54.3166 33.7505 53.7555 33.7505 52.6894Z" fill="#4CA9C7"/>
<path d="M36.8494 48.6493C36.7931 48.5932 36.7931 48.5371 36.7931 48.481V48.0321C36.7931 47.976 36.7931 47.9198 36.8494 47.8637C36.9058 47.8076 36.9621 47.8076 37.0185 47.8076H37.5256C37.5819 47.8076 37.6383 47.8076 37.6946 47.8637C37.7509 47.9198 37.7509 47.976 37.7509 48.0321V48.481C37.7509 48.5371 37.7509 48.5932 37.6946 48.6493C37.6383 48.7054 37.5819 48.7054 37.5256 48.7054H37.0185C36.9621 48.7054 36.9058 48.7054 36.8494 48.6493ZM36.9621 54.2605C36.9058 54.2044 36.9058 54.1483 36.9058 54.0922V49.8277C36.9058 49.7715 36.9058 49.7154 36.9621 49.6593C37.0185 49.6032 37.0748 49.6032 37.1312 49.6032H37.5256C37.5819 49.6032 37.6383 49.6032 37.6946 49.6593C37.7509 49.7154 37.7509 49.7715 37.7509 49.8277V54.0922C37.7509 54.1483 37.7509 54.2044 37.6946 54.2605C37.6383 54.3166 37.5819 54.3166 37.5256 54.3166H37.1312C37.0185 54.3166 36.9621 54.2605 36.9621 54.2605Z" fill="#4CA9C7"/>
<path d="M39.4977 53.8116C39.1596 53.4188 38.9342 52.9138 38.9342 52.2966V51.9038V51.511C38.9342 50.8938 39.1596 50.3888 39.4977 49.996C39.8357 49.6032 40.3992 49.4349 41.019 49.4349C41.6388 49.4349 42.2022 49.6032 42.5403 49.996C42.8783 50.3888 43.1037 50.8938 43.1037 51.511C43.1037 51.6233 43.1037 51.7916 43.1037 51.9038C43.1037 52.016 43.1037 52.1844 43.1037 52.2966C43.1037 52.9138 42.8783 53.4188 42.5403 53.8116C42.2022 54.2044 41.6951 54.3728 41.019 54.3728C40.3428 54.3728 39.8357 54.2044 39.4977 53.8116ZM41.9205 53.3627C42.1459 53.1383 42.2585 52.7455 42.3149 52.2966C42.3149 52.2405 42.3149 52.1283 42.3149 51.9599C42.3149 51.7916 42.3149 51.6794 42.3149 51.6233C42.3149 51.1744 42.2022 50.8377 41.9205 50.5571C41.6951 50.3327 41.4134 50.1643 41.019 50.1643C40.6245 50.1643 40.3428 50.2766 40.1174 50.5571C39.8921 50.7816 39.7794 51.1744 39.723 51.6233V51.9599V52.2966C39.723 52.7455 39.8921 53.0822 40.1174 53.3627C40.3428 53.6433 40.6245 53.7555 41.019 53.7555C41.4134 53.7555 41.6951 53.5872 41.9205 53.3627Z" fill="#4CA9C7"/>
<path d="M44.3996 54.2605C44.3433 54.2044 44.3433 54.1483 44.3433 54.0922V49.8276C44.3433 49.7715 44.3433 49.7154 44.3996 49.6593C44.456 49.6032 44.5123 49.6032 44.5686 49.6032H44.9631C45.0194 49.6032 45.0757 49.6032 45.1321 49.6593C45.1884 49.7154 45.1884 49.7715 45.1884 49.8276V50.2204C45.3575 49.996 45.5828 49.8276 45.8082 49.7154C46.0336 49.6032 46.3717 49.5471 46.7097 49.5471C47.2732 49.5471 47.7239 49.7154 48.062 50.1082C48.4001 50.501 48.5691 50.9499 48.5691 51.5671V54.1483C48.5691 54.2044 48.5691 54.2605 48.5128 54.3166C48.4564 54.3727 48.4001 54.3727 48.3437 54.3727H47.9493C47.893 54.3727 47.8366 54.3727 47.7803 54.3166C47.7239 54.2605 47.7239 54.2044 47.7239 54.1483V51.6232C47.7239 51.1743 47.6113 50.8377 47.3859 50.6132C47.1605 50.3888 46.8788 50.2765 46.4844 50.2765C46.0899 50.2765 45.8082 50.3888 45.5828 50.6693C45.3575 50.8938 45.2448 51.2305 45.2448 51.6794V54.2044C45.2448 54.2605 45.2448 54.3166 45.1884 54.3727C45.1321 54.4289 45.0757 54.4289 45.0194 54.4289H44.5123C44.456 54.3166 44.3996 54.2605 44.3996 54.2605Z" fill="#4CA9C7"/>
<path d="M52.5695 54.2044C52.3442 54.0922 52.1188 53.9239 51.9497 53.6994C51.7807 53.475 51.7244 53.2505 51.7244 53.0261C51.7244 52.6333 51.8934 52.2966 52.2315 52.0722C52.5695 51.7916 53.0203 51.6233 53.5837 51.5671L54.936 51.3988V51.0621C54.936 50.4449 54.5979 50.1082 53.8655 50.1082C53.5837 50.1082 53.3584 50.1643 53.1893 50.2766C53.0203 50.3888 52.9076 50.501 52.7949 50.6693C52.7949 50.7255 52.7386 50.7816 52.7386 50.7816C52.7386 50.7816 52.6822 50.8377 52.6259 50.8377H52.2878C52.2315 50.8377 52.1751 50.8377 52.1751 50.7816C52.1188 50.7255 52.1188 50.6693 52.1188 50.6693C52.1188 50.5571 52.1751 50.3888 52.2878 50.1643C52.4005 49.996 52.6259 49.8277 52.9076 49.6593C53.1893 49.5471 53.5274 49.4349 53.9218 49.4349C54.5979 49.4349 55.105 49.6032 55.3868 49.8838C55.6685 50.2204 55.8375 50.6132 55.8375 51.0621V53.98C55.8375 54.0361 55.8375 54.0922 55.7812 54.1483C55.7248 54.2044 55.6685 54.2044 55.6121 54.2044H55.2177C55.1614 54.2044 55.105 54.2044 55.0487 54.1483C54.9924 54.0922 54.9924 54.0361 54.9924 53.98V53.5872C54.8797 53.8116 54.6543 53.98 54.4289 54.0922C54.1472 54.2044 53.8655 54.3166 53.471 54.3166C53.133 54.3728 52.8513 54.3166 52.5695 54.2044ZM54.5979 53.3627C54.8797 53.0822 54.9924 52.7455 54.9924 52.2405V51.9599L53.9218 52.1283C53.471 52.1844 53.133 52.2966 52.9076 52.4088C52.6822 52.5772 52.5695 52.7455 52.5695 52.9699C52.5695 53.1944 52.6822 53.4188 52.8513 53.5311C53.0766 53.6433 53.302 53.7555 53.5837 53.7555C53.9782 53.6994 54.3162 53.5872 54.5979 53.3627Z" fill="#4CA9C7"/>
<path d="M57.1899 54.2605C57.1335 54.2044 57.1335 54.1483 57.1335 54.0922V49.8276C57.1335 49.7715 57.1335 49.7154 57.1899 49.6593C57.2462 49.6032 57.3026 49.6032 57.3589 49.6032H57.7533C57.8097 49.6032 57.866 49.6032 57.9224 49.6593C57.9787 49.7154 57.9787 49.7715 57.9787 49.8276V50.2204C58.1477 49.996 58.3731 49.8276 58.5985 49.7154C58.8239 49.6032 59.162 49.5471 59.5 49.5471C60.0635 49.5471 60.5142 49.7154 60.8523 50.1082C61.1904 50.501 61.3594 50.9499 61.3594 51.5671V54.1483C61.3594 54.2044 61.3594 54.2605 61.3031 54.3166C61.2467 54.3727 61.1904 54.3727 61.134 54.3727H60.7396C60.6833 54.3727 60.6269 54.3727 60.5706 54.3166C60.5142 54.2605 60.5142 54.2044 60.5142 54.1483V51.6232C60.5142 51.1743 60.4015 50.8377 60.1762 50.6132C59.9508 50.3888 59.6691 50.2765 59.2746 50.2765C58.8802 50.2765 58.5985 50.3888 58.3731 50.6693C58.1477 50.8938 58.0351 51.2305 58.0351 51.6794V54.2044C58.0351 54.2605 58.0351 54.3166 57.9787 54.3727C57.9224 54.4289 57.866 54.4289 57.8097 54.4289H57.4153C57.3026 54.3166 57.2462 54.2605 57.1899 54.2605Z" fill="#4CA9C7"/>
<path d="M62.937 53.7555C62.599 53.3627 62.4299 52.8016 62.4299 52.1844V51.9038V51.6233C62.4299 51.006 62.599 50.501 62.937 50.0521C63.2751 49.6593 63.7259 49.4349 64.3456 49.4349C64.9654 49.4349 65.4725 49.6593 65.8106 50.1082V48.0321C65.8106 47.976 65.8106 47.9198 65.867 47.8637C65.9233 47.8076 65.9796 47.8076 66.036 47.8076H66.4304C66.4867 47.8076 66.5431 47.8076 66.5994 47.8637C66.6558 47.9198 66.6558 47.976 66.6558 48.0321V54.0361C66.6558 54.0922 66.6558 54.1483 66.5994 54.2044C66.5431 54.2605 66.4867 54.2605 66.4304 54.2605H66.036C65.9796 54.2605 65.9233 54.2605 65.867 54.2044C65.8106 54.1483 65.8106 54.0922 65.8106 54.0361V53.6433C65.4725 54.0922 64.9654 54.3166 64.2893 54.3166C63.7259 54.3728 63.2751 54.2044 62.937 53.7555ZM65.4725 53.2505C65.6979 52.9699 65.8106 52.6333 65.8106 52.2405C65.8106 52.1844 65.8106 52.0721 65.8106 51.9038C65.8106 51.7355 65.8106 51.6233 65.8106 51.5671C65.8106 51.1744 65.6979 50.8938 65.4725 50.6132C65.2472 50.3327 64.9091 50.2204 64.5147 50.2204C64.0639 50.2204 63.7822 50.3327 63.5568 50.6132C63.3314 50.8938 63.2751 51.2305 63.2188 51.6794V51.9599C63.2188 53.1383 63.6695 53.6994 64.5147 53.6994C64.9654 53.6994 65.3035 53.5311 65.4725 53.2505Z" fill="#4CA9C7"/>
<path d="M70.4871 54.2605C70.4308 54.2044 70.4308 54.1483 70.4308 54.0922V48.2004C70.4308 48.1443 70.4308 48.0882 70.4871 48.0321C70.5435 47.976 70.5998 47.976 70.6562 47.976H74.3749C74.4313 47.976 74.4876 47.976 74.544 48.0321C74.6003 48.0882 74.6003 48.1443 74.6003 48.2004V48.5371C74.6003 48.5932 74.6003 48.6493 74.544 48.7054C74.4876 48.7615 74.4313 48.7615 74.3749 48.7615H71.276V50.7816H74.1495C74.2059 50.7816 74.2622 50.7816 74.3186 50.8377C74.3749 50.8938 74.3749 50.9499 74.3749 51.006V51.2866C74.3749 51.3427 74.3749 51.3988 74.3186 51.4549C74.2622 51.511 74.2059 51.511 74.1495 51.511H71.276V53.5872H74.4313C74.4876 53.5872 74.5439 53.5872 74.6003 53.6433C74.6566 53.6994 74.6566 53.7555 74.6566 53.8116V54.1483C74.6566 54.2044 74.6566 54.2605 74.6003 54.3166C74.5439 54.3727 74.4876 54.3727 74.4313 54.3727H70.6562C70.5998 54.3166 70.5435 54.2605 70.4871 54.2605Z" fill="#4CA9C7"/>
<path d="M75.5019 54.2605C75.4456 54.2044 75.4456 54.2044 75.4456 54.1483C75.4456 54.0922 75.4456 54.0361 75.5019 53.98L77.0796 51.9599L75.6146 49.996C75.5582 49.9399 75.5583 49.8838 75.5583 49.8277C75.5583 49.7716 75.5582 49.7154 75.6146 49.7154C75.6709 49.6593 75.6709 49.6593 75.7273 49.6593H76.178C76.2907 49.6593 76.3471 49.7154 76.4034 49.8277L77.643 51.3988L78.8826 49.8277C78.9389 49.7716 78.9389 49.7154 78.9953 49.7154C79.0516 49.7154 79.0516 49.6593 79.108 49.6593H79.5024C79.5587 49.6593 79.6151 49.6593 79.6151 49.7154C79.6151 49.7716 79.6714 49.7716 79.6714 49.8277C79.6714 49.8838 79.6714 49.9399 79.6151 49.996L78.0938 51.9599L79.6714 53.98C79.7278 54.0361 79.7278 54.0922 79.7278 54.1483C79.7278 54.2044 79.7278 54.2605 79.6714 54.2605C79.6151 54.2605 79.6151 54.3166 79.5587 54.3166H79.108C78.9953 54.3166 78.9389 54.2605 78.8826 54.2044L77.5867 52.5211L76.2907 54.2044C76.2344 54.2605 76.2344 54.2605 76.178 54.3166C76.1217 54.3166 76.1217 54.3728 76.0654 54.3728H75.6146C75.6146 54.3166 75.5582 54.2605 75.5019 54.2605Z" fill="#4CA9C7"/>
<path d="M80.8546 55.9439C80.7982 55.8878 80.7982 55.8317 80.7982 55.7755V49.8276C80.7982 49.7715 80.7982 49.7154 80.8546 49.6593C80.9109 49.6032 80.9673 49.6032 81.0236 49.6032H81.418C81.4744 49.6032 81.5307 49.6032 81.587 49.6593C81.6434 49.7154 81.6434 49.7715 81.6434 49.8276V50.2204C81.9815 49.7715 82.4886 49.5471 83.1647 49.5471C83.7845 49.5471 84.2916 49.7715 84.5733 50.1643C84.855 50.5571 85.0804 51.0621 85.0804 51.6794C85.0804 51.7355 85.0804 51.8477 85.0804 51.9599C85.0804 52.0721 85.0804 52.1844 85.0804 52.2405C85.0804 52.8577 84.9114 53.3627 84.5733 53.7555C84.2353 54.1483 83.7845 54.3727 83.1647 54.3727C82.5449 54.3727 82.0378 54.1483 81.6997 53.6994V55.8317C81.6997 55.8878 81.6997 55.9439 81.6434 56C81.587 56.0561 81.5307 56.0561 81.4744 56.0561H81.0799C80.9109 56 80.8546 56 80.8546 55.9439ZM83.8408 53.2505C84.0662 52.9699 84.1226 52.6333 84.1789 52.1844C84.1789 52.1282 84.1789 52.016 84.1789 51.9038C84.1789 50.7254 83.7281 50.1643 82.883 50.1643C82.4322 50.1643 82.1505 50.3327 81.9251 50.5571C81.6997 50.7816 81.587 51.1743 81.587 51.5671C81.587 51.6232 81.587 51.7355 81.587 51.9038C81.587 52.0721 81.587 52.1844 81.587 52.2405C81.587 52.6333 81.6997 52.9138 81.9251 53.1944C82.1505 53.4749 82.4886 53.5872 82.883 53.5872C83.3337 53.6994 83.6718 53.5311 83.8408 53.2505Z" fill="#4CA9C7"/>
<path d="M86.5454 53.8116C86.2073 53.4188 85.9819 52.9138 85.9819 52.2966V51.9038V51.511C85.9819 50.8938 86.2073 50.3888 86.5454 49.996C86.8834 49.6032 87.4469 49.4349 88.0667 49.4349C88.6865 49.4349 89.2499 49.6032 89.588 49.996C89.9261 50.3888 90.1514 50.8938 90.1514 51.511C90.1514 51.6233 90.1514 51.7916 90.1514 51.9038C90.1514 52.016 90.1514 52.1844 90.1514 52.2966C90.1514 52.9138 89.9261 53.4188 89.588 53.8116C89.2499 54.2044 88.7428 54.3728 88.0667 54.3728C87.3905 54.3728 86.9398 54.2044 86.5454 53.8116ZM89.0245 53.3627C89.2499 53.1383 89.3626 52.7455 89.419 52.2966C89.419 52.2405 89.419 52.1283 89.419 51.9599C89.419 51.7916 89.419 51.6794 89.419 51.6233C89.419 51.1744 89.3063 50.8377 89.0245 50.5571C88.7992 50.3327 88.5174 50.1643 88.123 50.1643C87.7286 50.1643 87.4469 50.2766 87.2215 50.5571C86.9961 50.7816 86.8834 51.1744 86.8271 51.6233V51.9599V52.2966C86.8271 52.7455 86.9961 53.0822 87.2215 53.3627C87.4469 53.6433 87.7286 53.7555 88.123 53.7555C88.5174 53.7555 88.7992 53.5872 89.0245 53.3627Z" fill="#4CA9C7"/>
<path d="M91.5037 54.2605C91.4474 54.2044 91.4474 54.1483 91.4474 54.0922V49.8277C91.4474 49.7715 91.4474 49.7154 91.5037 49.6593C91.5601 49.6032 91.6164 49.6032 91.6728 49.6032H92.0672C92.1235 49.6032 92.1799 49.6032 92.2362 49.6593C92.2926 49.7154 92.2926 49.7715 92.2926 49.8277V50.2204C92.5179 49.8277 92.9687 49.6032 93.5321 49.6032H93.8702C93.9266 49.6032 93.9829 49.6032 94.0392 49.6593C94.0956 49.7154 94.0956 49.7715 94.0956 49.8277V50.1643C94.0956 50.2204 94.0956 50.2766 94.0392 50.3327C93.9829 50.3888 93.9266 50.3888 93.8702 50.3888H93.3631C93.025 50.3888 92.7433 50.501 92.5743 50.6693C92.4052 50.8377 92.2926 51.1182 92.2926 51.4549V54.1483C92.2926 54.2044 92.2926 54.2605 92.2362 54.3166C92.1799 54.3728 92.1235 54.3727 92.0672 54.3727H91.6728C91.5601 54.3166 91.5037 54.2605 91.5037 54.2605Z" fill="#4CA9C7"/>
<path d="M95.2789 52.6894V50.2766H94.5464C94.4901 50.2766 94.4337 50.2766 94.3774 50.2204C94.321 50.1643 94.321 50.1082 94.321 50.0521V49.7715C94.321 49.7154 94.321 49.6593 94.3774 49.6032C94.4337 49.5471 94.4901 49.5471 94.5464 49.5471H95.2789V48.0321C95.2789 47.976 95.2789 47.9198 95.3353 47.8637C95.3916 47.8076 95.4479 47.8076 95.5043 47.8076H95.8987C95.955 47.8076 96.0114 47.8076 96.0677 47.8637C96.1241 47.9198 96.1241 47.976 96.1241 48.0321V49.5471H97.251C97.3073 49.5471 97.3637 49.5471 97.42 49.6032C97.4763 49.6593 97.4764 49.7154 97.4764 49.7715V50.0521C97.4764 50.1082 97.4763 50.1643 97.42 50.2204C97.3637 50.2766 97.3073 50.2766 97.251 50.2766H96.1241V52.6333C96.1241 52.9138 96.1804 53.1944 96.2931 53.3066C96.4058 53.475 96.5748 53.5311 96.8002 53.5311H97.3637C97.42 53.5311 97.4764 53.5311 97.5327 53.5872C97.589 53.6433 97.589 53.6994 97.589 53.7555V54.0361C97.589 54.0922 97.589 54.1483 97.5327 54.2044C97.4764 54.2605 97.42 54.2605 97.3637 54.2605H96.7439C95.7297 54.3166 95.2789 53.7555 95.2789 52.6894Z" fill="#4CA9C7"/>
<path d="M98.885 54.2044C98.6596 54.0922 98.4342 53.9239 98.2652 53.6994C98.0961 53.475 98.0398 53.2505 98.0398 53.0261C98.0398 52.6333 98.2088 52.2966 98.5469 52.0722C98.885 51.7916 99.3357 51.6233 99.8992 51.5671L101.251 51.3988V51.0621C101.251 50.4449 100.913 50.1082 100.181 50.1082C99.8992 50.1082 99.6738 50.1643 99.5048 50.2766C99.3357 50.3888 99.223 50.501 99.1103 50.6693C99.1103 50.7255 99.054 50.7816 99.054 50.7816C99.054 50.7816 98.9977 50.8377 98.9413 50.8377H98.6032C98.5469 50.8377 98.4906 50.8377 98.4906 50.7816C98.4342 50.7255 98.4342 50.6693 98.4342 50.6693C98.4342 50.5571 98.4906 50.3888 98.6032 50.1643C98.7159 49.996 98.9413 49.8277 99.223 49.6593C99.5048 49.5471 99.8428 49.4349 100.237 49.4349C100.913 49.4349 101.42 49.6032 101.702 49.8838C101.984 50.2204 102.153 50.6132 102.153 51.0621V53.98C102.153 54.0361 102.153 54.0922 102.097 54.1483C102.04 54.2044 101.984 54.2044 101.928 54.2044H101.533C101.477 54.2044 101.42 54.2044 101.364 54.1483C101.308 54.0922 101.308 54.0361 101.308 53.98V53.5872C101.195 53.8116 100.97 53.98 100.744 54.0922C100.463 54.2044 100.181 54.3166 99.7865 54.3166C99.4484 54.3728 99.1667 54.3166 98.885 54.2044ZM100.913 53.3627C101.195 53.0822 101.308 52.7455 101.308 52.2405V51.9599L100.237 52.1283C99.7865 52.1844 99.4484 52.2966 99.223 52.4088C98.9977 52.5772 98.885 52.7455 98.885 52.9699C98.885 53.1944 98.9977 53.4188 99.1667 53.5311C99.3921 53.6433 99.6174 53.7555 99.8992 53.7555C100.294 53.6994 100.632 53.5872 100.913 53.3627Z" fill="#4CA9C7"/>
<path d="M103.787 52.6894V50.2766H103.111C103.054 50.2766 102.998 50.2766 102.942 50.2204C102.885 50.1643 102.885 50.1082 102.885 50.0521V49.7715C102.885 49.7154 102.885 49.6593 102.942 49.6032C102.998 49.5471 103.054 49.5471 103.111 49.5471H103.843V48.0321C103.843 47.976 103.843 47.9198 103.9 47.8637C103.956 47.8076 104.012 47.8076 104.069 47.8076H104.463C104.519 47.8076 104.576 47.8076 104.632 47.8637C104.688 47.9198 104.688 47.976 104.688 48.0321V49.5471H105.815C105.872 49.5471 105.928 49.5471 105.984 49.6032C106.041 49.6593 106.041 49.7154 106.041 49.7715V50.0521C106.041 50.1082 106.041 50.1643 105.984 50.2204C105.928 50.2766 105.872 50.2766 105.815 50.2766H104.688V52.6333C104.688 52.9138 104.745 53.1944 104.857 53.3066C104.97 53.475 105.139 53.5311 105.365 53.5311H105.928C105.984 53.5311 106.041 53.5311 106.097 53.5872C106.153 53.6433 106.153 53.6994 106.153 53.7555V54.0361C106.153 54.0922 106.153 54.1483 106.097 54.2044C106.041 54.2605 105.984 54.2605 105.928 54.2605H105.308C104.294 54.3166 103.787 53.7555 103.787 52.6894Z" fill="#4CA9C7"/>
<path d="M106.942 48.6493C106.886 48.5932 106.886 48.5371 106.886 48.481V48.0321C106.886 47.976 106.886 47.9198 106.942 47.8637C106.999 47.8076 107.055 47.8076 107.111 47.8076H107.618C107.675 47.8076 107.731 47.8076 107.787 47.8637C107.844 47.9198 107.844 47.976 107.844 48.0321V48.481C107.844 48.5371 107.844 48.5932 107.787 48.6493C107.731 48.7054 107.675 48.7054 107.618 48.7054H107.111C107.055 48.7054 106.999 48.7054 106.942 48.6493ZM106.999 54.2605C106.942 54.2044 106.942 54.1483 106.942 54.0922V49.8277C106.942 49.7715 106.942 49.7154 106.999 49.6593C107.055 49.6032 107.111 49.6032 107.168 49.6032H107.562C107.618 49.6032 107.675 49.6032 107.731 49.6593C107.787 49.7154 107.787 49.7715 107.787 49.8277V54.0922C107.787 54.1483 107.787 54.2044 107.731 54.2605C107.675 54.3166 107.618 54.3166 107.562 54.3166H107.168C107.111 54.3166 107.055 54.2605 106.999 54.2605Z" fill="#4CA9C7"/>
<path d="M109.534 53.8116C109.196 53.4188 108.971 52.9138 108.971 52.2966V51.9038V51.511C108.971 50.8938 109.196 50.3888 109.534 49.996C109.872 49.6032 110.436 49.4349 111.055 49.4349C111.675 49.4349 112.239 49.6032 112.577 49.996C112.915 50.3888 113.14 50.8938 113.14 51.511C113.14 51.6233 113.14 51.7916 113.14 51.9038C113.14 52.016 113.14 52.1844 113.14 52.2966C113.14 52.9138 112.915 53.4188 112.577 53.8116C112.239 54.2044 111.731 54.3728 111.055 54.3728C110.379 54.3728 109.928 54.2044 109.534 53.8116ZM112.013 53.3627C112.239 53.1383 112.351 52.7455 112.408 52.2966C112.408 52.2405 112.408 52.1283 112.408 51.9599C112.408 51.7916 112.408 51.6794 112.408 51.6233C112.408 51.1744 112.295 50.8377 112.013 50.5571C111.788 50.3327 111.506 50.1643 111.112 50.1643C110.717 50.1643 110.436 50.2766 110.21 50.5571C109.985 50.7816 109.872 51.1744 109.816 51.6233V51.9599V52.2966C109.816 52.7455 109.985 53.0822 110.21 53.3627C110.436 53.6433 110.717 53.7555 111.112 53.7555C111.506 53.7555 111.788 53.5872 112.013 53.3627Z" fill="#4CA9C7"/>
<path d="M114.436 54.2605C114.38 54.2044 114.38 54.1483 114.38 54.0922V49.8276C114.38 49.7715 114.38 49.7154 114.436 49.6593C114.492 49.6032 114.549 49.6032 114.605 49.6032H114.999C115.056 49.6032 115.112 49.6032 115.168 49.6593C115.225 49.7154 115.225 49.7715 115.225 49.8276V50.2204C115.394 49.996 115.619 49.8276 115.845 49.7154C116.07 49.6032 116.408 49.5471 116.746 49.5471C117.31 49.5471 117.76 49.7154 118.098 50.1082C118.436 50.501 118.605 50.9499 118.605 51.5671V54.1483C118.605 54.2044 118.605 54.2605 118.549 54.3166C118.493 54.3727 118.436 54.3727 118.38 54.3727H117.986C117.929 54.3727 117.873 54.3727 117.817 54.3166C117.76 54.2605 117.76 54.2044 117.76 54.1483V51.6232C117.76 51.1743 117.648 50.8377 117.422 50.6132C117.197 50.3888 116.915 50.2765 116.521 50.2765C116.126 50.2765 115.845 50.3888 115.619 50.6693C115.394 50.8938 115.281 51.2305 115.281 51.6794V54.2044C115.281 54.2605 115.281 54.3166 115.225 54.3727C115.168 54.4289 115.112 54.4289 115.056 54.4289H114.661C114.549 54.3166 114.492 54.2605 114.436 54.2605Z" fill="#4CA9C7"/>
<path d="M39.385 0.112244C36.0043 0.112244 34.314 2.02006 34.314 5.77958V12.2886C34.314 15.0942 34.9338 17.9559 39.385 17.9559C42.9347 17.9559 44.5124 16.3848 44.5124 12.9058V12.3447H41.4697V12.9058C41.4697 14.1403 40.9626 14.5331 39.385 14.5331C38.2017 14.5331 37.92 14.2525 37.92 12.2886V11.4469L42.2586 9.87577C43.9489 9.25854 44.5124 8.47297 44.5124 6.62126V5.16234C44.456 1.68339 42.8784 0.112244 39.385 0.112244ZM39.385 3.47898C40.5119 3.47898 41.0753 3.70343 41.0753 5.16234V5.83569C41.0753 6.84571 41.019 6.90182 40.3992 7.12627L37.92 8.02407V5.83569C37.92 3.64731 38.5962 3.47898 39.385 3.47898Z" fill="#00444C"/>
<path d="M52.5133 7.46293C51.161 6.67735 50.3158 6.11623 50.3158 5.16232V4.93788C50.3158 4.43287 50.3158 3.81563 50.5975 3.53507C50.7666 3.36673 51.0483 3.31062 51.3864 3.31062C51.8371 3.31062 52.4569 3.31062 52.4569 5.0501V6.28457H55.8939V4.99399C55.8939 1.62725 54.3726 0 51.2737 0C48.3438 0 46.7661 1.73948 46.7661 4.82565V5.16232C46.7661 8.13627 48.8509 9.37074 50.5412 10.3808C51.9498 11.2224 52.795 11.7836 52.795 12.7936V12.9619C52.795 13.4669 52.795 14.0281 52.5133 14.3086C52.2879 14.5331 51.8935 14.6453 51.3864 14.6453C50.7102 14.6453 49.9777 14.6453 49.9214 12.7375V10.998H46.4844V12.7375C46.4844 16.1042 48.2311 17.8998 51.4991 17.8998C54.3726 17.8998 56.3447 16.1042 56.3447 13.4669V12.7936C56.3447 9.76353 54.2036 8.47295 52.5133 7.46293Z" fill="#00444C"/>
<path d="M64.233 7.46293C62.8807 6.67735 62.0355 6.11623 62.0355 5.16232V4.93788C62.0355 4.43287 62.0355 3.81563 62.3173 3.53507C62.4863 3.36673 62.768 3.31062 63.1061 3.31062C63.5568 3.31062 64.1766 3.31062 64.1766 5.0501V6.28457H67.6137V4.99399C67.6137 1.62725 66.0924 0 62.9934 0C60.0635 0 58.4858 1.73948 58.4858 4.82565V5.16232C58.4858 8.13627 60.5706 9.37074 62.2609 10.3808C63.6695 11.2224 64.5147 11.7836 64.5147 12.7936V12.9619C64.5147 13.4669 64.5147 14.0281 64.233 14.3086C64.0076 14.5331 63.6132 14.6453 63.1061 14.6453C62.43 14.6453 61.6975 14.6453 61.6411 12.7375V10.998H58.2041V12.7375C58.2041 16.1042 59.9508 17.8998 63.2188 17.8998C66.0924 17.8998 68.0644 16.1042 68.0644 13.4669V12.7936C68.0644 9.76353 65.9797 8.47295 64.233 7.46293Z" fill="#00444C"/>
<path d="M75.3329 0.112244C71.9522 0.112244 70.2618 2.02006 70.2618 5.77958V12.2886C70.2618 15.0942 70.8816 17.9559 75.3329 17.9559C78.8826 17.9559 80.4602 16.3848 80.4602 12.9058V12.3447H77.4176V12.9058C77.4176 14.1403 76.9105 14.5331 75.3329 14.5331C74.1496 14.5331 73.8679 14.2525 73.8679 12.2886V11.4469L78.2064 9.87577C79.8968 9.25854 80.4602 8.47297 80.4602 6.62126V5.16234C80.4602 1.68339 78.8262 0.112244 75.3329 0.112244ZM75.3329 3.47898C76.4598 3.47898 77.0232 3.70343 77.0232 5.16234V5.83569C77.0232 6.84571 76.9669 6.90182 76.3471 7.12627L73.8679 8.02407V5.83569C73.8679 3.64731 74.544 3.47898 75.3329 3.47898Z" fill="#00444C"/>
<path d="M88.9683 0.112244C88.0105 0.112244 87.2217 0.336692 86.5455 0.729478V0.224468H82.9395V17.7876H86.5455V5.4429C86.5455 4.09621 87.2216 3.47898 88.6866 3.47898C89.5881 3.47898 90.0952 4.20844 90.0952 5.55513V17.7876H93.7013V5.55513C93.7576 1.90783 92.1236 0.112244 88.9683 0.112244Z" fill="#00444C"/>
<path d="M106.548 4.60122C106.379 1.51505 104.801 0.112244 101.421 0.112244C96.9129 0.112244 96.3495 2.97397 96.3495 5.77958V12.2886C96.3495 15.0942 96.9693 17.9559 101.421 17.9559C104.745 17.9559 106.379 16.5531 106.548 13.467H106.604V10.3247H103.111V12.3447V12.9058C103.111 14.3086 102.773 14.5331 101.421 14.5331C100.237 14.5331 99.9555 14.2525 99.9555 12.2886V5.77958C99.9555 3.75954 100.237 3.53509 101.421 3.53509C102.716 3.53509 103.111 3.75954 103.111 5.21846L103.167 5.77958V6.73349H106.604V5.16234L106.548 4.60122Z" fill="#00444C"/>
<path d="M116.803 9.81966C118.493 9.20242 119.056 8.41685 119.056 6.56515V5.16234C119.056 1.68339 117.422 0.112244 113.929 0.112244C110.548 0.112244 108.858 2.02006 108.858 5.77958V12.2886C108.858 15.0942 109.478 17.9559 113.929 17.9559C117.479 17.9559 119.056 16.3848 119.056 12.9058V12.3447H116.014V12.9058C116.014 14.1403 115.507 14.5331 113.929 14.5331C112.746 14.5331 112.464 14.2525 112.464 12.2886V11.4469L116.803 9.81966ZM113.929 3.47898C115.056 3.47898 115.619 3.70343 115.619 5.16234V5.83569C115.619 6.84571 115.563 6.90182 114.943 7.12627L112.464 8.02407V5.83569C112.464 3.64731 113.14 3.47898 113.929 3.47898Z" fill="#00444C"/>
<path d="M53.5275 38.1002C53.5275 38.8858 53.3021 39.9519 51.4991 39.9519C51.161 39.9519 50.2032 39.9519 50.2032 37.988V26.2605H46.6534V37.988C46.6534 41.4669 48.2311 43.2625 51.2737 43.2625C52.1189 43.2625 52.9077 43.0942 53.5275 42.7014V43.1503H57.0772V26.2605H53.5275V38.1002Z" fill="#4CA9C7"/>
<path d="M64.4583 33.2184C63.1624 32.4329 62.3736 31.9279 62.3736 31.0301V30.8056C62.3736 30.3006 62.3736 29.7395 62.6553 29.4589C62.8243 29.2906 63.0497 29.2345 63.3878 29.2345C63.7822 29.2345 64.402 29.2345 64.402 30.9178V32.1523H67.7263V30.8617C67.7263 27.6072 66.2614 26.0361 63.2751 26.0361C60.4579 26.0361 58.9366 27.6633 58.9366 30.6934V31.0301C58.9366 33.8918 60.965 35.0701 62.599 36.0802C63.9512 36.8657 64.7401 37.4269 64.7401 38.3808V38.5491C64.7401 39.0541 64.7401 39.5591 64.4583 39.8397C64.2893 40.008 63.8949 40.1202 63.3878 40.1202C62.7117 40.1202 62.0355 40.1202 62.0355 38.2685V36.5852H58.7112V38.2685C58.7112 41.4669 60.4015 43.2625 63.5005 43.2625C66.3177 43.2625 68.1771 41.523 68.1771 38.998V38.3246C68.1771 35.4068 66.1487 34.2285 64.4583 33.2184Z" fill="#4CA9C7"/>
<path d="M73.3045 26.2605H69.7548V43.1503H73.3045V26.2605Z" fill="#4CA9C7"/>
<path d="M73.3045 21.9399H69.7548V25.475H73.3045V21.9399Z" fill="#4CA9C7"/>
<path d="M81.1928 26.1483C80.2913 26.1483 79.5588 26.3166 78.939 26.7094V26.2605H75.3893V43.1503H78.939V31.3106C78.939 30.02 79.6151 29.4589 80.9674 29.4589C81.8126 29.4589 82.2633 30.1323 82.2633 31.4228V43.1503H85.8131V31.4228C85.8131 27.8878 84.2354 26.1483 81.1928 26.1483Z" fill="#4CA9C7"/>
<path d="M92.4617 26.1483C89.1937 26.1483 87.5597 28 87.5597 31.5912V37.8196C87.5597 40.513 88.1231 43.2625 92.4617 43.2625C95.8987 43.2625 97.3637 41.7475 97.3637 38.3807V37.8196H94.3774V38.3807C94.3774 39.5591 93.9266 39.8958 92.4053 39.8958C91.3348 39.8958 91.0531 39.6713 91.0531 37.7635V37.0341L95.1662 35.519C96.8002 34.9579 97.3073 34.1723 97.3073 32.3767V31.03C97.42 27.7194 95.8424 26.1483 92.4617 26.1483ZM92.4617 29.4589C93.5322 29.4589 94.0393 29.6834 94.0393 31.03V31.6473C94.0393 32.6012 93.983 32.6573 93.4195 32.8256L91.1094 33.6673V31.5912C91.1094 29.6272 91.7856 29.4589 92.4617 29.4589Z" fill="#4CA9C7"/>
<path d="M104.463 33.2184C103.167 32.4329 102.378 31.9279 102.378 31.0301V30.8056C102.378 30.3006 102.378 29.7395 102.66 29.4589C102.829 29.2906 103.054 29.2345 103.393 29.2345C103.787 29.2345 104.407 29.2345 104.407 30.9178V32.1523H107.731V30.8617C107.731 27.6072 106.266 26.0361 103.28 26.0361C100.463 26.0361 98.9413 27.6633 98.9413 30.6934V31.0301C98.9413 33.8918 100.97 35.0701 102.604 36.0802C103.956 36.8657 104.745 37.4269 104.745 38.3808V38.5491C104.745 39.0541 104.745 39.5591 104.463 39.8397C104.294 40.008 103.9 40.1202 103.393 40.1202C102.716 40.1202 102.04 40.1202 102.04 38.2685V36.5852H98.7159V38.2685C98.7159 41.4669 100.406 43.2625 103.505 43.2625C106.322 43.2625 108.182 41.523 108.182 38.998V38.3246C108.182 35.4068 106.097 34.2285 104.463 33.2184Z" fill="#4CA9C7"/>
<path d="M115.112 33.2184C113.816 32.4329 113.027 31.9279 113.027 31.0301V30.8056C113.027 30.3006 113.027 29.7395 113.309 29.4589C113.478 29.2906 113.704 29.2345 114.042 29.2345C114.436 29.2345 115.056 29.2345 115.056 30.9178V32.1523H118.38V30.8617C118.38 27.6072 116.915 26.0361 113.929 26.0361C111.112 26.0361 109.59 27.6633 109.59 30.6934V31.0301C109.59 33.8918 111.619 35.0701 113.253 36.0802C114.605 36.8657 115.394 37.4269 115.394 38.3808V38.5491C115.394 39.0541 115.394 39.5591 115.112 39.8397C114.943 40.008 114.549 40.1202 114.042 40.1202C113.366 40.1202 112.689 40.1202 112.689 38.2685V36.5852H109.309V38.2685C109.309 41.4669 110.999 43.2625 114.098 43.2625C116.915 43.2625 118.775 41.523 118.775 38.998V38.3246C118.831 35.4068 116.746 34.2285 115.112 33.2184Z" fill="#4CA9C7"/>
<path d="M40.2301 26.1483C39.3286 26.1483 38.5961 26.3166 37.9764 26.7094V19.8076H34.4266V23.3988C35.5535 23.3988 35.8353 23.7916 35.7789 24.8577C35.6662 26.6533 35.2155 28.4489 34.4266 30.1884V43.2064H37.9764V42.8136C38.5961 43.2064 39.385 43.3748 40.2301 43.3748C43.2728 43.3748 44.8504 41.5792 44.8504 38.1002V31.4228C44.8504 27.8878 43.3291 26.1483 40.2301 26.1483ZM41.3007 38.0441C41.3007 39.3347 40.8499 40.008 40.0048 40.008C38.5961 40.008 37.9764 39.3908 37.9764 38.1563V31.3106C37.9764 30.02 38.6525 29.4589 40.0048 29.4589C40.8499 29.4589 41.3007 30.1323 41.3007 31.4228V38.0441Z" fill="#4CA9C7"/>
<path d="M16.1709 42.982C15.3258 43.1503 14.875 42.8697 14.9314 41.8036C15.2131 34.2846 22.4815 27.0461 29.9754 26.8216C31.1023 26.7655 31.3277 27.1583 31.2713 28.2244C30.8769 35.7435 23.6648 42.8136 16.1709 42.982Z" fill="#4CA9C7"/>
<path d="M12.6212 41.9719C12.6776 39.6152 13.41 37.3146 14.6496 35.1824C14.3679 35.1824 14.0862 35.1824 13.7481 35.1824C9.18419 35.1824 8.4517 33.2745 8.4517 27.6072V27.2144V23.3988V19.3026V15.4309C8.4517 9.98798 9.97301 7.74349 13.7481 7.74349C17.4105 7.74349 19.6643 8.75351 19.6643 13.6353V15.5992C19.6643 18.9098 19.3262 19.4709 17.0161 20.3126L12.5085 21.9399L12.7902 29.4589L21.7491 26.2044C26.2566 24.6333 27.5526 22.7255 27.5526 17.6754V13.5792C27.5526 4.20842 23.2704 0 13.7481 0C4.50758 0 0 5.0501 0 15.4309V27.2144V27.6072V27.8317C0.0563447 38.3246 3.83144 42.7575 12.9029 43.0381C12.6776 42.8136 12.6212 42.477 12.6212 41.9719Z" fill="#9AD0D2"/>
</svg>
