<svg width="119" height="59" viewBox="0 0 119 59" fill="none" xmlns="http://www.w3.org/2000/svg">
<g clip-path="url(#clip0_1006_488)">
<path d="M39.385 0.112152C36.0043 0.112152 34.314 2.019 34.314 5.7766V12.2823C34.314 15.0865 34.9338 17.9468 39.385 17.9468C42.9347 17.9468 44.5124 16.3764 44.5124 12.8992V12.3384H41.4697V12.8992C41.4697 14.1331 40.9626 14.5256 39.385 14.5256C38.2017 14.5256 37.92 14.2452 37.92 12.2823V11.441L42.2586 9.87071C43.9489 9.25379 44.5124 8.46862 44.5124 6.61786V5.15968C44.456 1.68249 42.8784 0.112152 39.385 0.112152ZM39.385 3.47717C40.5119 3.47717 41.0753 3.70151 41.0753 5.15968V5.83268C41.0753 6.84219 41.019 6.89827 40.3992 7.12261L37.92 8.01995V5.83268C37.92 3.64542 38.5962 3.47717 39.385 3.47717Z" fill="#00444C"/>
<path d="M52.5133 7.45913C51.161 6.67395 50.3158 6.11312 50.3158 5.1597V4.93536C50.3158 4.43061 50.3158 3.81369 50.5975 3.53327C50.7666 3.36502 51.0483 3.30894 51.3864 3.30894C51.8371 3.30894 52.4569 3.30894 52.4569 5.04753V6.28137H55.8939V4.99144C55.8939 1.62643 54.3726 0 51.2737 0C48.3438 0 46.7661 1.73859 46.7661 4.82319V5.1597C46.7661 8.13213 48.8509 9.36597 50.5412 10.3755C51.9498 11.2167 52.795 11.7776 52.795 12.7871V12.9553C52.795 13.4601 52.795 14.0209 52.5133 14.3013C52.2879 14.5257 51.8935 14.6378 51.3864 14.6378C50.7102 14.6378 49.9777 14.6378 49.9214 12.731V10.9924H46.4844V12.731C46.4844 16.096 48.2311 17.8907 51.4991 17.8907C54.3726 17.8907 56.3447 16.096 56.3447 13.4601V12.7871C56.3447 9.75855 54.2036 8.46863 52.5133 7.45913Z" fill="#00444C"/>
<path d="M64.233 7.45913C62.8807 6.67395 62.0355 6.11312 62.0355 5.1597V4.93536C62.0355 4.43061 62.0355 3.81369 62.3173 3.53327C62.4863 3.36502 62.768 3.30894 63.1061 3.30894C63.5568 3.30894 64.1766 3.30894 64.1766 5.04753V6.28137H67.6137V4.99144C67.6137 1.62643 66.0924 0 62.9934 0C60.0635 0 58.4858 1.73859 58.4858 4.82319V5.1597C58.4858 8.13213 60.5706 9.36597 62.2609 10.3755C63.6695 11.2167 64.5147 11.7776 64.5147 12.7871V12.9553C64.5147 13.4601 64.5147 14.0209 64.233 14.3013C64.0076 14.5257 63.6132 14.6378 63.1061 14.6378C62.43 14.6378 61.6975 14.6378 61.6411 12.731V10.9924H58.2041V12.731C58.2041 16.096 59.9508 17.8907 63.2188 17.8907C66.0924 17.8907 68.0644 16.096 68.0644 13.4601V12.7871C68.0644 9.75855 65.9797 8.46863 64.233 7.45913Z" fill="#00444C"/>
<path d="M75.3327 0.112152C71.9521 0.112152 70.2617 2.019 70.2617 5.7766V12.2823C70.2617 15.0865 70.8815 17.9468 75.3327 17.9468C78.8825 17.9468 80.4601 16.3764 80.4601 12.8992V12.3384H77.4175V12.8992C77.4175 14.1331 76.9104 14.5256 75.3327 14.5256C74.1495 14.5256 73.8678 14.2452 73.8678 12.2823V11.441L78.2063 9.87071C79.8967 9.25379 80.4601 8.46862 80.4601 6.61786V5.15968C80.4601 1.68249 78.8261 0.112152 75.3327 0.112152ZM75.3327 3.47717C76.4596 3.47717 77.0231 3.70151 77.0231 5.15968V5.83268C77.0231 6.84219 76.9667 6.89827 76.3469 7.12261L73.8678 8.01995V5.83268C73.8678 3.64542 74.5439 3.47717 75.3327 3.47717Z" fill="#00444C"/>
<path d="M88.9683 0.112152C88.0105 0.112152 87.2217 0.336487 86.5455 0.729072V0.224319H82.9395V17.7785H86.5455V5.4401C86.5455 4.09409 87.2216 3.47717 88.6866 3.47717C89.5881 3.47717 90.0952 4.20626 90.0952 5.55227V17.7785H93.7013V5.55227C93.7576 1.90683 92.1236 0.112152 88.9683 0.112152Z" fill="#00444C"/>
<path d="M106.548 4.59884C106.379 1.51424 104.801 0.112152 101.421 0.112152C96.9131 0.112152 96.3496 2.97242 96.3496 5.7766V12.2823C96.3496 15.0865 96.9694 17.9468 101.421 17.9468C104.745 17.9468 106.379 16.5447 106.548 13.4601H106.604V10.3194H103.111V12.3384V12.8992C103.111 14.3013 102.773 14.5256 101.421 14.5256C100.237 14.5256 99.9557 14.2452 99.9557 12.2823V5.7766C99.9557 3.75759 100.237 3.53325 101.421 3.53325C102.717 3.53325 103.111 3.75759 103.111 5.21576L103.167 5.7766V6.73002H106.604V5.15968L106.548 4.59884Z" fill="#00444C"/>
<path d="M116.803 9.81462C118.493 9.1977 119.056 8.41253 119.056 6.56177V5.15968C119.056 1.68249 117.422 0.112152 113.929 0.112152C110.548 0.112152 108.858 2.019 108.858 5.7766V12.2823C108.858 15.0865 109.478 17.9468 113.929 17.9468C117.479 17.9468 119.056 16.3764 119.056 12.8992V12.3384H116.014V12.8992C116.014 14.1331 115.507 14.5256 113.929 14.5256C112.746 14.5256 112.464 14.2452 112.464 12.2823V11.441L116.803 9.81462ZM113.929 3.47717C115.056 3.47717 115.619 3.70151 115.619 5.15968V5.83268C115.619 6.84219 115.563 6.89827 114.943 7.12261L112.464 8.01995V5.83268C112.464 3.64542 113.14 3.47717 113.929 3.47717Z" fill="#00444C"/>
<path d="M53.5274 38.0808C53.5274 38.866 53.302 39.9315 51.499 39.9315C51.1609 39.9315 50.203 39.9315 50.203 37.9686V26.2471H46.6533V37.9686C46.6533 41.4458 48.231 43.2405 51.2736 43.2405C52.1188 43.2405 52.9076 43.0722 53.5274 42.6796V43.1283H57.0771V26.2471H53.5274V38.0808Z" fill="#4CA9C7"/>
<path d="M64.4583 33.2015C63.1624 32.4163 62.3736 31.9116 62.3736 31.0142V30.7899C62.3736 30.2852 62.3736 29.7243 62.6553 29.4439C62.8243 29.2756 63.0497 29.2196 63.3878 29.2196C63.7822 29.2196 64.402 29.2196 64.402 30.9021V32.1359H67.7263V30.846C67.7263 27.5931 66.2614 26.0228 63.2751 26.0228C60.4579 26.0228 58.9366 27.6492 58.9366 30.6777V31.0142C58.9366 33.8745 60.965 35.0523 62.599 36.0618C63.9512 36.8469 64.7401 37.4078 64.7401 38.3612V38.5294C64.7401 39.0342 64.7401 39.539 64.4583 39.8194C64.2893 39.9876 63.8949 40.0998 63.3878 40.0998C62.7117 40.0998 62.0355 40.0998 62.0355 38.249V36.5665H58.7112V38.249C58.7112 41.4458 60.4015 43.2405 63.5005 43.2405C66.3177 43.2405 68.1771 41.5019 68.1771 38.9781V38.3051C68.1771 35.3888 66.1487 34.211 64.4583 33.2015Z" fill="#4CA9C7"/>
<path d="M73.3046 26.2471H69.7549V43.1283H73.3046V26.2471Z" fill="#4CA9C7"/>
<path d="M73.3046 21.9287H69.7549V25.462H73.3046V21.9287Z" fill="#4CA9C7"/>
<path d="M81.1927 26.135C80.2912 26.135 79.5587 26.3032 78.9389 26.6958V26.2471H75.3892V43.1283H78.9389V31.2947C78.9389 30.0048 79.615 29.4439 80.9673 29.4439C81.8125 29.4439 82.2632 30.1169 82.2632 31.4068V43.1283H85.8129V31.4068C85.8129 27.8736 84.2353 26.135 81.1927 26.135Z" fill="#4CA9C7"/>
<path d="M92.4616 26.135C89.1936 26.135 87.5596 27.9857 87.5596 31.5751V37.8004C87.5596 40.4924 88.123 43.2405 92.4616 43.2405C95.8986 43.2405 97.3636 41.7262 97.3636 38.3612V37.8004H94.3773V38.3612C94.3773 39.539 93.9265 39.8755 92.4052 39.8755C91.3347 39.8755 91.0529 39.6511 91.0529 37.7443V37.0152L95.1661 35.5009C96.8001 34.9401 97.3072 34.1549 97.3072 32.3603V31.0143C97.4199 27.7053 95.8422 26.135 92.4616 26.135ZM92.4616 29.4439C93.5321 29.4439 94.0392 29.6682 94.0392 31.0143V31.6312C94.0392 32.5846 93.9829 32.6407 93.4194 32.8089L91.1093 33.6502V31.5751C91.1093 29.6122 91.7854 29.4439 92.4616 29.4439Z" fill="#4CA9C7"/>
<path d="M104.463 33.2015C103.167 32.4163 102.378 31.9116 102.378 31.0142V30.7899C102.378 30.2852 102.378 29.7243 102.66 29.4439C102.829 29.2756 103.054 29.2196 103.392 29.2196C103.787 29.2196 104.407 29.2196 104.407 30.9021V32.1359H107.731V30.846C107.731 27.5931 106.266 26.0228 103.28 26.0228C100.463 26.0228 98.9412 27.6492 98.9412 30.6777V31.0142C98.9412 33.8745 100.97 35.0523 102.604 36.0618C103.956 36.8469 104.745 37.4078 104.745 38.3612V38.5294C104.745 39.0342 104.745 39.539 104.463 39.8194C104.294 39.9876 103.9 40.0998 103.392 40.0998C102.716 40.0998 102.04 40.0998 102.04 38.249V36.5665H98.7158V38.249C98.7158 41.4458 100.406 43.2405 103.505 43.2405C106.322 43.2405 108.182 41.5019 108.182 38.9781V38.3051C108.182 35.3888 106.097 34.211 104.463 33.2015Z" fill="#4CA9C7"/>
<path d="M115.112 33.2015C113.816 32.4163 113.027 31.9116 113.027 31.0142V30.7899C113.027 30.2852 113.027 29.7243 113.309 29.4439C113.478 29.2756 113.703 29.2196 114.042 29.2196C114.436 29.2196 115.056 29.2196 115.056 30.9021V32.1359H118.38V30.846C118.38 27.5931 116.915 26.0228 113.929 26.0228C111.112 26.0228 109.59 27.6492 109.59 30.6777V31.0142C109.59 33.8745 111.619 35.0523 113.253 36.0618C114.605 36.8469 115.394 37.4078 115.394 38.3612V38.5294C115.394 39.0342 115.394 39.539 115.112 39.8194C114.943 39.9876 114.549 40.0998 114.042 40.0998C113.365 40.0998 112.689 40.0998 112.689 38.249V36.5665H109.309V38.249C109.309 41.4458 110.999 43.2405 114.098 43.2405C116.915 43.2405 118.775 41.5019 118.775 38.9781V38.3051C118.831 35.3888 116.746 34.211 115.112 33.2015Z" fill="#4CA9C7"/>
<path d="M40.23 26.135C39.3285 26.135 38.596 26.3032 37.9762 26.6958V19.7975H34.4265V23.3869C35.5534 23.3869 35.8351 23.7795 35.7788 24.845C35.6661 26.6397 35.2153 28.4344 34.4265 30.173V43.1844H37.9762V42.7918C38.596 43.1844 39.3848 43.3527 40.23 43.3527C43.2726 43.3527 44.8503 41.558 44.8503 38.0808V31.4068C44.8503 27.8736 43.329 26.135 40.23 26.135ZM41.3006 38.0247C41.3006 39.3146 40.8498 39.9876 40.0046 39.9876C38.596 39.9876 37.9762 39.3707 37.9762 38.1369V31.2947C37.9762 30.0047 38.6524 29.4439 40.0046 29.4439C40.8498 29.4439 41.3006 30.1169 41.3006 31.4068V38.0247Z" fill="#4CA9C7"/>
<path d="M16.1708 42.9601C15.3256 43.1283 14.8749 42.8479 14.9312 41.7823C15.213 34.2671 22.4814 27.0323 29.9753 26.808C31.1022 26.7519 31.3275 27.1445 31.2712 28.2101C30.8768 35.7253 23.6647 42.7918 16.1708 42.9601Z" fill="#4CA9C7"/>
<path d="M12.6212 41.9506C12.6776 39.5951 13.41 37.2956 14.6496 35.1644C14.3679 35.1644 14.0862 35.1644 13.7481 35.1644C9.18419 35.1644 8.4517 33.2576 8.4517 27.5932V27.2006V23.3869V19.2928V15.423C8.4517 9.98289 9.97301 7.73954 13.7481 7.73954C17.4105 7.73954 19.6643 8.74905 19.6643 13.6283V15.5913C19.6643 18.9002 19.3262 19.461 17.0161 20.3023L12.5085 21.9287L12.7902 29.4439L21.7491 26.1911C26.2566 24.6207 27.5526 22.7139 27.5526 17.6663V13.5722C27.5526 4.20627 23.2704 0 13.7481 0C4.50758 0 0 5.04753 0 15.423V27.2006V27.5932V27.8175C0.0563447 38.3051 3.83144 42.7357 12.9029 43.0162C12.6776 42.7918 12.6212 42.4553 12.6212 41.9506Z" fill="#9AD0D2"/>
<path d="M12.5085 56.8127C12.4521 56.7566 12.4521 56.7006 12.4521 56.6445V49.2975C12.4521 49.2414 12.4521 49.1853 12.5085 49.1293C12.5648 49.0732 12.6212 49.0732 12.6775 49.0732H13.241C13.2973 49.0732 13.41 49.0732 13.41 49.1293C13.41 49.1853 13.4664 49.2414 13.4664 49.2975V56.6445C13.4664 56.7006 13.4664 56.7566 13.41 56.8127C13.3537 56.8688 13.2973 56.8688 13.241 56.8688H12.6775C12.6212 56.8688 12.5648 56.8688 12.5085 56.8127Z" fill="#4CA9C7"/>
<path d="M15.4948 56.8127C15.4385 56.7567 15.4385 56.7006 15.4385 56.6445V51.3165C15.4385 51.2605 15.4385 51.2044 15.4948 51.1483C15.5512 51.0922 15.6075 51.0922 15.6639 51.0922H16.1146C16.171 51.0922 16.2273 51.0922 16.2836 51.1483C16.34 51.2044 16.34 51.2605 16.34 51.3165V51.7091C16.7344 51.2044 17.2979 50.98 17.974 50.98C18.8192 50.98 19.3826 51.3165 19.7207 51.9895C19.8897 51.653 20.1714 51.4287 20.5095 51.2605C20.8476 51.0922 21.242 50.98 21.6364 50.98C22.2562 50.98 22.7633 51.2044 23.1577 51.597C23.5521 51.9895 23.7211 52.6065 23.7211 53.3916V56.6445C23.7211 56.7006 23.7211 56.7567 23.6648 56.8127C23.6085 56.8688 23.5521 56.8688 23.4958 56.8688H22.9887C22.9323 56.8688 22.876 56.8688 22.8196 56.8127C22.7633 56.7567 22.7633 56.7006 22.7633 56.6445V53.5038C22.7633 52.8869 22.6506 52.4943 22.3689 52.2139C22.0872 51.9335 21.8054 51.8213 21.411 51.8213C21.0729 51.8213 20.7349 51.9335 20.4532 52.2139C20.1714 52.4943 20.0587 52.8869 20.0587 53.5038V56.6445C20.0587 56.7006 20.0587 56.7567 20.0024 56.8127C19.9461 56.8688 19.8897 56.8688 19.8334 56.8688H19.3263C19.2699 56.8688 19.2136 56.8688 19.1572 56.8127C19.1009 56.7567 19.1009 56.7006 19.1009 56.6445V53.5038C19.1009 52.8869 18.9882 52.4943 18.7065 52.2139C18.4247 51.9335 18.143 51.8213 17.7486 51.8213C17.4105 51.8213 17.0725 51.9335 16.8471 52.2139C16.5654 52.4943 16.4527 52.8869 16.4527 53.5038V56.6445C16.4527 56.7006 16.4527 56.7567 16.3963 56.8127C16.34 56.8688 16.2836 56.8688 16.2273 56.8688H15.7202C15.5512 56.8688 15.4948 56.8688 15.4948 56.8127Z" fill="#4CA9C7"/>
<path d="M25.5241 58.9439C25.4678 58.8878 25.4678 58.8318 25.4678 58.7757V51.3165C25.4678 51.2605 25.4678 51.1483 25.5241 51.1483C25.5805 51.0922 25.6368 51.0922 25.6932 51.0922H26.1439C26.2003 51.0922 26.3129 51.0922 26.3129 51.1483C26.3129 51.2044 26.3693 51.2605 26.3693 51.3165V51.8213C26.82 51.2605 27.4398 50.98 28.2287 50.98C29.0175 50.98 29.5809 51.2044 29.9753 51.7091C30.3698 52.2139 30.5951 52.8308 30.5951 53.616C30.5951 53.6721 30.5951 53.8403 30.5951 54.0086C30.5951 54.1768 30.5951 54.289 30.5951 54.4011C30.5951 55.1863 30.3698 55.8032 29.9753 56.308C29.5809 56.8127 28.9611 57.0371 28.2287 57.0371C27.4398 57.0371 26.82 56.7567 26.4256 56.1958V58.8318C26.4256 58.8878 26.4256 58.9439 26.3693 59C26.3129 59.0561 26.2566 59.0561 26.2003 59.0561H25.6932C25.6368 59 25.5805 59 25.5241 58.9439ZM29.2992 55.5789C29.5246 55.2424 29.6936 54.7937 29.6936 54.2329C29.6936 54.1768 29.6936 54.0646 29.6936 53.8964C29.6936 52.4382 29.1865 51.7652 28.116 51.7652C27.6089 51.7652 27.2145 51.9335 26.9327 52.27C26.651 52.6065 26.482 53.0551 26.482 53.5599C26.482 53.616 26.482 53.7842 26.482 54.0086C26.482 54.2329 26.482 54.3451 26.482 54.4572C26.482 54.9059 26.651 55.2985 26.9327 55.635C27.2145 55.9715 27.6089 56.1397 28.116 56.1397C28.6231 56.0837 29.0175 55.9154 29.2992 55.5789Z" fill="#4CA9C7"/>
<path d="M32.68 56.308C32.2292 55.8593 32.0039 55.2424 31.9475 54.4572V53.9525V53.4477C32.0039 52.6625 32.2292 52.0456 32.68 51.597C33.1307 51.1483 33.7505 50.924 34.5957 50.924C35.3845 50.924 36.0607 51.1483 36.5114 51.597C36.9622 52.0456 37.1876 52.6625 37.2439 53.4477C37.2439 53.616 37.2439 53.7842 37.2439 53.9525C37.2439 54.1207 37.2439 54.289 37.2439 54.4572C37.1876 55.2424 36.9622 55.8593 36.5114 56.308C36.0607 56.7566 35.4409 56.981 34.5957 56.981C33.7505 56.981 33.0744 56.7566 32.68 56.308ZM35.7226 55.6911C36.0043 55.4106 36.1734 54.962 36.1734 54.4011C36.1734 54.3451 36.1734 54.1768 36.1734 53.9525C36.1734 53.7281 36.1734 53.616 36.1734 53.5038C36.1734 52.943 36.0043 52.4943 35.7226 52.2139C35.4409 51.9335 35.0465 51.7652 34.5957 51.7652C34.0886 51.7652 33.7505 51.9335 33.4688 52.2139C33.1871 52.4943 33.0181 52.943 33.0181 53.5038V53.9525V54.4011C33.0181 54.962 33.1871 55.4106 33.4688 55.6911C33.7505 55.9715 34.145 56.1397 34.5957 56.1397C35.0465 56.1397 35.4409 55.9715 35.7226 55.6911Z" fill="#4CA9C7"/>
<path d="M38.7651 56.8127C38.7087 56.7567 38.7087 56.7006 38.7087 56.6445V51.3165C38.7087 51.2605 38.7087 51.2044 38.7651 51.1483C38.8214 51.0361 38.8778 51.0361 38.9341 51.0361H39.3849C39.4412 51.0361 39.5539 51.0361 39.6103 51.0922C39.6666 51.1483 39.6666 51.2044 39.6666 51.2605V51.7652C39.9483 51.2605 40.5118 50.98 41.2443 50.98H41.695C41.7514 50.98 41.864 50.98 41.864 51.0361C41.9204 51.0922 41.9204 51.1483 41.9204 51.2044V51.597C41.9204 51.653 41.9204 51.7091 41.864 51.7652C41.8077 51.8213 41.7514 51.8213 41.695 51.8213H41.0752C40.6808 51.8213 40.3427 51.9335 40.1174 52.1578C39.892 52.3821 39.7793 52.7186 39.7793 53.1112V56.4202C39.7793 56.4762 39.7793 56.5323 39.7229 56.5884C39.6666 56.6445 39.6103 56.6445 39.5539 56.6445H39.0468C38.8778 56.8688 38.8214 56.8688 38.7651 56.8127Z" fill="#4CA9C7"/>
<path d="M43.4418 54.9059V51.8774H42.5403C42.484 51.8774 42.4276 51.8774 42.3713 51.8213C42.3149 51.7652 42.3149 51.7091 42.3149 51.6531V51.3165C42.3149 51.2605 42.3149 51.2044 42.3713 51.1483C42.4276 51.0922 42.484 51.0922 42.5403 51.0922H43.4418V49.2415C43.4418 49.1854 43.4418 49.1293 43.4982 49.0732C43.5545 49.0171 43.6109 49.0171 43.6672 49.0171H44.1743C44.2307 49.0171 44.287 49.0171 44.3433 49.0732C44.3997 49.1293 44.3997 49.1854 44.3997 49.2415V51.0361H45.8083C45.8647 51.0361 45.921 51.0361 45.9773 51.0922C46.0337 51.1483 46.0337 51.2044 46.0337 51.2605V51.597C46.0337 51.6531 46.0337 51.7091 45.9773 51.7652C45.921 51.8213 45.8647 51.8213 45.8083 51.8213H44.3997V54.7377C44.3997 55.1302 44.456 55.4107 44.5687 55.5789C44.6814 55.7472 44.9068 55.8593 45.1885 55.8593H45.8647C45.921 55.8593 45.9773 55.8593 46.0337 55.9154C46.09 55.9715 46.09 56.0276 46.09 56.0837V56.4762C46.09 56.5323 46.09 56.5884 46.0337 56.6445C45.9773 56.7006 45.921 56.7006 45.8647 56.7006H45.0758C44.0616 56.8688 43.4418 56.1958 43.4418 54.9059Z" fill="#4CA9C7"/>
<path d="M50.7666 56.7566C50.4286 56.5884 50.2032 56.4201 50.0342 56.1397C49.8651 55.8593 49.7524 55.5789 49.7524 55.2985C49.7524 54.7937 49.9778 54.4011 50.3722 54.0646C50.7666 53.7281 51.3301 53.5599 52.0062 53.4477L53.6966 53.2234V52.8869C53.6966 52.1017 53.2458 51.7091 52.3443 51.7091C52.0062 51.7091 51.7245 51.7652 51.4991 51.9335C51.2737 52.0456 51.1611 52.2139 51.0484 52.4382C50.992 52.4943 50.992 52.5504 50.9357 52.6065C50.8793 52.6065 50.8793 52.6625 50.7666 52.6625H50.3159C50.2595 52.6625 50.2032 52.6625 50.1469 52.6065C50.0905 52.5504 50.1469 52.4382 50.1469 52.3821C50.1469 52.2139 50.2032 51.9895 50.3722 51.7652C50.5413 51.5409 50.7666 51.3165 51.1047 51.1483C51.4428 50.98 51.8372 50.924 52.3443 50.924C53.1895 50.924 53.8093 51.0922 54.1473 51.4848C54.4854 51.8774 54.7108 52.3821 54.7108 52.943V56.5884C54.7108 56.6445 54.7108 56.7006 54.6544 56.7566C54.5981 56.8127 54.5417 56.8127 54.4854 56.8127H53.9783C53.9219 56.8127 53.8656 56.8127 53.8093 56.7566C53.7529 56.7006 53.7529 56.6445 53.7529 56.5884V56.0836C53.5839 56.308 53.3585 56.5323 53.0204 56.7006C52.6824 56.8688 52.288 56.9249 51.7808 56.9249C51.4428 56.981 51.1047 56.9249 50.7666 56.7566ZM53.2458 55.6911C53.5839 55.3546 53.6966 54.9059 53.6966 54.289V53.9525L52.4006 54.1768C51.8372 54.2329 51.4428 54.4011 51.1611 54.5694C50.8793 54.7376 50.7666 54.962 50.7666 55.2424C50.7666 55.5228 50.8793 55.8032 51.1611 55.9715C51.3864 56.1397 51.7245 56.1958 52.0626 56.1958C52.5133 56.1397 52.9641 56.0276 53.2458 55.6911Z" fill="#4CA9C7"/>
<path d="M56.5136 56.8127C56.4573 56.7567 56.4573 56.7006 56.4573 56.6445V51.3165C56.4573 51.2605 56.4573 51.2044 56.5136 51.1483C56.57 51.0922 56.6263 51.0922 56.6827 51.0922H57.1898C57.2461 51.0922 57.3588 51.0922 57.3588 51.1483C57.3588 51.2044 57.4151 51.2605 57.4151 51.3165V51.8213C57.6405 51.5409 57.9222 51.3165 58.204 51.2044C58.4857 51.0922 58.8801 50.98 59.3309 50.98C60.0633 50.98 60.6268 51.2044 61.0212 51.653C61.4156 52.1017 61.641 52.7186 61.641 53.5038V56.7006C61.641 56.7567 61.641 56.8127 61.5846 56.8688C61.5283 56.9249 61.472 56.9249 61.4156 56.9249H60.8522C60.7958 56.9249 60.7395 56.9249 60.6831 56.8688C60.6268 56.8127 60.6268 56.7567 60.6268 56.7006V53.616C60.6268 53.0551 60.5141 52.6626 60.2324 52.3821C59.9506 52.1017 59.6126 51.9335 59.1055 51.9335C58.5984 51.9335 58.2603 52.1017 57.9786 52.3821C57.6969 52.6626 57.5278 53.1112 57.5278 53.616V56.7006C57.5278 56.7567 57.5278 56.8127 57.4715 56.8688C57.4151 56.9249 57.3588 56.9249 57.3024 56.9249H56.7953C56.6263 56.8688 56.57 56.8688 56.5136 56.8127Z" fill="#4CA9C7"/>
<path d="M63.6696 56.1958C63.2752 55.6911 63.0498 55.0181 63.0498 54.289V53.9525V53.616C63.1061 52.8308 63.2752 52.2139 63.6696 51.7091C64.064 51.2044 64.6838 50.924 65.4163 50.924C66.1488 50.924 66.8249 51.2044 67.2193 51.7652V49.1854C67.2193 49.1293 67.2193 49.0732 67.2757 49.0171C67.332 48.961 67.3883 48.961 67.4447 48.961H67.9518C68.0081 48.961 68.0645 48.961 68.1208 49.0171C68.1772 49.0732 68.1772 49.1293 68.1772 49.1854V56.6445C68.1772 56.7006 68.1772 56.7567 68.1208 56.8127C68.0645 56.8688 68.0081 56.8688 67.9518 56.8688H67.4447C67.3883 56.8688 67.332 56.8688 67.2757 56.8127C67.2193 56.7567 67.2193 56.7006 67.2193 56.6445V56.1397C66.7686 56.7006 66.1488 56.981 65.3599 56.981C64.6275 56.981 64.064 56.7006 63.6696 56.1958ZM66.8249 55.5789C67.1066 55.2424 67.2193 54.7937 67.2757 54.3451C67.2757 54.289 67.2757 54.1207 67.2757 53.8964C67.2757 53.6721 67.2757 53.5599 67.2757 53.4477C67.2757 52.9991 67.1066 52.6065 66.8249 52.27C66.5432 51.9335 66.1488 51.7652 65.6417 51.7652C65.0782 51.7652 64.6838 51.9335 64.4584 52.27C64.233 52.6065 64.064 53.0551 64.064 53.616V53.9525C64.064 55.4106 64.5711 56.0837 65.6417 56.0837C66.1488 56.0837 66.5432 55.9154 66.8249 55.5789Z" fill="#4CA9C7"/>
<path d="M73.0788 56.8127C73.0225 56.7567 73.0225 56.7006 73.0225 56.6445V49.2975C73.0225 49.2415 73.0225 49.1293 73.0788 49.0732C73.1351 49.0171 73.1915 49.0171 73.2478 49.0171H77.8681C77.9244 49.0171 78.0371 49.0171 78.0371 49.0732C78.0935 49.1293 78.0935 49.1854 78.0935 49.2975V49.6901C78.0935 49.7462 78.0935 49.8023 78.0371 49.8584C77.9808 49.9145 77.9244 49.9145 77.8681 49.9145H74.0367V52.4382H77.6427C77.6991 52.4382 77.8118 52.4382 77.8118 52.4943C77.8681 52.5504 77.8681 52.6065 77.8681 52.6626V53.0551C77.8681 53.1112 77.8681 53.1673 77.8118 53.2234C77.7554 53.2795 77.6991 53.2795 77.6427 53.2795H74.0367V55.8593H77.9808C78.0371 55.8593 78.1498 55.8593 78.1498 55.9154C78.2062 55.9715 78.2062 56.0276 78.2062 56.1397V56.5323C78.2062 56.5884 78.2062 56.6445 78.1498 56.7006C78.0935 56.7567 78.0371 56.7567 77.9808 56.7567H73.2478C73.1351 56.8688 73.0788 56.8688 73.0788 56.8127Z" fill="#4CA9C7"/>
<path d="M79.277 56.8128C79.2207 56.7567 79.2207 56.7006 79.2207 56.6445C79.2207 56.5884 79.2207 56.5323 79.277 56.4202L81.2491 53.8964L79.3897 51.4848C79.3334 51.4287 79.277 51.3166 79.277 51.2605C79.277 51.2044 79.277 51.1483 79.3334 51.0922C79.3897 51.0361 79.4461 51.0361 79.5024 51.0361H80.0659C80.1786 51.0361 80.2913 51.0922 80.3476 51.2044L81.8689 53.1673L83.3902 51.2044C83.4466 51.1483 83.5029 51.0922 83.5029 51.0922C83.5592 51.0361 83.6156 51.0361 83.6719 51.0361H84.179C84.2354 51.0361 84.2917 51.0361 84.3481 51.0922C84.4044 51.1483 84.4044 51.2044 84.4044 51.2605C84.4044 51.3166 84.4044 51.4287 84.3481 51.4848L82.4887 53.8964L84.4608 56.4202C84.5171 56.4762 84.5171 56.5884 84.5171 56.6445C84.5171 56.7006 84.5171 56.7567 84.4608 56.8128C84.4044 56.8688 84.3481 56.8688 84.2917 56.8688H83.7283C83.6156 56.8688 83.5029 56.8127 83.4466 56.7006L81.8126 54.6255L80.1786 56.7006C80.1222 56.7567 80.0659 56.8128 80.0659 56.8128C80.0095 56.8688 79.9532 56.8688 79.8968 56.8688H79.4461C79.3897 56.8688 79.3334 56.8688 79.277 56.8128Z" fill="#4CA9C7"/>
<path d="M85.8693 58.9439C85.813 58.8878 85.813 58.8318 85.813 58.7757V51.3165C85.813 51.2605 85.813 51.1483 85.8693 51.1483C85.9257 51.0922 85.982 51.0922 86.0384 51.0922H86.4891C86.5455 51.0922 86.6582 51.0922 86.6582 51.1483C86.6582 51.2044 86.7145 51.2605 86.7145 51.3165V51.8213C87.1653 51.2605 87.785 50.98 88.5739 50.98C89.3627 50.98 89.9825 51.2044 90.3769 51.7091C90.7713 52.2139 90.9967 52.8308 90.9967 53.616C90.9967 53.6721 90.9967 53.8403 90.9967 54.0086C90.9967 54.1768 90.9967 54.289 90.9967 54.4011C90.9967 55.1863 90.7713 55.8032 90.3769 56.308C89.9825 56.8127 89.3627 57.0371 88.5739 57.0371C87.785 57.0371 87.1653 56.7567 86.7708 56.1958V58.8318C86.7708 58.8878 86.7708 58.9439 86.7145 59C86.6582 59.0561 86.6018 59.0561 86.5455 59.0561H86.0384C85.982 59 85.9257 59 85.8693 58.9439ZM89.6444 55.5789C89.8698 55.2424 90.0388 54.7937 90.0388 54.2329C90.0388 54.1768 90.0388 54.0646 90.0388 53.8964C90.0388 52.4382 89.5317 51.7652 88.4612 51.7652C87.9541 51.7652 87.5597 51.9335 87.2779 52.27C86.9962 52.6065 86.8835 53.0551 86.8272 53.5038C86.8272 53.5599 86.8272 53.7281 86.8272 53.9525C86.8272 54.1768 86.8272 54.289 86.8272 54.4011C86.8272 54.8498 86.9962 55.2424 87.2779 55.5789C87.5597 55.9154 87.9541 56.0837 88.4612 56.0837C88.9683 56.0837 89.3627 55.9154 89.6444 55.5789Z" fill="#4CA9C7"/>
<path d="M93.025 56.308C92.5742 55.8593 92.3488 55.2424 92.2925 54.4572V53.9525V53.4477C92.3488 52.6625 92.5742 52.0456 93.025 51.597C93.4757 51.1483 94.0955 50.924 94.9407 50.924C95.7295 50.924 96.4056 51.1483 96.8564 51.597C97.3072 52.0456 97.5325 52.6625 97.5889 53.4477C97.5889 53.616 97.5889 53.7842 97.5889 53.9525C97.5889 54.1207 97.5889 54.289 97.5889 54.4572C97.5325 55.2424 97.3072 55.8593 96.8564 56.308C96.4056 56.7566 95.7859 56.981 94.9407 56.981C94.0955 56.981 93.4757 56.7566 93.025 56.308ZM96.0676 55.6911C96.3493 55.4106 96.5183 54.962 96.5183 54.4011C96.5183 54.3451 96.5183 54.1768 96.5183 53.9525C96.5183 53.7281 96.5183 53.616 96.5183 53.5038C96.5183 52.943 96.3493 52.4943 96.0676 52.2139C95.7859 51.9335 95.3914 51.7652 94.9407 51.7652C94.4899 51.7652 94.0955 51.9335 93.8138 52.2139C93.5321 52.4943 93.363 52.943 93.363 53.5038V53.9525V54.4011C93.363 54.962 93.5321 55.4106 93.8138 55.6911C94.0955 55.9715 94.4899 56.1397 94.9407 56.1397C95.3914 56.1397 95.7859 55.9715 96.0676 55.6911Z" fill="#4CA9C7"/>
<path d="M99.1101 56.8128C99.0537 56.7567 99.0537 56.7006 99.0537 56.6445V51.3166C99.0537 51.2605 99.0537 51.2044 99.1101 51.1483C99.1664 51.0922 99.2227 51.0922 99.2791 51.0922H99.7298C99.7862 51.0922 99.8989 51.0922 99.9552 51.1483C100.012 51.2044 100.012 51.2605 100.012 51.3166V51.8213C100.293 51.3166 100.857 51.0361 101.589 51.0361H102.04C102.096 51.0361 102.209 51.0361 102.209 51.0922C102.209 51.1483 102.265 51.2044 102.265 51.2605V51.6531C102.265 51.7091 102.265 51.7652 102.209 51.8213C102.153 51.8774 102.096 51.8774 102.04 51.8774H101.42C101.026 51.8774 100.688 51.9896 100.462 52.2139C100.237 52.4382 100.124 52.7747 100.124 53.1673V56.4762C100.124 56.5323 100.124 56.5884 100.068 56.6445C100.012 56.7006 99.9552 56.7006 99.8989 56.7006H99.3918C99.2227 56.8688 99.1664 56.8688 99.1101 56.8128Z" fill="#4CA9C7"/>
<path d="M103.843 54.9059V51.8774H102.942C102.885 51.8774 102.829 51.8774 102.773 51.8213C102.716 51.7652 102.716 51.7091 102.716 51.6531V51.3165C102.716 51.2605 102.716 51.2044 102.773 51.1483C102.829 51.0922 102.885 51.0922 102.942 51.0922H103.843V49.2415C103.843 49.1854 103.843 49.1293 103.9 49.0732C103.956 49.0171 104.012 49.0171 104.069 49.0171H104.576C104.632 49.0171 104.688 49.0171 104.745 49.0732C104.801 49.1293 104.801 49.1854 104.801 49.2415V51.0361H106.21C106.266 51.0361 106.322 51.0361 106.379 51.0922C106.435 51.1483 106.435 51.2044 106.435 51.2605V51.597C106.435 51.6531 106.435 51.7091 106.379 51.7652C106.322 51.8213 106.266 51.8213 106.21 51.8213H104.801V54.7377C104.801 55.1302 104.857 55.4107 104.97 55.5789C105.083 55.7472 105.308 55.8593 105.59 55.8593H106.266C106.322 55.8593 106.379 55.8593 106.435 55.9154C106.491 55.9715 106.491 56.0276 106.491 56.0837V56.4762C106.491 56.5323 106.491 56.5884 106.435 56.6445C106.379 56.7006 106.322 56.7006 106.266 56.7006H105.477C104.407 56.8688 103.843 56.1958 103.843 54.9059Z" fill="#4CA9C7"/>
</g>
<defs>
<clipPath id="clip0_1006_488">
<rect width="119" height="59" fill="white"/>
</clipPath>
</defs>
</svg>
