<svg width="304" height="54" viewBox="0 0 304 54" fill="none" xmlns="http://www.w3.org/2000/svg">
<g clip-path="url(#clip0_373_6509)">
<path d="M81.1616 0.918945V32.3876H101.441V30.0952H83.6017V0.918945H81.1597H81.1616ZM125.844 32.3876V10.128H123.629V22.4902C123.629 27.0881 120.414 30.5465 115.796 30.5863C110.954 30.6394 107.831 27.9356 107.831 22.9017V10.128H105.616V22.9415C105.616 29.1036 109.725 32.7459 115.702 32.7459C118.824 32.7061 121.947 31.4471 123.667 28.3869V32.3876H125.842H125.844ZM167.045 32.3876V19.0849C167.045 13.5466 163.149 9.72985 157.679 9.72985C154.237 9.72985 150.754 11.5709 149.393 15.2151C148.072 11.2543 144.496 9.72985 141.107 9.72985C138.211 9.72985 135.357 10.9357 133.809 13.8632L133.769 10.1792H131.688V32.3857H133.903V19.2158C133.903 14.9364 136.799 11.8364 141.056 11.8364C145.312 11.8364 148.261 14.9364 148.261 19.2158V32.3857H150.476V19.2158C150.476 14.9364 153.425 11.7965 157.681 11.7965C161.938 11.7965 164.833 14.8037 164.833 19.0849V32.3876H167.049H167.045ZM175.516 10.0882V32.3876H173.288V10.0882H175.516ZM172.66 2.93254C172.66 5.27795 176.236 5.27795 176.236 2.93254C176.236 0.587138 172.66 0.60041 172.66 2.93254ZM181.854 10.1811V32.3876H184.069V20.0254C184.069 15.4407 187.284 11.9691 191.902 11.9293C196.744 11.8894 199.867 14.5799 199.867 19.6139V32.3876H202.082V19.5741C202.082 13.412 197.973 9.76967 191.996 9.76967C188.874 9.82276 185.738 11.0817 184.031 14.1287V10.1811H181.856H181.854ZM218.197 32.7061C224.495 32.7061 229.564 28.3869 229.564 21.3242C229.564 14.2614 224.495 9.76967 218.197 9.76967C211.899 9.76967 206.843 14.2747 206.843 21.3242C206.843 28.3736 211.912 32.7061 218.197 32.7061ZM218.197 30.5465C213.128 30.5465 209.019 27.0881 209.019 21.3242C209.019 15.5602 213.128 11.8364 218.197 11.8364C223.266 11.8364 227.391 15.5735 227.391 21.3242C227.391 27.0748 223.268 30.5465 218.197 30.5465ZM251.391 12.792C249.163 10.712 246.322 9.82466 243.052 9.82466C238.529 9.77157 234.14 11.6657 234.18 16.0247C234.233 20.4766 238.529 21.2843 242.878 22.001C246.547 22.5831 250.257 23.2202 250.163 26.4131C250.028 29.9113 245.906 30.6394 243.184 30.6394C240.209 30.6394 236.847 29.5132 234.993 26.8625L233.365 28.294C235.314 31.2613 239.209 32.7459 243.145 32.7459C247.08 32.7459 252.204 31.4471 252.338 26.5459C252.565 21.3791 247.082 20.7022 243.105 20.0273C240.291 19.5362 236.393 18.9408 236.314 15.9735C236.221 13.1522 239.569 11.8401 243.052 11.8932C245.547 11.8932 247.762 12.2516 250.03 14.2254L251.391 12.7939V12.792ZM259.49 10.0882V32.3876H257.275V10.0882H259.49ZM256.634 2.93254C256.634 5.27795 260.211 5.27795 260.211 2.93254C260.211 0.587138 256.634 0.60041 256.634 2.93254ZM268.777 3.70044V10.1792H264.013V12.0203H268.777V25.5485C268.777 29.9075 270.311 32.7042 275.061 32.7042C276.462 32.7042 277.876 32.2529 279.278 31.5779L278.505 29.7767C277.371 30.3209 276.157 30.6773 275.063 30.6773C271.582 30.6773 270.954 28.5708 270.954 25.5504V12.0222H278.56V10.1811H270.954V3.47671L268.778 3.70234L268.777 3.70044ZM300.863 10.1792L295.259 23.2562L292.671 29.735L290.042 23.3093L284.839 10.1792H282.436L291.403 32.1221L287.281 41.6497H289.642L303.264 10.1811H300.861L300.863 10.1792Z" fill="black"/>
<path d="M8.50169 1.90674H69.2312C69.9022 1.90674 70.4465 2.4528 70.4465 3.12589V20.1827C70.4465 20.8558 69.9022 21.4018 69.2312 21.4018H29.1493V27.4938C29.1493 29.5131 27.5182 31.1494 25.5052 31.1494H8.50169C6.48871 31.1494 4.85754 29.5131 4.85754 27.4938V21.4018H3.64219C1.62922 21.4018 -0.00195312 19.7656 -0.00195312 17.7463V10.4351C0.00560735 5.72726 3.80852 1.91243 8.50169 1.90674ZM8.50169 4.34315C5.14862 4.34694 2.43252 7.07156 2.42874 10.4351V14.0907H68.0158V4.34315H8.50169ZM7.28634 27.4919C7.28634 28.165 7.8307 28.7111 8.50169 28.7111H25.5052C26.1762 28.7111 26.7205 28.165 26.7205 27.4919V21.3999H7.28823V27.4919H7.28634ZM2.42874 17.7444C2.42874 18.4175 2.97309 18.9635 3.64408 18.9635H68.0177V16.5271H2.42874V17.7463V17.7444ZM12.711 37.8898C12.2441 37.4063 12.2574 36.6346 12.7412 36.1663C13.2119 35.7094 13.9585 35.7094 14.4291 36.1663C15.8524 37.594 18.1583 37.594 19.5816 36.1663C20.0635 35.698 20.8328 35.7113 21.2997 36.1967C21.7552 36.6688 21.7552 37.4177 21.2997 37.8898C18.9257 40.2656 15.085 40.2656 12.711 37.8898ZM25.5921 40.476C26.0666 40.9519 26.0666 41.7236 25.5921 42.1995C20.846 46.9491 13.1627 46.9491 8.41663 42.1995C7.94977 41.716 7.963 40.9444 8.44687 40.476C8.91751 40.0191 9.66411 40.0191 10.1347 40.476C13.932 44.2776 20.0787 44.2776 23.8759 40.476C24.3503 40.0001 25.1196 40.0001 25.594 40.476H25.5921ZM6.69851 46.3575C12.3897 52.0665 21.6191 52.0665 27.3103 46.3575C27.7847 45.8816 28.5539 45.8816 29.0284 46.3575C29.5028 46.8335 29.5028 47.6051 29.0284 48.0811C22.3884 54.7419 11.6223 54.7437 4.9804 48.0811C4.51354 47.5957 4.52677 46.824 5.01064 46.3575C5.48128 45.9006 6.22788 45.9006 6.69851 46.3575ZM20.6476 26.2728H13.3593C12.6883 26.2728 12.1439 25.7267 12.1439 25.0536C12.1439 24.3805 12.6883 23.8345 13.3593 23.8345H20.6476C21.3186 23.8345 21.8629 24.3805 21.8629 25.0536C21.8629 25.7267 21.3186 26.2728 20.6476 26.2728ZM64.3717 7.99683H60.7275C60.0565 7.99683 59.5122 7.45077 59.5122 6.77767C59.5122 6.10458 60.0565 5.55852 60.7275 5.55852H64.3717C65.0427 5.55852 65.587 6.10458 65.587 6.77767C65.587 7.45077 65.0427 7.99683 64.3717 7.99683Z" fill="url(#paint0_linear_373_6509)"/>
<path d="M210.52 48.6291V44.7991L207.565 38.745H208.904L210.179 41.5322C210.338 41.8943 210.493 42.2489 210.642 42.5997C210.792 42.9523 210.949 43.3107 211.119 43.6804H211.179C211.346 43.3107 211.518 42.9523 211.692 42.5997C211.86 42.2489 212.019 41.8943 212.168 41.5322L213.43 38.745H214.733L211.778 44.7991V48.6291H210.516H210.52ZM201.67 43.6823H203.296C204.154 43.6823 204.794 43.5174 205.21 43.1893C205.628 42.8651 205.836 42.3513 205.836 41.646C205.836 40.9406 205.622 40.4401 205.199 40.1652C204.781 39.8883 204.146 39.7518 203.296 39.7518H201.67V43.6823ZM200.432 48.6291V38.745H203.447C203.989 38.745 204.486 38.7962 204.938 38.8948C205.39 38.9953 205.772 39.1584 206.091 39.3878C206.397 39.6134 206.639 39.9092 206.817 40.277C206.991 40.6543 207.078 41.1094 207.078 41.646C207.078 42.1825 206.993 42.6243 206.817 43.0035C206.639 43.3865 206.394 43.707 206.078 43.9553C205.762 44.2056 205.377 44.3952 204.925 44.5204C204.484 44.6455 203.991 44.71 203.449 44.71H201.672V48.6291H200.434H200.432ZM197.69 48.6291L196.763 45.6144H193.17L192.231 48.6291H190.957L194.284 38.745H195.699L199.03 48.6291H197.688H197.69ZM193.484 44.6095H196.451L195.988 43.104C195.805 42.5504 195.633 41.9986 195.476 41.445C195.316 40.9027 195.155 40.3415 194.987 39.7632H194.936C194.786 40.3415 194.629 40.9027 194.461 41.445C194.301 41.9986 194.134 42.5523 193.96 43.104L193.484 44.6095ZM190.505 48.6291H189.091L186.712 44.4597H184.922V48.6291H183.684V38.745H186.763C187.264 38.745 187.727 38.7924 188.154 38.8853C188.577 38.9858 188.94 39.1432 189.243 39.3631C189.551 39.5793 189.789 39.8637 189.955 40.2164C190.133 40.5671 190.218 41.0032 190.218 41.5227C190.218 42.2925 190.019 42.9068 189.617 43.3676C189.218 43.8264 188.677 44.1468 188.005 44.3213L190.507 48.6291H190.505ZM184.922 39.7518V43.4282H186.574C187.352 43.4282 187.942 43.2709 188.352 42.9523C188.763 42.6338 188.965 42.1541 188.965 41.5208C188.965 40.8876 188.763 40.406 188.352 40.1386C187.942 39.877 187.352 39.7499 186.574 39.7499H184.922V39.7518ZM175.76 48.6291V38.745H181.444V39.8011H177.014V42.8993H180.756V43.9667H177.014V47.5597H181.593V48.6272H175.76V48.6291ZM165.971 48.6291V38.745H167.225V42.8879H171.806V38.745H173.056V48.6291H171.806V43.9686H167.225V48.6291H165.971ZM159.965 48.6291V39.803H156.986V38.7469H164.195V39.803H161.227V48.6291H159.965ZM146.974 48.6291V38.745H152.657V39.8011H148.225V42.8993H151.958V43.9667H148.225V47.5597H152.807V48.6272H146.974V48.6291ZM141.039 48.6291L137.886 38.745H139.224L140.801 44.0805C140.978 44.6664 141.135 45.2124 141.277 45.7111C141.409 46.2135 141.574 46.7596 141.765 47.3455H141.816C142.001 46.7596 142.162 46.2135 142.305 45.7111C142.447 45.2105 142.598 44.6664 142.768 44.0805L144.345 38.745H145.622L142.492 48.6291H141.041H141.039ZM136.709 48.6291L135.782 45.6144H132.189L131.25 48.6291H129.976L133.305 38.745H134.72L138.051 48.6291H136.711H136.709ZM132.503 44.6095H135.471L135.008 43.104C134.824 42.5504 134.652 41.9986 134.495 41.445C134.335 40.9027 134.174 40.3415 134.006 39.7632H133.957C133.807 40.3415 133.649 40.9027 133.482 41.445C133.322 41.9986 133.155 42.5523 132.981 43.104L132.505 44.6095H132.503ZM120.55 48.6291L118.458 38.745H119.76L120.788 44.1203C120.879 44.6626 120.977 45.1954 121.075 45.713C121.176 46.2401 121.27 46.7767 121.365 47.3227H121.425C121.533 46.7786 121.646 46.242 121.763 45.713C121.888 45.1878 122.005 44.655 122.115 44.1203L123.478 38.745H124.618L125.994 44.1203C126.111 44.6455 126.226 45.1726 126.345 45.7016C126.47 46.2382 126.589 46.7767 126.708 47.3208H126.769C126.859 46.7767 126.952 46.2401 127.044 45.7111C127.128 45.1859 127.218 44.6531 127.319 44.1184L128.358 38.7431H129.56L127.519 48.6272H126.018L124.531 42.6736C124.436 42.2906 124.353 41.9171 124.277 41.555C124.204 41.189 124.128 40.8098 124.052 40.4268H123.988C123.905 40.8117 123.822 41.189 123.739 41.555C123.655 41.9171 123.572 42.2887 123.489 42.6736L122.038 48.6272H120.546L120.55 48.6291ZM113.466 48.6291V39.803H110.487V38.7469H117.696V39.803H114.728V48.6291H113.466ZM101.624 48.6291V38.745H102.876V42.8879H107.455V38.745H108.722V48.6291H107.455V43.9686H102.876V48.6291H101.624ZM91.7862 43.6823C91.7862 42.8917 91.8996 42.1807 92.1246 41.5474C92.3514 40.9103 92.667 40.3737 93.0772 39.9376C93.476 39.4959 93.9523 39.1565 94.5042 38.9195C95.0523 38.6787 95.661 38.5554 96.3301 38.5554C96.9992 38.5554 97.5738 38.6862 98.0331 38.9441C98.4829 39.2058 98.8534 39.4864 99.1463 39.786L98.4451 40.5785C98.1937 40.3168 97.9045 40.1007 97.5813 39.9263C97.2581 39.7518 96.8423 39.6627 96.3433 39.6627C95.8443 39.6627 95.3907 39.7537 94.9919 39.9376C94.5912 40.1234 94.249 40.3908 93.9636 40.7416C93.6896 41.0866 93.4722 41.5057 93.3153 41.9986C93.1547 42.4935 93.0772 43.0452 93.0772 43.6577C93.0772 44.2701 93.1509 44.8351 93.3021 45.3395C93.4439 45.8343 93.6518 46.2571 93.9277 46.606C94.2018 46.9587 94.5458 47.2317 94.9522 47.4232C95.3548 47.6147 95.8216 47.7114 96.3546 47.7114C96.7062 47.7114 97.0389 47.6564 97.3583 47.5465C97.6739 47.446 97.9348 47.3057 98.1351 47.1179V44.545H96.0428V43.5022H99.273V47.6602C98.946 47.9939 98.5226 48.2707 97.9953 48.4888C97.4698 48.6974 96.8782 48.8016 96.2204 48.8016C95.5627 48.8016 94.9711 48.6879 94.4305 48.4622C93.8956 48.2252 93.4325 47.8934 93.0394 47.4554C92.6481 47.0212 92.3438 46.4866 92.1246 45.8495C91.8996 45.2048 91.7862 44.4824 91.7862 43.6785V43.6823ZM88.4086 48.6291V38.745H89.658V48.6291H88.4086ZM81.1108 48.6291V38.745H82.3621V47.5616H86.6678V48.6291H81.1108Z" fill="url(#paint1_linear_373_6509)"/>
</g>
<defs>
<linearGradient id="paint0_linear_373_6509" x1="35.2223" y1="53.0809" x2="35.2223" y2="1.90674" gradientUnits="userSpaceOnUse">
<stop stop-color="#FD9248"/>
<stop offset="0.5" stop-color="#FA1768"/>
<stop offset="1" stop-color="#F001FF"/>
</linearGradient>
<linearGradient id="paint1_linear_373_6509" x1="147.923" y1="48.8035" x2="147.923" y2="38.5554" gradientUnits="userSpaceOnUse">
<stop stop-color="#FD9248"/>
<stop offset="0.5" stop-color="#FA1768"/>
<stop offset="1" stop-color="#F001FF"/>
</linearGradient>
<clipPath id="clip0_373_6509">
<rect width="303.268" height="52.162" fill="white" transform="translate(0 0.918945)"/>
</clipPath>
</defs>
</svg>
