<svg width="14" height="17" viewBox="0 0 14 17" xmlns="http://www.w3.org/2000/svg"><path d="M0.478567 7.09375L6.38482 0.90625C6.5606 0.730469 6.77154 0.625 7.01763 0.625C7.22857 0.625 7.4395 0.730469 7.61529 0.90625L13.5215 7.09375C13.8379 7.41016 13.8379 7.97266 13.4864 8.28906C13.17 8.60547 12.6075 8.60547 12.2911 8.25391L7.86138 3.57812V15.5312C7.86138 16.0234 7.47466 16.375 7.01763 16.375C6.52544 16.375 6.17388 16.0234 6.17388 15.5312V3.57812L1.70904 8.25391C1.39263 8.60547 0.83013 8.60547 0.513723 8.28906C0.162161 7.97266 0.162161 7.44531 0.478567 7.09375Z"/></svg>