<svg width="14" height="17" viewBox="0 0 14 17" xmlns="http://www.w3.org/2000/svg"><path d="M13.5216 9.90625L7.6153 16.0937C7.43952 16.2695 7.22859 16.375 6.98249 16.375C6.77155 16.375 6.56062 16.2695 6.38484 16.0937L0.478587 9.90625C0.162181 9.58984 0.162181 9.02734 0.513743 8.71094C0.830149 8.39453 1.39265 8.39453 1.70906 8.74609L6.13874 13.4219L6.13874 1.46875C6.13874 0.976562 6.52546 0.624999 6.98249 0.624999C7.47468 0.624999 7.82624 0.976562 7.82624 1.46875L7.82624 13.4219L12.2911 8.74609C12.6075 8.39453 13.17 8.39453 13.4864 8.71094C13.838 9.02734 13.838 9.55469 13.5216 9.90625Z"/></svg>